<svg xmlns="http://www.w3.org/2000/svg" viewBox="0 0 500 500"><g id="freepik--background-complete--inject-47"><rect y="382.4" width="500" height="0.25" style="fill:#ebebeb"></rect><rect x="416.78" y="398.49" width="33.12" height="0.25" style="fill:#ebebeb"></rect><rect x="322.53" y="401.21" width="8.69" height="0.25" style="fill:#ebebeb"></rect><rect x="396.59" y="389.21" width="19.19" height="0.25" style="fill:#ebebeb"></rect><rect x="52.46" y="390.89" width="43.19" height="0.25" style="fill:#ebebeb"></rect><rect x="104.56" y="390.89" width="6.33" height="0.25" style="fill:#ebebeb"></rect><rect x="131.47" y="395.11" width="93.68" height="0.25" style="fill:#ebebeb"></rect><path d="M237,337.8H43.91a5.71,5.71,0,0,1-5.7-5.71V60.66A5.71,5.71,0,0,1,43.91,55H237a5.71,5.71,0,0,1,5.71,5.71V332.09A5.71,5.71,0,0,1,237,337.8ZM43.91,55.2a5.46,5.46,0,0,0-5.45,5.46V332.09a5.46,5.46,0,0,0,5.45,5.46H237a5.47,5.47,0,0,0,5.46-5.46V60.66A5.47,5.47,0,0,0,237,55.2Z" style="fill:#ebebeb"></path><path d="M453.31,337.8H260.21a5.72,5.72,0,0,1-5.71-5.71V60.66A5.72,5.72,0,0,1,260.21,55h193.1A5.71,5.71,0,0,1,459,60.66V332.09A5.71,5.71,0,0,1,453.31,337.8ZM260.21,55.2a5.47,5.47,0,0,0-5.46,5.46V332.09a5.47,5.47,0,0,0,5.46,5.46h193.1a5.47,5.47,0,0,0,5.46-5.46V60.66a5.47,5.47,0,0,0-5.46-5.46Z" style="fill:#ebebeb"></path><path d="M366.93,382H47.61s9.85-15.17,18.06-27.33c5.2-7.69,9.73-14.18,10.71-14.88,2.52-1.8,9-2.88,11.87-9.55s2.87-9.51,7-17.06,20-28.05,21.65-28,16-22.34,21.43-24.14,6-7.19,11.89-15.28,25.42-34,33.69-34.59,28.52,38.34,36.35,41.24,16.51-9.71,19.28-6.65,8.38,14.56,14.09,23.91,11.47,13.66,12,17.2,12.15,9.77,17.95,9.77c2,0,6.21,4.36,11,10.14l0,0c9.33,11.29,20.64,27.95,20.64,27.95,1.55,2.25,4.26-1.08,8.93.71S366.93,382,366.93,382Z" style="fill:#f0f0f0"></path><path d="M366.93,382H47.61s9.85-15.17,18.06-27.33c4.76-5.25,8.58-9.18,10-10,5.21-3,9.25-9.81,12.39-10.68A25.09,25.09,0,0,0,95,330.28S99.83,315,101,312.34s15.83-19.46,19.12-20.65,5.42,2.77,7.38,4.93,17,29.09,17,29.09l9.53-6.33s5.54-7.12,7.65-10.68,4.15-2.77,4.15-2.77,10-11.47,10.48-14.56,6.6-1.66,7-1.66,10.32,4.75,10.32,4.75-10.37-13-14.75-9.53-29.24,27.41-29.24,27.41l-14.17-17.88,6.65-9.53s9.1-11.44,9.89-13,16.22-23.34,16.46-24.53,13.21-11.47,14.84-10.69,5.1,3.18,9,8.34,5.6,8.29,9.66,14.94,7.41,8.38,8.75,10,16.15,17.6,16.61,18.1L216.11,270s5.57-5.23,9.17-8.79,4.71,1.19,9.43,4.75,5.56,5.93,9.12,11.41,20.42,25,20.42,25-2.62,4.35-5.46,8.76S254,322.67,254,322.67l5-2.89s10.55-10.29,12.39-12.93,6.86-7.64,11.24-7.25c4.22.39,11.4,6.77,11.91,7.22l0,0c9.33,11.29,20.64,27.95,20.64,27.95,1.55,2.25,4.26-1.08,8.93.71S366.93,382,366.93,382Z" style="fill:#e6e6e6"></path><path d="M158.56,158.09a8.78,8.78,0,0,1,11.34-8.44,20.22,20.22,0,0,1-.19-2.71,18.67,18.67,0,0,1,22.11-18.35,16.32,16.32,0,0,1,30.26,8.25l.27,0a15,15,0,0,1,0,30.09H167.11v0A8.8,8.8,0,0,1,158.56,158.09Z" style="fill:#ebebeb"></path><path d="M74.77,118.14a5.63,5.63,0,0,1,5.63-5.63,5.77,5.77,0,0,1,1.62.24,12.25,12.25,0,0,1-.13-1.73A11.92,11.92,0,0,1,93.81,99.1a12.25,12.25,0,0,1,2.2.21,10.42,10.42,0,0,1,19.32,5.27h.17a9.6,9.6,0,0,1,0,19.2H80.24A5.64,5.64,0,0,1,74.77,118.14Z" style="fill:#ebebeb"></path><path d="M360.87,187.31a3.45,3.45,0,0,1,3.45-3.45,3.59,3.59,0,0,1,1,.14,7.2,7.2,0,0,1-.08-1.05,7.3,7.3,0,0,1,7.3-7.31,7.53,7.53,0,0,1,1.35.13A6.38,6.38,0,0,1,385.72,179h.1a5.89,5.89,0,0,1,0,11.77h-21.6A3.44,3.44,0,0,1,360.87,187.31Z" style="fill:#ebebeb"></path><path d="M393.54,106.57a3.44,3.44,0,0,1,3.44-3.45,3.21,3.21,0,0,1,1,.15,7.45,7.45,0,0,1-.07-1.06A7.27,7.27,0,0,1,406.54,95a6.38,6.38,0,0,1,11.84,3.23h.11a5.89,5.89,0,0,1,0,11.77h-21.6A3.44,3.44,0,0,1,393.54,106.57Z" style="fill:#ebebeb"></path><path d="M450.6,382H116.89s10.54-23.51,15.93-21.25,22.43-11.85,24.88-17.53,11,1.85,22.48-.55,28.29-39.31,33.47-37.4,20.23,36.44,23.8,37.72,7-9.91,12-10.87,8.93,7.67,9.89,10.07,5.79,10.07,5.79,10.07,7.64-2.4,10.05-4.31,14.37-25.89,16.88-29.3,7.56-6.18,15.16-4.75,10.61-12,19-20.17,12.69-5.24,15.61-5.63,18.66-26.93,22.5-24.69,21.09,34.67,24.19,38.51,10.32-2.4,11.18,0S413.89,323,413.89,323s6-.48,9.64,2.4c.61.48,1.78,2.41,3.3,5.28l.31.59C434.82,345.89,450.6,382,450.6,382Z" style="fill:#ebebeb"></path><path d="M450.6,382H290.84c-4.78-7-12.62-18.63-12.37-19.45.36-1.18,15.1-30.3,22.12-34.27s12.26-.71,12.26-.71L307.18,343c.41-.54,13.78-17.76,17.32-20.34s2.3-4.78,1.69-5.86-8.45,1.71-8.87,1.86c.61-.63,16.23-16.43,19-17.94s8.57-1.54,8.57-1.54,10.49-13.85,14.09-19,12.76,2.47,14.47,8.39,7.82,12,7.82,12l4.32,12.22s-13.13-9.71-15.55-9a53.79,53.79,0,0,1-8.1,1.08s-2.6-7.55-5.84-8.63-10.07,4-15.1,10.79c-6.34,8.61,8.63-9.71,15.82,0s8.4,6.47,12.11,3.95,16.64,17.63,19.52,20.5,8.47-6.83,8.47-6.83-5.58,5-4.86,1.44,1-16.34,6.4-16.9,10.83,15.1,10.83,15.1l-5.72,7.73,15.46-6.29,7.76,4.92.31.59C434.82,345.89,450.6,382,450.6,382Z" style="fill:#e0e0e0"></path><path d="M122,382c2.07-3.51,3.89-6.95,3.46-7.56-.91-1.32,9.19-5.51,11.43-6.86s4.59-2.25,10.39-1.92,3.91.75,5.45,1.92,1.83,9.57,1.83,9.57,3.1-5.71,3.16-9.57-5-6.83-5-6.83,1.34-2.26,2.51-3.87,6.74-9.89,10.34-11,10.06,1.8,12.94,3.59,2.87,1.8,5.39,3.24,1.8,2.88,2.88,8,2.87-.46,6,1.8,6.44,7.34,6.44,7.34-.93-6.36-3.18-9.14-3.26-10.17-3.26-10.17L196,343s7.29-12.54,11.64-18.3,4.27-3.23,9.38,1.8,4.6,4.31,7.55,10.2S237,356.91,237,356.91l-.29-5.58s6.51-6.83,9.38-4.67,5,6.83,5,6.83l-3.26,3.42s-3.93,7.73-5.61,8.78,4.2-1.42,8.87-3.11,8.27-7.65,11.15-5.67c2.09,1.45,14.6,16.84,21.25,25.12Z" style="fill:#e0e0e0"></path><path d="M201.27,198.34a4.66,4.66,0,0,1,4.66-4.66,4.87,4.87,0,0,1,1.34.19,9.54,9.54,0,0,1-.1-1.43,9.87,9.87,0,0,1,11.69-9.7,8.63,8.63,0,0,1,16,4.36H235A8,8,0,0,1,235,203H205.8A4.66,4.66,0,0,1,201.27,198.34Z" style="fill:#ebebeb"></path><path d="M250.7,248.27a3.44,3.44,0,0,1,3.45-3.45,3.64,3.64,0,0,1,1,.14,7.2,7.2,0,0,1-.08-1.05,7.3,7.3,0,0,1,7.3-7.31,7.53,7.53,0,0,1,1.35.13A6.38,6.38,0,0,1,275.54,240h.11a5.89,5.89,0,0,1,0,11.77h-21.6A3.44,3.44,0,0,1,250.7,248.27Z" style="fill:#ebebeb"></path><path d="M167.42,234.61A2.61,2.61,0,0,1,170,232a2.67,2.67,0,0,1,.75.11,5.29,5.29,0,0,1-.06-.8,5.53,5.53,0,0,1,5.53-5.53,5.69,5.69,0,0,1,1,.09,4.84,4.84,0,0,1,9,2.44h.08a4.46,4.46,0,0,1,0,8.91H170A2.62,2.62,0,0,1,167.42,234.61Z" style="fill:#ebebeb"></path><path d="M96.68,200.6a2.61,2.61,0,0,1,3.36-2.5,7,7,0,0,1-.06-.8,5.53,5.53,0,0,1,5.54-5.53,5.69,5.69,0,0,1,1,.09,4.83,4.83,0,0,1,9,2.45h.08a4.46,4.46,0,1,1,0,8.91H99.22A2.61,2.61,0,0,1,96.68,200.6Z" style="fill:#ebebeb"></path><path d="M378.24,195a2.61,2.61,0,0,1,2.61-2.61,2.56,2.56,0,0,1,.75.11,7,7,0,0,1-.05-.8,5.52,5.52,0,0,1,5.53-5.53,5.69,5.69,0,0,1,1,.09,4.83,4.83,0,0,1,9,2.45h.08a4.46,4.46,0,1,1,0,8.92H380.78A2.61,2.61,0,0,1,378.24,195Z" style="fill:#ebebeb"></path></g><g id="freepik--Rain--inject-47"><path d="M284.66,173.55a.92.92,0,0,1-.88-.65l-.7-2.21a.92.92,0,0,1,1.76-.56l.71,2.21a1,1,0,0,1-.89,1.21Z" style="fill:#407BFF"></path><path d="M304.76,236.66a.93.93,0,0,1-.88-.64l-1.44-4.51a.94.94,0,0,1,.61-1.17.93.93,0,0,1,1.16.61l1.44,4.5a.94.94,0,0,1-.61,1.17A.86.86,0,0,1,304.76,236.66Zm-2.87-9A.93.93,0,0,1,301,227l-1.44-4.51a.93.93,0,0,1,1.77-.56l1.43,4.51a.94.94,0,0,1-.88,1.21Zm-2.87-9a.92.92,0,0,1-.88-.65l-1.44-4.5a.93.93,0,0,1,1.77-.57l1.43,4.51a.93.93,0,0,1-.6,1.17A1.35,1.35,0,0,1,299,218.63Zm-2.87-9a.92.92,0,0,1-.88-.64l-1.44-4.51a.93.93,0,0,1,.6-1.17.94.94,0,0,1,1.17.61l1.43,4.5a.93.93,0,0,1-.6,1.17A.9.9,0,0,1,296.15,209.61Zm-2.87-9a.93.93,0,0,1-.89-.65L291,195.44a.92.92,0,1,1,1.76-.56l1.44,4.51a.91.91,0,0,1-.6,1.16A1,1,0,0,1,293.28,200.6Zm-2.87-9a.93.93,0,0,1-.89-.65l-1.43-4.5a.93.93,0,1,1,1.76-.57l1.44,4.51a.92.92,0,0,1-.88,1.21Zm-2.88-9a.93.93,0,0,1-.88-.64l-1.43-4.51a.92.92,0,1,1,1.76-.56l1.44,4.51a.94.94,0,0,1-.6,1.16A1,1,0,0,1,287.53,182.56Z" style="fill:#407BFF"></path><path d="M306.9,243.38a.93.93,0,0,1-.88-.65l-.7-2.21a.92.92,0,0,1,1.76-.56l.71,2.21a1,1,0,0,1-.89,1.21Z" style="fill:#407BFF"></path><path d="M296.86,173.55a.93.93,0,0,1-.88-.65l-.7-2.21a.92.92,0,0,1,1.76-.56l.71,2.21a.93.93,0,0,1-.61,1.16A.87.87,0,0,1,296.86,173.55Z" style="fill:#407BFF"></path><path d="M317,236.66a.93.93,0,0,1-.88-.64l-1.44-4.51a.94.94,0,0,1,.61-1.17.93.93,0,0,1,1.16.61l1.44,4.5a.94.94,0,0,1-.61,1.17A.86.86,0,0,1,317,236.66Zm-2.87-9a.92.92,0,0,1-.88-.64l-1.44-4.51a.93.93,0,0,1,1.77-.56l1.43,4.51a.92.92,0,0,1-.6,1.16A.9.9,0,0,1,314.09,227.64Zm-2.87-9a.92.92,0,0,1-.88-.65l-1.44-4.5a.93.93,0,0,1,1.77-.57l1.43,4.51a.93.93,0,0,1-.6,1.17A1.35,1.35,0,0,1,311.22,218.63Zm-2.87-9a.92.92,0,0,1-.88-.64L306,204.46a.93.93,0,0,1,.6-1.17.94.94,0,0,1,1.17.61l1.43,4.5a.93.93,0,0,1-.6,1.17A.9.9,0,0,1,308.35,209.61Zm-2.87-9a.93.93,0,0,1-.89-.65l-1.43-4.51a.92.92,0,0,1,1.76-.56l1.44,4.51a.94.94,0,0,1-.88,1.21Zm-2.87-9a.93.93,0,0,1-.89-.65l-1.43-4.5a.93.93,0,1,1,1.76-.57l1.44,4.51a.92.92,0,0,1-.88,1.21Zm-2.88-9a.93.93,0,0,1-.88-.64l-1.43-4.51a.92.92,0,1,1,1.76-.56l1.44,4.51a.94.94,0,0,1-.6,1.16A1,1,0,0,1,299.73,182.56Z" style="fill:#407BFF"></path><path d="M319.1,243.38a.93.93,0,0,1-.88-.65l-.7-2.21a.92.92,0,0,1,1.76-.56l.71,2.21a.93.93,0,0,1-.61,1.16A.87.87,0,0,1,319.1,243.38Z" style="fill:#407BFF"></path><path d="M309.06,173.55a.93.93,0,0,1-.88-.65l-.7-2.21a.92.92,0,1,1,1.76-.56l.71,2.21a.93.93,0,0,1-.61,1.16A.87.87,0,0,1,309.06,173.55Z" style="fill:#407BFF"></path><path d="M329.16,236.66a.93.93,0,0,1-.88-.64l-1.44-4.51a.94.94,0,0,1,.61-1.17.93.93,0,0,1,1.16.61l1.44,4.5a.94.94,0,0,1-.6,1.17A1,1,0,0,1,329.16,236.66Zm-2.87-9a.93.93,0,0,1-.88-.65L324,222.49a.93.93,0,0,1,1.77-.56l1.44,4.51a.93.93,0,0,1-.61,1.16A.87.87,0,0,1,326.29,227.65Zm-2.87-9a.92.92,0,0,1-.88-.65l-1.44-4.5a.93.93,0,0,1,1.77-.57l1.43,4.51a.93.93,0,0,1-.6,1.17A1.35,1.35,0,0,1,323.42,218.63Zm-2.87-9a.92.92,0,0,1-.88-.64l-1.44-4.51a.93.93,0,0,1,.6-1.17.94.94,0,0,1,1.17.61l1.43,4.5a.93.93,0,0,1-.6,1.17A.9.9,0,0,1,320.55,209.61Zm-2.87-9a.93.93,0,0,1-.89-.65l-1.43-4.51a.92.92,0,0,1,1.76-.56l1.44,4.51a.94.94,0,0,1-.88,1.21Zm-2.87-9a.93.93,0,0,1-.89-.65l-1.43-4.5a.93.93,0,1,1,1.76-.57l1.44,4.51a.94.94,0,0,1-.6,1.17A1,1,0,0,1,314.81,191.58Zm-2.88-9a.93.93,0,0,1-.88-.64l-1.43-4.51a.92.92,0,0,1,1.76-.56l1.44,4.51a.94.94,0,0,1-.6,1.16A1,1,0,0,1,311.93,182.56Z" style="fill:#407BFF"></path><path d="M331.3,243.38a.94.94,0,0,1-.88-.65l-.7-2.21a.92.92,0,0,1,1.76-.56l.71,2.21a.93.93,0,0,1-.61,1.16A.87.87,0,0,1,331.3,243.38Z" style="fill:#407BFF"></path><path d="M321.26,173.55a.93.93,0,0,1-.88-.65l-.7-2.21a.92.92,0,1,1,1.76-.56l.71,2.21a.93.93,0,0,1-.61,1.16A.87.87,0,0,1,321.26,173.55Z" style="fill:#407BFF"></path><path d="M341.36,236.66a.93.93,0,0,1-.88-.64l-1.43-4.51a.92.92,0,1,1,1.76-.56l1.44,4.5a.94.94,0,0,1-.6,1.17A1,1,0,0,1,341.36,236.66Zm-2.87-9a.93.93,0,0,1-.88-.64l-1.44-4.51a.93.93,0,0,1,1.77-.56l1.44,4.51a.93.93,0,0,1-.61,1.16A.86.86,0,0,1,338.49,227.64Zm-2.87-9a.92.92,0,0,1-.88-.65l-1.44-4.5a.93.93,0,0,1,1.77-.57l1.43,4.51a.93.93,0,0,1-.6,1.17A1.35,1.35,0,0,1,335.62,218.63Zm-2.87-9a.92.92,0,0,1-.88-.64l-1.44-4.51a.93.93,0,1,1,1.77-.56l1.43,4.5a.93.93,0,0,1-.6,1.17A.9.9,0,0,1,332.75,209.61Zm-2.87-9A.92.92,0,0,1,329,200l-1.44-4.51a.91.91,0,0,1,.6-1.16.93.93,0,0,1,1.17.6l1.43,4.51a.94.94,0,0,1-.88,1.21Zm-2.87-9a.93.93,0,0,1-.89-.65l-1.43-4.5a.93.93,0,1,1,1.76-.57l1.44,4.51a.93.93,0,0,1-.6,1.17A1,1,0,0,1,327,191.58Zm-2.88-9a.93.93,0,0,1-.88-.64l-1.43-4.51a.92.92,0,0,1,1.76-.56l1.44,4.51a.94.94,0,0,1-.6,1.16A1,1,0,0,1,324.13,182.56Z" style="fill:#407BFF"></path><path d="M343.5,243.38a.94.94,0,0,1-.88-.65l-.7-2.21a.92.92,0,0,1,1.76-.56l.71,2.21a.93.93,0,0,1-.61,1.16A.87.87,0,0,1,343.5,243.38Z" style="fill:#407BFF"></path><g style="opacity:0.7000000000000001"><path d="M284.66,173.55a.92.92,0,0,1-.88-.65l-.7-2.21a.92.92,0,0,1,1.76-.56l.71,2.21a1,1,0,0,1-.89,1.21Z" style="fill:#fff"></path><path d="M304.76,236.66a.93.93,0,0,1-.88-.64l-1.44-4.51a.94.94,0,0,1,.61-1.17.93.93,0,0,1,1.16.61l1.44,4.5a.94.94,0,0,1-.61,1.17A.86.86,0,0,1,304.76,236.66Zm-2.87-9A.93.93,0,0,1,301,227l-1.44-4.51a.93.93,0,0,1,1.77-.56l1.43,4.51a.94.94,0,0,1-.88,1.21Zm-2.87-9a.92.92,0,0,1-.88-.65l-1.44-4.5a.93.93,0,0,1,1.77-.57l1.43,4.51a.93.93,0,0,1-.6,1.17A1.35,1.35,0,0,1,299,218.63Zm-2.87-9a.92.92,0,0,1-.88-.64l-1.44-4.51a.93.93,0,0,1,.6-1.17.94.94,0,0,1,1.17.61l1.43,4.5a.93.93,0,0,1-.6,1.17A.9.9,0,0,1,296.15,209.61Zm-2.87-9a.93.93,0,0,1-.89-.65L291,195.44a.92.92,0,1,1,1.76-.56l1.44,4.51a.91.91,0,0,1-.6,1.16A1,1,0,0,1,293.28,200.6Zm-2.87-9a.93.93,0,0,1-.89-.65l-1.43-4.5a.93.93,0,1,1,1.76-.57l1.44,4.51a.92.92,0,0,1-.88,1.21Zm-2.88-9a.93.93,0,0,1-.88-.64l-1.43-4.51a.92.92,0,1,1,1.76-.56l1.44,4.51a.94.94,0,0,1-.6,1.16A1,1,0,0,1,287.53,182.56Z" style="fill:#fff"></path><path d="M306.9,243.38a.93.93,0,0,1-.88-.65l-.7-2.21a.92.92,0,0,1,1.76-.56l.71,2.21a1,1,0,0,1-.89,1.21Z" style="fill:#fff"></path><path d="M296.86,173.55a.93.93,0,0,1-.88-.65l-.7-2.21a.92.92,0,0,1,1.76-.56l.71,2.21a.93.93,0,0,1-.61,1.16A.87.87,0,0,1,296.86,173.55Z" style="fill:#fff"></path><path d="M317,236.66a.93.93,0,0,1-.88-.64l-1.44-4.51a.94.94,0,0,1,.61-1.17.93.93,0,0,1,1.16.61l1.44,4.5a.94.94,0,0,1-.61,1.17A.86.86,0,0,1,317,236.66Zm-2.87-9a.92.92,0,0,1-.88-.64l-1.44-4.51a.93.93,0,0,1,1.77-.56l1.43,4.51a.92.92,0,0,1-.6,1.16A.9.9,0,0,1,314.09,227.64Zm-2.87-9a.92.92,0,0,1-.88-.65l-1.44-4.5a.93.93,0,0,1,1.77-.57l1.43,4.51a.93.93,0,0,1-.6,1.17A1.35,1.35,0,0,1,311.22,218.63Zm-2.87-9a.92.92,0,0,1-.88-.64L306,204.46a.93.93,0,0,1,.6-1.17.94.94,0,0,1,1.17.61l1.43,4.5a.93.93,0,0,1-.6,1.17A.9.9,0,0,1,308.35,209.61Zm-2.87-9a.93.93,0,0,1-.89-.65l-1.43-4.51a.92.92,0,0,1,1.76-.56l1.44,4.51a.94.94,0,0,1-.88,1.21Zm-2.87-9a.93.93,0,0,1-.89-.65l-1.43-4.5a.93.93,0,1,1,1.76-.57l1.44,4.51a.92.92,0,0,1-.88,1.21Zm-2.88-9a.93.93,0,0,1-.88-.64l-1.43-4.51a.92.92,0,1,1,1.76-.56l1.44,4.51a.94.94,0,0,1-.6,1.16A1,1,0,0,1,299.73,182.56Z" style="fill:#fff"></path><path d="M319.1,243.38a.93.93,0,0,1-.88-.65l-.7-2.21a.92.92,0,0,1,1.76-.56l.71,2.21a.93.93,0,0,1-.61,1.16A.87.87,0,0,1,319.1,243.38Z" style="fill:#fff"></path><path d="M309.06,173.55a.93.93,0,0,1-.88-.65l-.7-2.21a.92.92,0,1,1,1.76-.56l.71,2.21a.93.93,0,0,1-.61,1.16A.87.87,0,0,1,309.06,173.55Z" style="fill:#fff"></path><path d="M329.16,236.66a.93.93,0,0,1-.88-.64l-1.44-4.51a.94.94,0,0,1,.61-1.17.93.93,0,0,1,1.16.61l1.44,4.5a.94.94,0,0,1-.6,1.17A1,1,0,0,1,329.16,236.66Zm-2.87-9a.93.93,0,0,1-.88-.65L324,222.49a.93.93,0,0,1,1.77-.56l1.44,4.51a.93.93,0,0,1-.61,1.16A.87.87,0,0,1,326.29,227.65Zm-2.87-9a.92.92,0,0,1-.88-.65l-1.44-4.5a.93.93,0,0,1,1.77-.57l1.43,4.51a.93.93,0,0,1-.6,1.17A1.35,1.35,0,0,1,323.42,218.63Zm-2.87-9a.92.92,0,0,1-.88-.64l-1.44-4.51a.93.93,0,0,1,.6-1.17.94.94,0,0,1,1.17.61l1.43,4.5a.93.93,0,0,1-.6,1.17A.9.9,0,0,1,320.55,209.61Zm-2.87-9a.93.93,0,0,1-.89-.65l-1.43-4.51a.92.92,0,0,1,1.76-.56l1.44,4.51a.94.94,0,0,1-.88,1.21Zm-2.87-9a.93.93,0,0,1-.89-.65l-1.43-4.5a.93.93,0,1,1,1.76-.57l1.44,4.51a.94.94,0,0,1-.6,1.17A1,1,0,0,1,314.81,191.58Zm-2.88-9a.93.93,0,0,1-.88-.64l-1.43-4.51a.92.92,0,0,1,1.76-.56l1.44,4.51a.94.94,0,0,1-.6,1.16A1,1,0,0,1,311.93,182.56Z" style="fill:#fff"></path><path d="M331.3,243.38a.94.94,0,0,1-.88-.65l-.7-2.21a.92.92,0,0,1,1.76-.56l.71,2.21a.93.93,0,0,1-.61,1.16A.87.87,0,0,1,331.3,243.38Z" style="fill:#fff"></path><path d="M321.26,173.55a.93.93,0,0,1-.88-.65l-.7-2.21a.92.92,0,1,1,1.76-.56l.71,2.21a.93.93,0,0,1-.61,1.16A.87.87,0,0,1,321.26,173.55Z" style="fill:#fff"></path><path d="M341.36,236.66a.93.93,0,0,1-.88-.64l-1.43-4.51a.92.92,0,1,1,1.76-.56l1.44,4.5a.94.94,0,0,1-.6,1.17A1,1,0,0,1,341.36,236.66Zm-2.87-9a.93.93,0,0,1-.88-.64l-1.44-4.51a.93.93,0,0,1,1.77-.56l1.44,4.51a.93.93,0,0,1-.61,1.16A.86.86,0,0,1,338.49,227.64Zm-2.87-9a.92.92,0,0,1-.88-.65l-1.44-4.5a.93.93,0,0,1,1.77-.57l1.43,4.51a.93.93,0,0,1-.6,1.17A1.35,1.35,0,0,1,335.62,218.63Zm-2.87-9a.92.92,0,0,1-.88-.64l-1.44-4.51a.93.93,0,1,1,1.77-.56l1.43,4.5a.93.93,0,0,1-.6,1.17A.9.9,0,0,1,332.75,209.61Zm-2.87-9A.92.92,0,0,1,329,200l-1.44-4.51a.91.91,0,0,1,.6-1.16.93.93,0,0,1,1.17.6l1.43,4.51a.94.94,0,0,1-.88,1.21Zm-2.87-9a.93.93,0,0,1-.89-.65l-1.43-4.5a.93.93,0,1,1,1.76-.57l1.44,4.51a.93.93,0,0,1-.6,1.17A1,1,0,0,1,327,191.58Zm-2.88-9a.93.93,0,0,1-.88-.64l-1.43-4.51a.92.92,0,0,1,1.76-.56l1.44,4.51a.94.94,0,0,1-.6,1.16A1,1,0,0,1,324.13,182.56Z" style="fill:#fff"></path><path d="M343.5,243.38a.94.94,0,0,1-.88-.65l-.7-2.21a.92.92,0,0,1,1.76-.56l.71,2.21a.93.93,0,0,1-.61,1.16A.87.87,0,0,1,343.5,243.38Z" style="fill:#fff"></path></g><path d="M262.49,166.09A8.18,8.18,0,0,1,273,158.26a18.89,18.89,0,0,1-.18-2.51,17.31,17.31,0,0,1,17.3-17.3,16.75,16.75,0,0,1,3.19.3,15.13,15.13,0,0,1,28.05,7.64h.25a13.94,13.94,0,1,1,0,27.88H270.43A8.17,8.17,0,0,1,262.49,166.09Z" style="fill:#263238"></path><path d="M262.49,166.09A8.18,8.18,0,0,1,273,158.26a18.89,18.89,0,0,1-.18-2.51,17.31,17.31,0,0,1,17.3-17.3,16.75,16.75,0,0,1,3.19.3,15.13,15.13,0,0,1,28.05,7.64h.25a13.94,13.94,0,1,1,0,27.88H270.43A8.17,8.17,0,0,1,262.49,166.09Z" style="fill:#fff;opacity:0.6000000000000001"></path><path d="M356.42,178.15a6.26,6.26,0,0,0-8.08-6,13.7,13.7,0,0,0,.14-1.93,13.3,13.3,0,0,0-15.76-13.08A11.63,11.63,0,0,0,311.16,163H311a10.72,10.72,0,1,0,0,21.44h39.36A6.27,6.27,0,0,0,356.42,178.15Z" style="fill:#263238"></path><path d="M356.42,178.15a6.26,6.26,0,0,0-8.08-6,13.7,13.7,0,0,0,.14-1.93,13.3,13.3,0,0,0-15.76-13.08A11.63,11.63,0,0,0,311.16,163H311a10.72,10.72,0,1,0,0,21.44h39.36A6.27,6.27,0,0,0,356.42,178.15Z" style="fill:#fff;opacity:0.7000000000000001"></path></g><g id="freepik--Landscape--inject-47"><path d="M392.56,383.19s-.12-13.12,1.7-14.75.65,7.26.65,7.26,8.1-17.62,11.38-17.18-6.47,15.37-6.47,15.37,17.67-20.55,21.38-17.77-18.25,20-18.25,20,11.64-7.13,13.49-4.28-13,8.22-13,8.22,6.21-.37,5.87,1.62S398.37,385.29,392.56,383.19Z" style="fill:#407BFF"></path><path d="M393.7,372.45s-4.5-9.82-3.68-11.66S393,366,393,366s.17-16,2.78-16.74S396,363,396,363s6.38-21.38,10.1-20.54-7,21.15-7,21.15,6.35-9.27,8.7-7.75-7,10.54-7,10.54,4.54-2.37,5-.76S398.78,372.08,393.7,372.45Z" style="fill:#407BFF"></path><path d="M393.7,372.45s-4.5-9.82-3.68-11.66S393,366,393,366s.17-16,2.78-16.74S396,363,396,363s6.38-21.38,10.1-20.54-7,21.15-7,21.15,6.35-9.27,8.7-7.75-7,10.54-7,10.54,4.54-2.37,5-.76S398.78,372.08,393.7,372.45Z" style="fill:#fff;isolation:isolate;opacity:0.2"></path><path d="M385,376.1s-12.13-8-12.5-10.68,7.07,3.89,7.07,3.89-11.17-18.34-8.74-21.09,10.11,15.46,10.11,15.46-7.95-28.94-3.09-30.63,7.06,29.12,7.06,29.12.65-15.1,4.41-15-.47,17-.47,17,3.5-5.93,5.13-4.39S390.51,372.06,385,376.1Z" style="fill:#407BFF"></path><path d="M385,376.1s-12.13-8-12.5-10.68,7.07,3.89,7.07,3.89-11.17-18.34-8.74-21.09,10.11,15.46,10.11,15.46-7.95-28.94-3.09-30.63,7.06,29.12,7.06,29.12.65-15.1,4.41-15-.47,17-.47,17,3.5-5.93,5.13-4.39S390.51,372.06,385,376.1Z" style="fill:#fff;isolation:isolate;opacity:0.4"></path><path d="M410,407.06l-323.79.75,1-33.41s-.83-37.75,0-39.21c1.53-2.57,1.78-6.57,2.4-9.44a38,38,0,0,1,1.15-5.43c.93-2.37,3.18-4.1,5-6a5.16,5.16,0,0,0,1.34-2A4.88,4.88,0,0,0,97,310c-.63-3.19-1.38-6.69.22-9.51a24.29,24.29,0,0,1,2-2.63c2.72-3.52,3.62-8,4.92-12.28,2-6.54,4.84-14.35,10.88-17.9a12.5,12.5,0,0,1,4.63-1.91,12.08,12.08,0,0,1,4,.42c2.16.47,4.21,1.37,6.37,1.49s4.7-.54,7-.54h14.18l17.06.14c3.92,0,9.06-.79,12.62.75a35.26,35.26,0,0,1,11.5,8.93c1.61,1.88,2.94,4,4.62,5.83,3.19,3.46,7.49,5.68,11.71,7.77,5.19,2.57,10.56,5.12,16.34,5.54,2.22.15,4.58,0,6.55,1.06a11.88,11.88,0,0,1,3,2.59c2.07,2.2,4.13,4.4,6.21,6.6a15.64,15.64,0,0,0,3.1,2.76,15.39,15.39,0,0,0,5.33,1.64L278.6,316a33.4,33.4,0,0,0,6.68.72c4-.11,7.91-1.68,11.86-1.17h.05a22.72,22.72,0,0,1,5.13,1.52c4,1.51,8,3,11.9,4.53a11.48,11.48,0,0,1,3.33,2.13c.83.7,1.63,1.45,2.66,2.18l.75.51s0,0,.07.05a71.49,71.49,0,0,0,10.1,5.42l2.92,1.34c6.14,2.79,12.4,5.33,18.72,7.69l4.76.24a14.45,14.45,0,0,0,4,2.91,23.89,23.89,0,0,1,2.6,1.37c1.71,1.16,1.55,1-.48-.51,1.09.22,2.85,2.66,3.65,3.44a52.17,52.17,0,0,0,9.77,7.82,34.43,34.43,0,0,0,9.26,3.6c.29.44.59.86.88,1.3,2.68,4,5.49,8.07,9.11,11.29a54.17,54.17,0,0,0,5.83,4.5l.11.08.42,1.05c1.62,4.1,3.4,8.1,4.69,12.32a19.11,19.11,0,0,0,2.56,5.23C410,402.2,410,407.06,410,407.06Z" style="fill:#263238"></path><path d="M410,407.06l-323.79.75,1-33.41s-.83-37.75,0-39.21c1.53-2.57,1.78-6.57,2.4-9.44a38,38,0,0,1,1.15-5.43,11.74,11.74,0,0,1,3-4c.66-.67,1.37-1.32,2-2a5.16,5.16,0,0,0,1.34-2A4.88,4.88,0,0,0,97,310c-.63-3.19-1.38-6.69.22-9.51a24.29,24.29,0,0,1,2-2.63,17,17,0,0,0,2-3.3,69.91,69.91,0,0,0,3-9c2-6.54,4.84-14.35,10.88-17.9a12.5,12.5,0,0,1,4.63-1.91,12.08,12.08,0,0,1,4,.42c2.16.47,4.21,1.37,6.37,1.49s4.7-.54,7-.54h14.18l17.06.14c3.92,0,9.06-.79,12.62.75a35.26,35.26,0,0,1,11.5,8.93c1.61,1.88,2.94,4,4.62,5.83,3.19,3.46,7.49,5.68,11.71,7.77,5.19,2.57,10.56,5.12,16.34,5.54,2.22.15,4.58,0,6.55,1.06a11.88,11.88,0,0,1,3,2.59c2.07,2.2,4.13,4.4,6.21,6.6a15.64,15.64,0,0,0,3.1,2.76,15.39,15.39,0,0,0,5.33,1.64L278.6,316a33.4,33.4,0,0,0,6.68.72c4-.11,7.91-1.68,11.86-1.17h.05a22.72,22.72,0,0,1,5.13,1.52c4,1.51,8,3,11.9,4.53a11.48,11.48,0,0,1,3.33,2.13c.83.7,1.63,1.45,2.66,2.18l.75.51s0,0,.07.05a71.49,71.49,0,0,0,10.1,5.42l2.92,1.34c6.14,2.79,12.4,5.33,18.72,7.69l4.76.24a14.45,14.45,0,0,0,4,2.91,23.89,23.89,0,0,1,2.6,1.37c1.71,1.16,1.55,1-.48-.51,1.09.22,2.85,2.66,3.65,3.44a52.17,52.17,0,0,0,9.77,7.82,34.43,34.43,0,0,0,9.26,3.6c.29.44.59.86.88,1.3,2.68,4,5.49,8.07,9.11,11.29a54.17,54.17,0,0,0,5.83,4.5l.11.08.42,1.05c1.62,4.1,3.4,8.1,4.69,12.32a19.11,19.11,0,0,0,2.56,5.23C410,402.2,410,407.06,410,407.06Z" style="fill:#fff;opacity:0.4"></path><path d="M334.05,333.23H253.16l-26.8,1,7.88-4.52,12.29-.73s8.42-2.57,10.93-2.63,5.56-1.78,13.26-2.37,12.83-1.42,12.83-1.42a95.48,95.48,0,0,1,13.64-7,22.72,22.72,0,0,1,5.13,1.52c4,1.51,8,3,11.9,4.53a11.48,11.48,0,0,1,3.33,2.13,15.68,15.68,0,0,0,2.66,2.18l.75.51s0,0,.07.05c.34.23.71.44,1.06.66a99,99,0,0,0,9,4.76Z" style="isolation:isolate;opacity:0.2"></path><path d="M230.47,322.58H122.9c-3.91,0-7.83.09-11.74,0-6-.13-11.87-3.11-17.43-6.25.66-.67,1.37-1.32,2-2a5.16,5.16,0,0,0,1.34-2A4.88,4.88,0,0,0,97,310c-.63-3.19-1.38-6.69.22-9.51a24.29,24.29,0,0,1,2-2.63,17,17,0,0,0,2-3.3c3.07,1.75,4.92,5.31,8.18,6.71,2.59,1.1,5.53.64,8.3.14,5.15-.94,13.28-1,17.72-3.76,3.15-1.93,5.9-6.42,8.15-9.36,0,0,25.1-1.44,30.37-2.73s22.72,1.5,22.72,4.08c0,2.22,9.87,4.83,12.56,5.5a26.32,26.32,0,0,0,5.5,7.75,37.74,37.74,0,0,0,4.79,4,34.26,34.26,0,0,0,8.19,13.27A31.27,31.27,0,0,0,230.47,322.58Z" style="isolation:isolate;opacity:0.2"></path><path d="M86.29,404.26l.88-29.86s-.83-37.75,0-39.21c8.27,3,13.83,17,13.83,17s4.37,6,6.38,6.43,10.17.32,10.85,2.6,3.35,4.59,2.93,6,.06,6.78,0,7.22a27.31,27.31,0,0,0,1.14,3.69s6.08,8.68,9.59,8.21,3.87,18,3.87,18Z" style="isolation:isolate;opacity:0.2"></path><path d="M309,333.2c-1.9-3.5-3.33-5.74-6.93-7.3-1.88-.82-3.8-.39-5.41-2-1-.95-.39-3.5-1.89-4.2-4.26-2-6.55,7.51-10.38,6-2.12-.83-5.91,4.44-7.88,7.48Z" style="fill:#407BFF"></path><path d="M309,333.2c-1.9-3.5-3.33-5.74-6.93-7.3-1.88-.82-3.8-.39-5.41-2-1-.95-.39-3.5-1.89-4.2-4.26-2-6.55,7.51-10.38,6-2.12-.83-5.91,4.44-7.88,7.48Z" style="isolation:isolate;opacity:0.2"></path><path d="M278.82,332.17s1.54-13-.09-14.84-1.44,7.14-1.44,7.14-6.15-18.39-9.46-18.31,4.78,16,4.78,16-15.34-22.34-19.33-20,16,21.83,16,21.83-10.81-8.35-12.95-5.72,12,9.58,12,9.58-6.13-1-6,1S272.81,333.64,278.82,332.17Z" style="fill:#407BFF"></path><path d="M278.82,332.17s1.54-13-.09-14.84-1.44,7.14-1.44,7.14-6.15-18.39-9.46-18.31,4.78,16,4.78,16-15.34-22.34-19.33-20,16,21.83,16,21.83-10.81-8.35-12.95-5.72,12,9.58,12,9.58-6.13-1-6,1S272.81,333.64,278.82,332.17Z" style="fill:#fff;isolation:isolate;opacity:0.2"></path><path d="M280.76,330.22s10.51-2.49,11.45-4.26-5.93.9-5.93.9,12.48-9.94,11.49-12.48-11,8.21-11,8.21,12.94-18.18,10-20.6-12.37,18.52-12.37,18.52,3.4-10.7.76-11.62-4,12-4,12-.92-5-2.45-4.38S277.93,326,280.76,330.22Z" style="fill:#407BFF"></path><path d="M280.76,330.22s10.51-2.49,11.45-4.26-5.93.9-5.93.9,12.48-9.94,11.49-12.48-11,8.21-11,8.21,12.94-18.18,10-20.6-12.37,18.52-12.37,18.52,3.4-10.7.76-11.62-4,12-4,12-.92-5-2.45-4.38S277.93,326,280.76,330.22Z" style="fill:#fff;isolation:isolate;opacity:0.2"></path><path d="M281.48,328.77s9.71-10.82,9.38-13.5-5.85,5.55-5.85,5.55,6.16-20.57,3.12-22.61-5.87,17.52-5.87,17.52.36-30-4.77-30.42.54,30,.54,30-4.45-14.45-8.07-13.43,4.76,16.33,4.76,16.33-4.89-4.86-6.07-3S275.11,326.26,281.48,328.77Z" style="fill:#407BFF"></path><path d="M281.48,328.77s9.71-10.82,9.38-13.5-5.85,5.55-5.85,5.55,6.16-20.57,3.12-22.61-5.87,17.52-5.87,17.52.36-30-4.77-30.42.54,30,.54,30-4.45-14.45-8.07-13.43,4.76,16.33,4.76,16.33-4.89-4.86-6.07-3S275.11,326.26,281.48,328.77Z" style="fill:#fff;isolation:isolate;opacity:0.4"></path><path d="M293.65,333.2c-1.3-2.31-2.48-3.86-5-5-1.5-.66-3-.32-4.31-1.58-.78-.76-.31-2.79-1.51-3.35-3.4-1.59-5.22,6-8.27,4.78-1.5-.59-4.07,2.68-5.72,5.12Z" style="fill:#407BFF"></path><path d="M364.92,392s-2-.1-2.22-5.62,3.35-7,6.09-6.31c0,0-.4-3.93,1.37-3.79s1.65,2.77,1.65,2.77.61-5.57,3-5.57,0,6.59,0,6.59,3.34-1.61,4.57,0-1.54,3.49-1.54,3.49a4.21,4.21,0,0,1,2.53,5.91s3,.47,3.87,2.49c0,0-.24-4.07.85-3.79S386,392,386,392s1.82-3.91,3.39-2.53-.73,4.7-.73,4.7,3-1.47,3.51.48-1.69,2.67-1.69,2.67,3.14-.73,3.14,2.88c0,0,6.05-.58,7.5,2.66H365Z" style="fill:#407BFF"></path><path d="M364.92,392s-2-.1-2.22-5.62,3.35-7,6.09-6.31c0,0-.4-3.93,1.37-3.79s1.65,2.77,1.65,2.77.61-5.57,3-5.57,0,6.59,0,6.59,3.34-1.61,4.57,0-1.54,3.49-1.54,3.49a4.21,4.21,0,0,1,2.53,5.91s3,.47,3.87,2.49c0,0-.24-4.07.85-3.79S386,392,386,392s1.82-3.91,3.39-2.53-.73,4.7-.73,4.7,3-1.47,3.51.48-1.69,2.67-1.69,2.67,3.14-.73,3.14,2.88c0,0,6.05-.58,7.5,2.66H365Z" style="fill:#fff;isolation:isolate;opacity:0.4"></path><path d="M346.51,335.44c-.87,14.26-5.57,67.06-5.57,67.06l34.1.31-9.61-95.39,15.3-4.66,3.22-9.27,12.92-7.32,6.31-9.69-2.44-.6-7,9-8.14,1.77,3.49-8.25h-3.88l-9.69,19.11-9.94,2-.91-34.77c-10,4.67-13.18-3.1-13.18-3.1s-2.58,54.44-4,58.55h0a21.13,21.13,0,0,1-4.08-2.95A47.6,47.6,0,0,1,334.72,307l-.65-1H331Z" style="fill:#407BFF"></path><g style="isolation:isolate;opacity:0.2"><path d="M346.51,335.44c-.87,14.26-5.57,67.06-5.57,67.06l34.1.31-9.61-95.39,15.3-4.66,3.22-9.27,12.92-7.32,6.31-9.69-2.44-.6-7,9-8.14,1.77,3.49-8.25h-3.88l-9.69,19.11-9.94,2-.91-34.77c-10,4.67-13.18-3.1-13.18-3.1s-2.58,54.44-4,58.55h0a21.13,21.13,0,0,1-4.08-2.95A47.6,47.6,0,0,1,334.72,307l-.65-1H331Z"></path></g><path d="M382.46,290.91l-4.16,8-13,3.29s0-2,.26-4.67l.05,2,9.94-2,9.69-19.11h3.88l-3.49,8.25,8.14-1.77,7-9,.34.09-5.37,8.13Z" style="isolation:isolate;opacity:0.1"></path><polygon points="363.74 355.64 366.81 402.74 361.4 402.69 361.4 365.52 363.74 355.64" style="fill:#407BFF;isolation:isolate"></polygon><path d="M346.51,335.44,331,305.93h3.1l.65,1a47.6,47.6,0,0,0,8.69,10.29,21.13,21.13,0,0,0,4.08,2.95c1.45-4.11,4-58.55,4-58.55a8.07,8.07,0,0,0,5.25,4.35q.21,26.37.44,52.76a20.66,20.66,0,0,0,2.15-7.51c.33,7.2.76,14.95.74,22.06l-6,22-1.19,47.27-12-.11S345.64,349.7,346.51,335.44Z" style="fill:#407BFF;isolation:isolate"></path><path d="M308.13,243.3a13,13,0,0,0-8.25,12.32,14.16,14.16,0,0,0,8.61,12.27,15.63,15.63,0,0,0,15-2C323.73,271,327.2,276.5,332,278a12.79,12.79,0,0,0,13.64-4.27c13,8.19,58.68,11.23,66.71-23.65,1.65-7.21-2.36-14.84-8.24-19.32s-13.36-6.31-20.7-7.2c-7-11.09-22.39-17.15-35.37-15.41a35.19,35.19,0,0,0-28.3,24.09C306.56,232.3,307.93,244.18,308.13,243.3Z" style="fill:#407BFF"></path><g style="isolation:isolate;opacity:0.4"><path d="M308.13,243.3a13,13,0,0,0-8.25,12.32,14.16,14.16,0,0,0,8.61,12.27,15.63,15.63,0,0,0,15-2C323.73,271,327.2,276.5,332,278a12.79,12.79,0,0,0,13.64-4.27c13,8.19,58.68,11.23,66.71-23.65,1.65-7.21-2.36-14.84-8.24-19.32s-13.36-6.31-20.7-7.2c-7-11.09-22.39-17.15-35.37-15.41a35.19,35.19,0,0,0-28.3,24.09C306.56,232.3,307.93,244.18,308.13,243.3Z" style="fill:#fff"></path></g><path d="M324.23,311.92a7,7,0,0,0,12.49-2c3.09,2.17,7.86,1.63,11-.49a9.37,9.37,0,0,0-4-17.06,11.16,11.16,0,0,0-5.26-8.53,12.15,12.15,0,0,0-10.42-1.1,12.76,12.76,0,0,0-11.09,3.56,10.07,10.07,0,0,0-3.25,7.82,7,7,0,0,0,5.23,6.24,8.62,8.62,0,0,0-.3,6.8C319.51,309.39,322,311.09,324.23,311.92Z" style="fill:#407BFF"></path><path d="M324.23,311.92a7,7,0,0,0,12.49-2c3.09,2.17,7.86,1.63,11-.49a9.37,9.37,0,0,0-4-17.06,11.16,11.16,0,0,0-5.26-8.53,12.15,12.15,0,0,0-10.42-1.1,12.76,12.76,0,0,0-11.09,3.56,10.07,10.07,0,0,0-3.25,7.82,7,7,0,0,0,5.23,6.24,8.62,8.62,0,0,0-.3,6.8C319.51,309.39,322,311.09,324.23,311.92Z" style="fill:#fff;isolation:isolate;opacity:0.2"></path><path d="M390,259.18a7,7,0,0,0-8.81,9.07c-3.77.11-7.27,3.41-8.5,7a9.38,9.38,0,0,0,13.48,11.22,11.2,11.2,0,0,0,9.33,3.67,12.21,12.21,0,0,0,9-5.38,12.73,12.73,0,0,0,6.73-9.51,10,10,0,0,0-2.1-8.2,7,7,0,0,0-7.93-1.85,8.57,8.57,0,0,0-3.84-5.62C395.25,258.37,392.23,258.51,390,259.18Z" style="fill:#407BFF"></path><path d="M390,259.18a7,7,0,0,0-8.81,9.07c-3.77.11-7.27,3.41-8.5,7a9.38,9.38,0,0,0,13.48,11.22,11.2,11.2,0,0,0,9.33,3.67,12.21,12.21,0,0,0,9-5.38,12.73,12.73,0,0,0,6.73-9.51,10,10,0,0,0-2.1-8.2,7,7,0,0,0-7.93-1.85,8.57,8.57,0,0,0-3.84-5.62C395.25,258.37,392.23,258.51,390,259.18Z" style="fill:#fff;isolation:isolate;opacity:0.2"></path><path d="M366.9,401.44s-12.52-8.12-10.15-9.49,10.73,6.73,10.73,6.73-9.23-13.5-7-16.21,8.43,11,8.43,11-4.18-15.68-1.23-17.4,4,15.71,4,15.71,1.16-18.88,6.56-18.64-2.47,18.64-2.47,18.64,7.62-10.92,10.32-7.82-8.6,11.81-8.6,11.81,8.46-4,9-1-9.32,6.08-9.32,6.08,3.18.91,3.91,2H364.25S364,402,366.9,401.44Z" style="fill:#407BFF"></path><path d="M366.9,401.44s-12.52-8.12-10.15-9.49,10.73,6.73,10.73,6.73-9.23-13.5-7-16.21,8.43,11,8.43,11-4.18-15.68-1.23-17.4,4,15.71,4,15.71,1.16-18.88,6.56-18.64-2.47,18.64-2.47,18.64,7.62-10.92,10.32-7.82-8.6,11.81-8.6,11.81,8.46-4,9-1-9.32,6.08-9.32,6.08,3.18.91,3.91,2H364.25S364,402,366.9,401.44Z" style="fill:#fff;isolation:isolate;opacity:0.6000000000000001"></path><path d="M302.72,402.08h33.95s-6.76-10.34-9.65-9c-3.75,1.71-6.53-7.66-10.68-5.44-1.46.78-.74,3.28-1.67,4.29-1.52,1.67-3.45,1.35-5.29,2.26C305.78,396,304.49,398.34,302.72,402.08Z" style="fill:#263238"></path><path d="M333,399.19s-2.23-12.93-.69-14.82,1.8,7.05,1.8,7.05,5.17-18.68,8.48-18.78-3.92,16.21-3.92,16.21,14.14-23.11,18.25-21-14.8,22.64-14.8,22.64,10.34-8.9,12.62-6.39-11.48,10.2-11.48,10.2,6.07-1.36,6.06.66S339,400.34,333,399.19Z" style="fill:#407BFF"></path><path d="M333,399.19s-2.23-12.93-.69-14.82,1.8,7.05,1.8,7.05,5.17-18.68,8.48-18.78-3.92,16.21-3.92,16.21,14.14-23.11,18.25-21-14.8,22.64-14.8,22.64,10.34-8.9,12.62-6.39-11.48,10.2-11.48,10.2,6.07-1.36,6.06.66S339,400.34,333,399.19Z" style="fill:#fff;isolation:isolate;opacity:0.2"></path><path d="M330.92,397.35s-10.63-1.93-11.66-3.65,6,.59,6,.59-13-9.28-12.13-11.86S324.52,390,324.52,390s-13.88-17.46-11.06-20,13.33,17.85,13.33,17.85-4-10.52-1.37-11.57S330.06,388,330.06,388s.66-5.08,2.22-4.5S333.52,393,330.92,397.35Z" style="fill:#407BFF"></path><path d="M330.92,397.35s-10.63-1.93-11.66-3.65,6,.59,6,.59-13-9.28-12.13-11.86S324.52,390,324.52,390s-13.88-17.46-11.06-20,13.33,17.85,13.33,17.85-4-10.52-1.37-11.57S330.06,388,330.06,388s.66-5.08,2.22-4.5S333.52,393,330.92,397.35Z" style="fill:#fff;isolation:isolate;opacity:0.2"></path><path d="M330.12,395.94S319.85,385.65,320,383s6.13,5.24,6.13,5.24-7.23-20.21-4.3-22.41S328.65,383,328.65,383s-1.94-29.94,3.16-30.62,1,29.94,1,29.94,3.69-14.65,7.35-13.83S336.31,385,336.31,385s4.63-5.11,5.91-3.28S336.35,393.1,330.12,395.94Z" style="fill:#407BFF"></path><path d="M330.12,395.94S319.85,385.65,320,383s6.13,5.24,6.13,5.24-7.23-20.21-4.3-22.41S328.65,383,328.65,383s-1.94-29.94,3.16-30.62,1,29.94,1,29.94,3.69-14.65,7.35-13.83S336.31,385,336.31,385s4.63-5.11,5.91-3.28S336.35,393.1,330.12,395.94Z" style="fill:#fff;isolation:isolate;opacity:0.4"></path><path d="M317.67,402.08h27.06s-5.39-8.24-7.68-7.2c-3,1.36-5.21-6.1-8.52-4.33-1.16.62-.59,2.62-1.33,3.42-1.21,1.33-2.75,1.07-4.22,1.8C320.11,397.2,319.09,399.1,317.67,402.08Z" style="fill:#263238"></path><path d="M317.67,402.08h27.06s-5.39-8.24-7.68-7.2c-3,1.36-5.21-6.1-8.52-4.33-1.16.62-.59,2.62-1.33,3.42-1.21,1.33-2.75,1.07-4.22,1.8C320.11,397.2,319.09,399.1,317.67,402.08Z" style="fill:#fff;opacity:0.2"></path><rect x="91.22" y="401.02" width="316.78" height="22.14" rx="6.83" style="fill:#407BFF"></rect><rect x="91.22" y="401.02" width="316.78" height="22.14" rx="6.83" style="fill:#fff;opacity:0.6000000000000001"></rect><path d="M138.2,322.67H126.35a11.92,11.92,0,0,0-11.92,11.91h0a11.92,11.92,0,0,0,11.92,11.91h85.56a9.13,9.13,0,0,1,9.13,9.13h0a9.12,9.12,0,0,1-9.13,9.12h-82.3a29.08,29.08,0,0,0-29.08,29.08v7.73h71.05V393.7A11.68,11.68,0,0,1,183.26,382h56.07a24.39,24.39,0,0,0,24.39-24.39h0a24.39,24.39,0,0,0-24.39-24.39H158.48a5.12,5.12,0,0,1-5.12-5.19h0a5.12,5.12,0,0,1,5.18-5.06l14.19.17-22.61-2.34Z" style="fill:#407BFF"></path><path d="M138.2,322.67H126.35a11.92,11.92,0,0,0-11.92,11.91h0a11.92,11.92,0,0,0,11.92,11.91h85.56a9.13,9.13,0,0,1,9.13,9.13h0a9.12,9.12,0,0,1-9.13,9.12h-82.3a29.08,29.08,0,0,0-29.08,29.08v7.73h71.05V393.7A11.68,11.68,0,0,1,183.26,382h56.07a24.39,24.39,0,0,0,24.39-24.39h0a24.39,24.39,0,0,0-24.39-24.39H158.48a5.12,5.12,0,0,1-5.12-5.19h0a5.12,5.12,0,0,1,5.18-5.06l14.19.17-22.61-2.34Z" style="fill:#fff;opacity:0.6000000000000001"></path><path d="M138.2,278.59V322.7h36.18V277.26a10.09,10.09,0,0,0-10.1-10.09H128.93A11.66,11.66,0,0,1,138.2,278.59Z" style="fill:#407BFF"></path><path d="M138.2,278.59V322.7h36.18V277.26a10.09,10.09,0,0,0-10.1-10.09H128.93A11.66,11.66,0,0,1,138.2,278.59Z" style="fill:#fff;opacity:0.6000000000000001"></path><path d="M96.13,402.45c-3.87-4.29-3.87-10.34,0-7.14s5.64,7.26,8.46,3.12,6.7-9.63,9.87-4.42,9.51,6.38,12.68,3.15,8.15-9.8,10.77-5.28,4,8.39,9.67,4.51S160.62,392,162,394s0,3.44,5.64,2.38,15.86,2.16,10.57,5.31Z" style="fill:#407BFF"></path><path d="M96.13,402.45c-3.87-4.29-3.87-10.34,0-7.14s5.64,7.26,8.46,3.12,6.7-9.63,9.87-4.42,9.51,6.38,12.68,3.15,8.15-9.8,10.77-5.28,4,8.39,9.67,4.51S160.62,392,162,394s0,3.44,5.64,2.38,15.86,2.16,10.57,5.31Z" style="fill:#fff;opacity:0.8"></path><path d="M174.8,323.15c2.22-3,2.22-7.17,0-4.94s-3.24,5-4.86,2.16-3.84-6.68-5.66-3.07-5.46,4.43-7.27,2.19-4.68-6.8-6.18-3.66-2.32,5.81-5.55,3.13-7.48-3.07-8.29-1.66,0,2.39-3.23,1.66-9.1,1.49-6.07,3.68Z" style="fill:#407BFF"></path><path d="M174.8,323.15c2.22-3,2.22-7.17,0-4.94s-3.24,5-4.86,2.16-3.84-6.68-5.66-3.07-5.46,4.43-7.27,2.19-4.68-6.8-6.18-3.66-2.32,5.81-5.55,3.13-7.48-3.07-8.29-1.66,0,2.39-3.23,1.66-9.1,1.49-6.07,3.68Z" style="fill:#fff;opacity:0.8"></path><path d="M139.67,273.7c2.86,0,3.27,14,3.67,19.92s.41-5.43,3-6.75,2.44,5.81,4.26,4.39.81-11.14,2.84-12,2.23,8.8,4.26,8.85,3.28-7,4-6.88,2.52,7.74,3.94,6.09,2-8.39,3.65-5.43,3.21-6,1.63-9.06c0,0-.21,5.9-2.23,3.53s-.21-4.19-3.45-4.52-2.84,4.75-5.28,4.52-2.65-3.36-5.58-3.36-2.94,3.92-5.57,3.36-3.45-2.37-5.48-3.36A3.33,3.33,0,0,0,139.67,273.7Z" style="fill:#fff;opacity:0.2"></path><path d="M109.67,379.67c-.13-2.93,9.65-11.49,14.3-11.73s-2,2.93,0,3.42,9.85-4.67,12.5-3.43,2,3.19,3.2,3.19,7-3.1,14.36-3.39c0,0-3.28,2.65-2.37,4.12s4.81,1.47,7.75-.49,8.31-4.64,10.26-2.44-4.4,5.86-4.4,7.82,6.85-5.62,13.44-5.62c0,0-7.82,3.91-9.53,8.55s-3.91,3-6.11,1.75-5.12,2-7.45,0-.61-8.35-5.5-4.93-9.17,7.65-10.45,4.93,1.4-6.39-4.22-5.17-8.06,7.82-10.75,2.93-5.87-2.44-8.8-.24A6.55,6.55,0,0,1,109.67,379.67Z" style="fill:#fff;opacity:0.2"></path><g style="opacity:0.2"><path d="M144.74,342.52a58.69,58.69,0,0,1-14.58-1.39.46.46,0,0,1,.23-.89c5.58,1.42,11.47,1.38,17.17,1.34h2.56a.46.46,0,0,1,0,.92l-2.55,0Z" style="fill:#fff"></path><path d="M127.11,340.12a.47.47,0,0,1-.17,0,19.55,19.55,0,0,1-3.35-1.72.47.47,0,0,1-.13-.64.46.46,0,0,1,.64-.14,18.67,18.67,0,0,0,3.18,1.64.46.46,0,0,1-.17.89Z" style="fill:#fff"></path><path d="M122.16,336.79a.45.45,0,0,1-.39-.23,4.1,4.1,0,0,1,.61-4.67.46.46,0,1,1,.73.57c-.46.6-1.43,2.15-.55,3.63a.46.46,0,0,1-.16.63A.4.4,0,0,1,122.16,336.79Z" style="fill:#fff"></path><path d="M213.81,369.9c-.48,0-.94,0-1.39,0a.46.46,0,0,1-.44-.49.47.47,0,0,1,.49-.44c5.12.26,12.24-.94,16.83-5.11a11.94,11.94,0,0,0,4.06-8.57.44.44,0,0,1,.48-.44.45.45,0,0,1,.44.48,12.84,12.84,0,0,1-4.35,9.22C225.53,368.51,219,369.9,213.81,369.9Z" style="fill:#fff"></path><path d="M233.68,353.32a.47.47,0,0,1-.46-.39,12.08,12.08,0,0,0-3.19-6.28.46.46,0,0,1,0-.66.48.48,0,0,1,.66,0,13.1,13.1,0,0,1,3.43,6.77.46.46,0,0,1-.38.53Z" style="fill:#fff"></path><path d="M228.12,344.85a.43.43,0,0,1-.26-.09,11.63,11.63,0,0,0-6.59-2.23.47.47,0,0,1,0-.93h0a12.7,12.7,0,0,1,7.12,2.4.47.47,0,0,1,.11.65A.46.46,0,0,1,228.12,344.85Z" style="fill:#fff"></path><path d="M239.82,367.18a.44.44,0,0,1-.38-.2.47.47,0,0,1,.12-.65,14.69,14.69,0,0,0,5.27-6,.47.47,0,0,1,.85.39,15.76,15.76,0,0,1-5.6,6.4A.5.5,0,0,1,239.82,367.18Z" style="fill:#fff"></path><path d="M246.06,358.58H246a.48.48,0,0,1-.35-.56,13.61,13.61,0,0,0-3.18-11.53.46.46,0,0,1,.07-.65.45.45,0,0,1,.65.06,14.59,14.59,0,0,1,3.37,12.33A.47.47,0,0,1,246.06,358.58Z" style="fill:#fff"></path><path d="M235.66,377.2a.45.45,0,0,1-.45-.38.46.46,0,0,1,.37-.54,24.58,24.58,0,0,0,5.5-1.67.46.46,0,1,1,.38.84,25.42,25.42,0,0,1-5.71,1.74Z" style="fill:#fff"></path><path d="M243.42,374.4a.47.47,0,0,1-.4-.24.46.46,0,0,1,.17-.63,21.59,21.59,0,0,0,9.87-12.47.46.46,0,1,1,.89.24,22.54,22.54,0,0,1-10.29,13A.44.44,0,0,1,243.42,374.4Z" style="fill:#fff"></path><path d="M155.75,339.07c-2.21,0-4.22-.06-6.12-.19a.47.47,0,0,1,.06-.93c2.55.18,5.32.23,8.48.17h0a.47.47,0,0,1,.47.45.48.48,0,0,1-.46.48Z" style="fill:#fff"></path><path d="M147.1,338.66c-2.18-.24-8.73-1-10.66-3.81a3.28,3.28,0,0,1-.42-2.8.47.47,0,0,1,.9.25,2.29,2.29,0,0,0,.29,2c1.12,1.66,4.47,2.8,10,3.4Z" style="fill:#fff"></path><path d="M169.67,335.85h0c-1.26,0-2.51-.06-3.76-.11a.46.46,0,1,1,0-.92l3.75.11a.46.46,0,0,1,0,.92Z" style="fill:#fff"></path><path d="M163.41,335.63h0c-2.29-.13-4.35-.31-6.27-.54a.47.47,0,0,1-.41-.52.46.46,0,0,1,.52-.4c1.91.23,3.94.41,6.21.53a.47.47,0,0,1,.44.49A.46.46,0,0,1,163.41,335.63Z" style="fill:#fff"></path></g></g><g id="freepik--Sun--inject-47"><polygon points="151.2 141.25 154.74 139.08 156.84 142.65 160.8 141.43 161.95 145.41 166.09 145.21 166.22 149.36 170.28 150.19 169.36 154.24 173.09 156.05 171.2 159.75 174.36 162.43 171.61 165.54 174 168.93 170.57 171.25 172.04 175.13 168.13 176.52 168.6 180.65 164.47 181.03 163.89 185.14 159.79 184.48 158.22 188.31 154.41 186.66 151.93 189.98 148.66 187.43 145.42 190.03 142.89 186.75 139.11 188.46 137.47 184.65 133.39 185.37 132.75 181.27 128.61 180.96 129.01 176.82 125.08 175.49 126.5 171.59 123.03 169.32 125.37 165.89 122.57 162.83 125.69 160.09 123.74 156.43 127.44 154.56 126.46 150.53 130.51 149.63 130.57 145.48 134.72 145.62 135.8 141.62 139.78 142.78 141.83 139.18 145.4 141.3 148.28 138.31 151.2 141.25" style="fill:#407BFF"></polygon><polygon points="151.2 141.25 154.74 139.08 156.84 142.65 160.8 141.43 161.95 145.41 166.09 145.21 166.22 149.36 170.28 150.19 169.36 154.24 173.09 156.05 171.2 159.75 174.36 162.43 171.61 165.54 174 168.93 170.57 171.25 172.04 175.13 168.13 176.52 168.6 180.65 164.47 181.03 163.89 185.14 159.79 184.48 158.22 188.31 154.41 186.66 151.93 189.98 148.66 187.43 145.42 190.03 142.89 186.75 139.11 188.46 137.47 184.65 133.39 185.37 132.75 181.27 128.61 180.96 129.01 176.82 125.08 175.49 126.5 171.59 123.03 169.32 125.37 165.89 122.57 162.83 125.69 160.09 123.74 156.43 127.44 154.56 126.46 150.53 130.51 149.63 130.57 145.48 134.72 145.62 135.8 141.62 139.78 142.78 141.83 139.18 145.4 141.3 148.28 138.31 151.2 141.25" style="fill:#fff;opacity:0.6000000000000001"></polygon><polygon points="148.47 141.33 151.66 138.8 154.12 142.04 157.84 140.39 159.42 144.14 163.44 143.46 164.03 147.49 168.09 147.83 167.67 151.88 171.51 153.22 170.09 157.04 173.49 159.3 171.16 162.64 173.89 165.67 170.81 168.33 172.69 171.94 169.04 173.75 169.97 177.72 165.99 178.57 165.9 182.64 161.83 182.47 160.74 186.39 156.84 185.22 154.8 188.74 151.31 186.63 148.47 189.54 145.61 186.63 142.13 188.74 140.09 185.22 136.19 186.39 135.1 182.47 131.03 182.64 130.94 178.57 126.96 177.72 127.89 173.75 124.24 171.94 126.12 168.33 123.04 165.67 125.77 162.64 123.44 159.3 126.83 157.04 125.42 153.22 129.26 151.88 128.84 147.83 132.9 147.49 133.49 143.46 137.51 144.14 139.09 140.39 142.81 142.04 145.27 138.8 148.47 141.33" style="fill:#407BFF"></polygon><polygon points="148.47 141.33 151.66 138.8 154.12 142.04 157.84 140.39 159.42 144.14 163.44 143.46 164.03 147.49 168.09 147.83 167.67 151.88 171.51 153.22 170.09 157.04 173.49 159.3 171.16 162.64 173.89 165.67 170.81 168.33 172.69 171.94 169.04 173.75 169.97 177.72 165.99 178.57 165.9 182.64 161.83 182.47 160.74 186.39 156.84 185.22 154.8 188.74 151.31 186.63 148.47 189.54 145.61 186.63 142.13 188.74 140.09 185.22 136.19 186.39 135.1 182.47 131.03 182.64 130.94 178.57 126.96 177.72 127.89 173.75 124.24 171.94 126.12 168.33 123.04 165.67 125.77 162.64 123.44 159.3 126.83 157.04 125.42 153.22 129.26 151.88 128.84 147.83 132.9 147.49 133.49 143.46 137.51 144.14 139.09 140.39 142.81 142.04 145.27 138.8 148.47 141.33" style="fill:#fff;opacity:0.7000000000000001"></polygon><circle cx="148.46" cy="164.17" r="21.96" transform="translate(-37.37 284.42) rotate(-80.78)" style="fill:#fff;opacity:0.4"></circle></g><g id="freepik--arrows-2--inject-47"><path d="M154.7,263.24a9.25,9.25,0,0,1,0-13.05,7.38,7.38,0,0,0,0-10.43,9.22,9.22,0,0,1,0-13,7.38,7.38,0,0,0,0-10.43,9.25,9.25,0,0,1,0-13,7.35,7.35,0,0,0,2.16-5.07l1.85,0a9.15,9.15,0,0,1-2.7,6.35A7.39,7.39,0,0,0,156,215,9.21,9.21,0,0,1,156,228a7.36,7.36,0,0,0,0,10.42,9.21,9.21,0,0,1,0,13.05,7.39,7.39,0,0,0,0,10.43Z" style="fill:#407BFF"></path><polygon points="157.79 193.98 155.19 198.19 160.39 198.19 157.79 193.98" style="fill:#407BFF"></polygon><path d="M145.43,263.24a9.23,9.23,0,0,1,0-13.05,7.38,7.38,0,0,0,0-10.43,9.22,9.22,0,0,1,0-13,7.38,7.38,0,0,0,0-10.43,9.23,9.23,0,0,1,0-13,7.35,7.35,0,0,0,2.16-5.07l1.85,0a9.15,9.15,0,0,1-2.7,6.35,7.39,7.39,0,0,0,0,10.43,9.23,9.23,0,0,1,0,13.05,7.38,7.38,0,0,0,0,10.42,9.23,9.23,0,0,1,0,13.05,7.39,7.39,0,0,0,0,10.43Z" style="fill:#407BFF"></path><polygon points="148.52 193.98 145.92 198.19 151.12 198.19 148.52 193.98" style="fill:#407BFF"></polygon><path d="M136.16,263.24a9.23,9.23,0,0,1,0-13.05,7.39,7.39,0,0,0,0-10.43,9.22,9.22,0,0,1,0-13,7.39,7.39,0,0,0,0-10.43,9.23,9.23,0,0,1,0-13,7.34,7.34,0,0,0,2.15-5.07l1.86,0a9.23,9.23,0,0,1-2.7,6.35,7.38,7.38,0,0,0,0,10.43,9.25,9.25,0,0,1,0,13.05,7.36,7.36,0,0,0,0,10.42,9.23,9.23,0,0,1,0,13.05,7.38,7.38,0,0,0,0,10.43Z" style="fill:#407BFF"></path><polygon points="139.24 193.98 136.64 198.19 141.84 198.19 139.24 193.98" style="fill:#407BFF"></polygon></g><g id="freepik--arrows-1--inject-47"><path d="M345.9,91.53l-10,10h19.35a55.29,55.29,0,0,1,55.23,55.23V340.84l10,10,10-10V156.76a75.32,75.32,0,0,0-75.23-75.23H335.9Z" style="fill:#407BFF"></path><path d="M79.52,166.1l10,10V156.76a55.29,55.29,0,0,1,55.23-55.23H328.83l10-10-10-10H144.75a75.32,75.32,0,0,0-75.23,75.23V176.1Z" style="fill:#407BFF"></path><path d="M420.48,357.91l-10-10v19.35a55.3,55.3,0,0,1-55.23,55.23H171.17l-10,10,10,10H355.25a75.32,75.32,0,0,0,75.23-75.23V347.91Z" style="fill:#407BFF"></path><path d="M154.1,432.49l10-10H144.75a55.3,55.3,0,0,1-55.23-55.23V183.18l-10-10-10,10V367.26a75.32,75.32,0,0,0,75.23,75.23H164.1Z" style="fill:#407BFF"></path></g><g id="freepik--Texts--inject-47"><path d="M198.88,91.53a4.63,4.63,0,0,1,8-2.86l-1.24,1.16a2.71,2.71,0,0,0-2.11-1,2.69,2.69,0,0,0,0,5.38,2.69,2.69,0,0,0,2.11-1l1.24,1.15a4.61,4.61,0,0,1-8-2.84Z" style="fill:#407BFF"></path><path d="M207.5,91.53a4.6,4.6,0,1,1,4.59,4.34A4.34,4.34,0,0,1,207.5,91.53Zm7.22,0a2.63,2.63,0,1,0-2.63,2.69A2.56,2.56,0,0,0,214.72,91.53Z" style="fill:#407BFF"></path><path d="M225.85,87.33v8.4h-1.59l-4.19-5.1v5.1h-1.92v-8.4h1.61l4.18,5.1v-5.1Z" style="fill:#407BFF"></path><path d="M227.85,87.33h3.81c2.75,0,4.63,1.66,4.63,4.2s-1.88,4.2-4.63,4.2h-3.81Zm3.72,6.8a2.6,2.6,0,1,0,0-5.2h-1.78v5.2Z" style="fill:#407BFF"></path><path d="M244.26,94.17v1.56h-6.5v-8.4h6.35v1.56h-4.42v1.82h3.9v1.52h-3.9v1.94Z" style="fill:#407BFF"></path><path d="M253.51,87.33v8.4h-1.59l-4.19-5.1v5.1h-1.92v-8.4h1.61l4.17,5.1v-5.1Z" style="fill:#407BFF"></path><path d="M254.85,94.9l.66-1.46a5,5,0,0,0,2.77.87c1.15,0,1.62-.38,1.62-.9,0-1.57-4.88-.49-4.88-3.61,0-1.42,1.15-2.61,3.54-2.61a5.65,5.65,0,0,1,2.91.74l-.6,1.48a4.67,4.67,0,0,0-2.33-.66c-1.15,0-1.59.43-1.59,1,0,1.54,4.88.48,4.88,3.56,0,1.4-1.16,2.6-3.56,2.6A6,6,0,0,1,254.85,94.9Z" style="fill:#407BFF"></path><path d="M268.69,93.93H264.8l-.75,1.8h-2l3.74-8.4h1.92l3.76,8.4h-2Zm-.61-1.48-1.33-3.21-1.33,3.21Z" style="fill:#407BFF"></path><path d="M273.68,88.91H271V87.33h7.32v1.58h-2.69v6.82h-1.94Z" style="fill:#407BFF"></path><path d="M279.35,87.33h1.95v8.4h-1.95Z" style="fill:#407BFF"></path><path d="M282.76,91.53a4.6,4.6,0,1,1,4.59,4.34A4.34,4.34,0,0,1,282.76,91.53Zm7.22,0a2.63,2.63,0,1,0-2.63,2.69A2.56,2.56,0,0,0,290,91.53Z" style="fill:#407BFF"></path><path d="M301.12,87.33v8.4h-1.6l-4.18-5.1v5.1h-1.92v-8.4H295l4.18,5.1v-5.1Z" style="fill:#407BFF"></path><path d="M210.16,432.49a4.62,4.62,0,0,1,8-2.86l-1.25,1.15a2.71,2.71,0,0,0-2.11-1,2.69,2.69,0,1,0,0,5.37,2.66,2.66,0,0,0,2.11-1l1.25,1.15a4.61,4.61,0,0,1-8-2.84Z" style="fill:#407BFF"></path><path d="M218.77,432.49a4.6,4.6,0,1,1,4.6,4.34A4.35,4.35,0,0,1,218.77,432.49Zm7.22,0a2.63,2.63,0,1,0-2.62,2.68A2.56,2.56,0,0,0,226,432.49Z" style="fill:#407BFF"></path><path d="M229.43,428.29h1.94v6.81h4.21v1.58h-6.15Z" style="fill:#407BFF"></path><path d="M236.68,428.29h1.94v6.81h4.21v1.58h-6.15Z" style="fill:#407BFF"></path><path d="M250.42,435.12v1.56h-6.5v-8.39h6.35v1.56h-4.42v1.82h3.9v1.51h-3.9v1.94Z" style="fill:#407BFF"></path><path d="M251.42,432.49a4.63,4.63,0,0,1,8-2.86l-1.25,1.15a2.73,2.73,0,0,0-2.11-1,2.69,2.69,0,1,0,0,5.37,2.68,2.68,0,0,0,2.11-1l1.25,1.15a4.62,4.62,0,0,1-8-2.84Z" style="fill:#407BFF"></path><path d="M262.4,429.87h-2.68v-1.58H267v1.58h-2.68v6.81h-2Z" style="fill:#407BFF"></path><path d="M268.08,428.29H270v8.39h-1.94Z" style="fill:#407BFF"></path><path d="M271.49,432.49a4.6,4.6,0,1,1,4.59,4.34A4.35,4.35,0,0,1,271.49,432.49Zm7.22,0a2.63,2.63,0,1,0-2.63,2.68A2.56,2.56,0,0,0,278.71,432.49Z" style="fill:#407BFF"></path><path d="M289.84,428.29v8.39h-1.59l-4.19-5.09v5.09h-1.92v-8.39h1.61l4.17,5.1v-5.1Z" style="fill:#407BFF"></path><path d="M82.16,301.16h1.56v6.5h-8.4v-6.35h1.56v4.42h1.83v-3.9h1.51v3.9h1.94Z" style="fill:#407BFF"></path><path d="M75.32,291.66l8.4,3.63v1.92l-8.4,3.62v-2.1l6-2.55-6-2.59Z" style="fill:#407BFF"></path><path d="M81.92,285.7v3.9l1.8.74v2l-8.4-3.74v-1.92l8.4-3.75v2Zm-1.47.61-3.22,1.34L80.45,289Z" style="fill:#407BFF"></path><path d="M78.37,274.76c1.87,0,3,1.4,3,3.65v1.69h2.32V282h-8.4v-3.63C75.32,276.16,76.49,274.76,78.37,274.76Zm0,2c-.92,0-1.46.6-1.46,1.78v1.59h2.91v-1.59C79.82,277.33,79.28,276.73,78.37,276.73Z" style="fill:#407BFF"></path><path d="M79.52,273.78a4.6,4.6,0,1,1,4.34-4.59A4.34,4.34,0,0,1,79.52,273.78Zm0-7.22a2.63,2.63,0,1,0,2.69,2.63A2.56,2.56,0,0,0,79.52,266.56Z" style="fill:#407BFF"></path><path d="M83.72,257.78l-2.34,1.62v1.78h2.34v1.95h-8.4v-3.64c0-2.24,1.17-3.64,3.05-3.64A2.73,2.73,0,0,1,81,257.57l2.7-1.88Zm-6.81,1.82v1.58h2.92V259.6c0-1.19-.55-1.79-1.46-1.79S76.91,258.41,76.91,259.6Z" style="fill:#407BFF"></path><path d="M81.92,248.78v3.9l1.8.74v2l-8.4-3.74v-1.92l8.4-3.75v2Zm-1.47.61-3.22,1.33,3.22,1.33Z" style="fill:#407BFF"></path><path d="M76.91,243.8v2.68H75.32v-7.31h1.59v2.68h6.81v2Z" style="fill:#407BFF"></path><path d="M75.32,238.12v-1.94h8.4v1.94Z" style="fill:#407BFF"></path><path d="M79.52,234.71a4.6,4.6,0,1,1,4.34-4.59A4.34,4.34,0,0,1,79.52,234.71Zm0-7.22a2.63,2.63,0,1,0,2.69,2.63A2.56,2.56,0,0,0,79.52,227.49Z" style="fill:#407BFF"></path><path d="M75.32,216.36h8.4V218l-5.1,4.19h5.1v1.92h-8.4v-1.61l5.1-4.18h-5.1Z" style="fill:#407BFF"></path><path d="M421.63,221.39c-1.87,0-3-1.4-3-3.64v-1.69h-2.32v-1.95h8.4v3.64C424.68,220,423.51,221.39,421.63,221.39Zm0-2c.92,0,1.46-.6,1.46-1.79v-1.58h-2.91v1.58C420.18,218.83,420.72,219.43,421.63,219.43Z" style="fill:#407BFF"></path><path d="M416.28,228.13l2.34-1.62v-1.79h-2.34v-1.94h8.4v3.63c0,2.24-1.17,3.65-3.05,3.65a2.73,2.73,0,0,1-2.65-1.73l-2.7,1.88Zm6.81-1.83v-1.58h-2.92v1.58c0,1.19.55,1.79,1.46,1.79S423.09,227.49,423.09,226.3Z" style="fill:#407BFF"></path><path d="M417.84,238.1h-1.56v-6.5h8.4v6.34h-1.56v-4.41h-1.83v3.89h-1.51v-3.89h-1.94Z" style="fill:#407BFF"></path><path d="M420.48,239.1a4.62,4.62,0,0,1,2.85,8l-1.15-1.25a2.68,2.68,0,0,0,1-2.11,2.69,2.69,0,1,0-5.37,0,2.67,2.67,0,0,0,1,2.11l-1.15,1.25a4.61,4.61,0,0,1,2.84-8Z" style="fill:#407BFF"></path><path d="M424.68,248.42v1.94h-8.4v-1.94Z" style="fill:#407BFF"></path><path d="M421.63,259.64c-1.87,0-3-1.41-3-3.65V254.3h-2.32v-1.94h8.4V256C424.68,258.23,423.51,259.64,421.63,259.64Zm0-2c.92,0,1.46-.6,1.46-1.79V254.3h-2.91v1.58C420.18,257.07,420.72,257.67,421.63,257.67Z" style="fill:#407BFF"></path><path d="M424.68,261V263h-8.4V261Z" style="fill:#407BFF"></path><path d="M423.09,266.69V264h1.59v7.31h-1.59v-2.68h-6.81v-1.95Z" style="fill:#407BFF"></path><path d="M418.08,277.48v-3.9l-1.8-.74v-2l8.4,3.74v1.92l-8.4,3.75v-2Zm1.47-.61,3.22-1.33-3.22-1.33Z" style="fill:#407BFF"></path><path d="M423.09,282.46v-2.68h1.59v7.31h-1.59V284.4h-6.81v-1.94Z" style="fill:#407BFF"></path><path d="M424.68,288.14v1.94h-8.4v-1.94Z" style="fill:#407BFF"></path><path d="M420.48,291.55a4.6,4.6,0,1,1-4.34,4.59A4.34,4.34,0,0,1,420.48,291.55Zm0,7.22a2.63,2.63,0,1,0-2.69-2.63A2.56,2.56,0,0,0,420.48,298.77Z" style="fill:#407BFF"></path><path d="M424.68,309.9h-8.4v-1.59l5.1-4.19h-5.1V302.2h8.4v1.61l-5.1,4.17h5.1Z" style="fill:#407BFF"></path><g style="opacity:0.8"><path d="M198.88,91.53a4.63,4.63,0,0,1,8-2.86l-1.24,1.16a2.71,2.71,0,0,0-2.11-1,2.69,2.69,0,0,0,0,5.38,2.69,2.69,0,0,0,2.11-1l1.24,1.15a4.61,4.61,0,0,1-8-2.84Z" style="fill:#fff"></path><path d="M207.5,91.53a4.6,4.6,0,1,1,4.59,4.34A4.34,4.34,0,0,1,207.5,91.53Zm7.22,0a2.63,2.63,0,1,0-2.63,2.69A2.56,2.56,0,0,0,214.72,91.53Z" style="fill:#fff"></path><path d="M225.85,87.33v8.4h-1.59l-4.19-5.1v5.1h-1.92v-8.4h1.61l4.18,5.1v-5.1Z" style="fill:#fff"></path><path d="M227.85,87.33h3.81c2.75,0,4.63,1.66,4.63,4.2s-1.88,4.2-4.63,4.2h-3.81Zm3.72,6.8a2.6,2.6,0,1,0,0-5.2h-1.78v5.2Z" style="fill:#fff"></path><path d="M244.26,94.17v1.56h-6.5v-8.4h6.35v1.56h-4.42v1.82h3.9v1.52h-3.9v1.94Z" style="fill:#fff"></path><path d="M253.51,87.33v8.4h-1.59l-4.19-5.1v5.1h-1.92v-8.4h1.61l4.17,5.1v-5.1Z" style="fill:#fff"></path><path d="M254.85,94.9l.66-1.46a5,5,0,0,0,2.77.87c1.15,0,1.62-.38,1.62-.9,0-1.57-4.88-.49-4.88-3.61,0-1.42,1.15-2.61,3.54-2.61a5.65,5.65,0,0,1,2.91.74l-.6,1.48a4.67,4.67,0,0,0-2.33-.66c-1.15,0-1.59.43-1.59,1,0,1.54,4.88.48,4.88,3.56,0,1.4-1.16,2.6-3.56,2.6A6,6,0,0,1,254.85,94.9Z" style="fill:#fff"></path><path d="M268.69,93.93H264.8l-.75,1.8h-2l3.74-8.4h1.92l3.76,8.4h-2Zm-.61-1.48-1.33-3.21-1.33,3.21Z" style="fill:#fff"></path><path d="M273.68,88.91H271V87.33h7.32v1.58h-2.69v6.82h-1.94Z" style="fill:#fff"></path><path d="M279.35,87.33h1.95v8.4h-1.95Z" style="fill:#fff"></path><path d="M282.76,91.53a4.6,4.6,0,1,1,4.59,4.34A4.34,4.34,0,0,1,282.76,91.53Zm7.22,0a2.63,2.63,0,1,0-2.63,2.69A2.56,2.56,0,0,0,290,91.53Z" style="fill:#fff"></path><path d="M301.12,87.33v8.4h-1.6l-4.18-5.1v5.1h-1.92v-8.4H295l4.18,5.1v-5.1Z" style="fill:#fff"></path><path d="M210.16,432.49a4.62,4.62,0,0,1,8-2.86l-1.25,1.15a2.71,2.71,0,0,0-2.11-1,2.69,2.69,0,1,0,0,5.37,2.66,2.66,0,0,0,2.11-1l1.25,1.15a4.61,4.61,0,0,1-8-2.84Z" style="fill:#fff"></path><path d="M218.77,432.49a4.6,4.6,0,1,1,4.6,4.34A4.35,4.35,0,0,1,218.77,432.49Zm7.22,0a2.63,2.63,0,1,0-2.62,2.68A2.56,2.56,0,0,0,226,432.49Z" style="fill:#fff"></path><path d="M229.43,428.29h1.94v6.81h4.21v1.58h-6.15Z" style="fill:#fff"></path><path d="M236.68,428.29h1.94v6.81h4.21v1.58h-6.15Z" style="fill:#fff"></path><path d="M250.42,435.12v1.56h-6.5v-8.39h6.35v1.56h-4.42v1.82h3.9v1.51h-3.9v1.94Z" style="fill:#fff"></path><path d="M251.42,432.49a4.63,4.63,0,0,1,8-2.86l-1.25,1.15a2.73,2.73,0,0,0-2.11-1,2.69,2.69,0,1,0,0,5.37,2.68,2.68,0,0,0,2.11-1l1.25,1.15a4.62,4.62,0,0,1-8-2.84Z" style="fill:#fff"></path><path d="M262.4,429.87h-2.68v-1.58H267v1.58h-2.68v6.81h-2Z" style="fill:#fff"></path><path d="M268.08,428.29H270v8.39h-1.94Z" style="fill:#fff"></path><path d="M271.49,432.49a4.6,4.6,0,1,1,4.59,4.34A4.35,4.35,0,0,1,271.49,432.49Zm7.22,0a2.63,2.63,0,1,0-2.63,2.68A2.56,2.56,0,0,0,278.71,432.49Z" style="fill:#fff"></path><path d="M289.84,428.29v8.39h-1.59l-4.19-5.09v5.09h-1.92v-8.39h1.61l4.17,5.1v-5.1Z" style="fill:#fff"></path></g><g style="opacity:0.8"><path d="M82.16,301.16h1.56v6.5h-8.4v-6.35h1.56v4.42h1.83v-3.9h1.51v3.9h1.94Z" style="fill:#fff"></path><path d="M75.32,291.66l8.4,3.63v1.92l-8.4,3.62v-2.1l6-2.55-6-2.59Z" style="fill:#fff"></path><path d="M81.92,285.7v3.9l1.8.74v2l-8.4-3.74v-1.92l8.4-3.75v2Zm-1.47.61-3.22,1.34L80.45,289Z" style="fill:#fff"></path><path d="M78.37,274.76c1.87,0,3,1.4,3,3.65v1.69h2.32V282h-8.4v-3.63C75.32,276.16,76.49,274.76,78.37,274.76Zm0,2c-.92,0-1.46.6-1.46,1.78v1.59h2.91v-1.59C79.82,277.33,79.28,276.73,78.37,276.73Z" style="fill:#fff"></path><path d="M79.52,273.78a4.6,4.6,0,1,1,4.34-4.59A4.34,4.34,0,0,1,79.52,273.78Zm0-7.22a2.63,2.63,0,1,0,2.69,2.63A2.56,2.56,0,0,0,79.52,266.56Z" style="fill:#fff"></path><path d="M83.72,257.78l-2.34,1.62v1.78h2.34v1.95h-8.4v-3.64c0-2.24,1.17-3.64,3.05-3.64A2.73,2.73,0,0,1,81,257.57l2.7-1.88Zm-6.81,1.82v1.58h2.92V259.6c0-1.19-.55-1.79-1.46-1.79S76.91,258.41,76.91,259.6Z" style="fill:#fff"></path><path d="M81.92,248.78v3.9l1.8.74v2l-8.4-3.74v-1.92l8.4-3.75v2Zm-1.47.61-3.22,1.33,3.22,1.33Z" style="fill:#fff"></path><path d="M76.91,243.8v2.68H75.32v-7.31h1.59v2.68h6.81v2Z" style="fill:#fff"></path><path d="M75.32,238.12v-1.94h8.4v1.94Z" style="fill:#fff"></path><path d="M79.52,234.71a4.6,4.6,0,1,1,4.34-4.59A4.34,4.34,0,0,1,79.52,234.71Zm0-7.22a2.63,2.63,0,1,0,2.69,2.63A2.56,2.56,0,0,0,79.52,227.49Z" style="fill:#fff"></path><path d="M75.32,216.36h8.4V218l-5.1,4.19h5.1v1.92h-8.4v-1.61l5.1-4.18h-5.1Z" style="fill:#fff"></path><path d="M421.63,221.39c-1.87,0-3-1.4-3-3.64v-1.69h-2.32v-1.95h8.4v3.64C424.68,220,423.51,221.39,421.63,221.39Zm0-2c.92,0,1.46-.6,1.46-1.79v-1.58h-2.91v1.58C420.18,218.83,420.72,219.43,421.63,219.43Z" style="fill:#fff"></path><path d="M416.28,228.13l2.34-1.62v-1.79h-2.34v-1.94h8.4v3.63c0,2.24-1.17,3.65-3.05,3.65a2.73,2.73,0,0,1-2.65-1.73l-2.7,1.88Zm6.81-1.83v-1.58h-2.92v1.58c0,1.19.55,1.79,1.46,1.79S423.09,227.49,423.09,226.3Z" style="fill:#fff"></path><path d="M417.84,238.1h-1.56v-6.5h8.4v6.34h-1.56v-4.41h-1.83v3.89h-1.51v-3.89h-1.94Z" style="fill:#fff"></path><path d="M420.48,239.1a4.62,4.62,0,0,1,2.85,8l-1.15-1.25a2.68,2.68,0,0,0,1-2.11,2.69,2.69,0,1,0-5.37,0,2.67,2.67,0,0,0,1,2.11l-1.15,1.25a4.61,4.61,0,0,1,2.84-8Z" style="fill:#fff"></path><path d="M424.68,248.42v1.94h-8.4v-1.94Z" style="fill:#fff"></path><path d="M421.63,259.64c-1.87,0-3-1.41-3-3.65V254.3h-2.32v-1.94h8.4V256C424.68,258.23,423.51,259.64,421.63,259.64Zm0-2c.92,0,1.46-.6,1.46-1.79V254.3h-2.91v1.58C420.18,257.07,420.72,257.67,421.63,257.67Z" style="fill:#fff"></path><path d="M424.68,261V263h-8.4V261Z" style="fill:#fff"></path><path d="M423.09,266.69V264h1.59v7.31h-1.59v-2.68h-6.81v-1.95Z" style="fill:#fff"></path><path d="M418.08,277.48v-3.9l-1.8-.74v-2l8.4,3.74v1.92l-8.4,3.75v-2Zm1.47-.61,3.22-1.33-3.22-1.33Z" style="fill:#fff"></path><path d="M423.09,282.46v-2.68h1.59v7.31h-1.59V284.4h-6.81v-1.94Z" style="fill:#fff"></path><path d="M424.68,288.14v1.94h-8.4v-1.94Z" style="fill:#fff"></path><path d="M420.48,291.55a4.6,4.6,0,1,1-4.34,4.59A4.34,4.34,0,0,1,420.48,291.55Zm0,7.22a2.63,2.63,0,1,0-2.69-2.63A2.56,2.56,0,0,0,420.48,298.77Z" style="fill:#fff"></path><path d="M424.68,309.9h-8.4v-1.59l5.1-4.19h-5.1V302.2h8.4v1.61l-5.1,4.17h5.1Z" style="fill:#fff"></path></g></g></svg>
