<svg xmlns="http://www.w3.org/2000/svg" viewBox="0 0 500 500"><g id="freepik--background-simple--inject-168"><path d="M482.77,243.25c-5.19,43.91-25.23,94.95-65.27,118.4C357,397.09,362.07,451.6,244,475.29a243,243,0,0,1-52.35,4.95,202.65,202.65,0,0,1-25.7-2.1c-75-11-125.54-63.12-144.06-126.09C-2.5,269.24,46.19,215,78.46,182.37S134.36,47.93,250.25,23.72a235.45,235.45,0,0,1,53.8-5.11c41.24,1,86.21,14.55,117.33,42.81q3.51,3.18,6.83,6.59C471.46,112.41,489.84,183.4,482.77,243.25Z" style="fill:#92E3A9"></path><path d="M482.77,243.25c-5.19,43.91-25.23,94.95-65.27,118.4C357,397.09,362.07,451.6,244,475.29a243,243,0,0,1-52.35,4.95,202.65,202.65,0,0,1-25.7-2.1c-75-11-125.54-63.12-144.06-126.09C-2.5,269.24,46.19,215,78.46,182.37S134.36,47.93,250.25,23.72a235.45,235.45,0,0,1,53.8-5.11c41.24,1,86.21,14.55,117.33,42.81q3.51,3.18,6.83,6.59C471.46,112.41,489.84,183.4,482.77,243.25Z" style="fill:#fff;opacity:0.7000000000000001"></path></g><g id="freepik--Bushes--inject-168"><path d="M459.08,128.27l20.87-.12-8.1-4L470.39,123c-1.46-1.15-3.15-4.27-12.09-4.21S446,121.19,444.53,120s-5.77-4-5.77-4-5.84-4.62-11.11-4.33-8.07,4.59-8.84,3.69-5.08-3.71-12.86-5.12-10.06,1.84-10.06,1.84a23.09,23.09,0,0,0-5.44-4c-2.44-1-7.87,3.57-7.87,3.57a20,20,0,0,0-5.65-3c-2.79-.87-10.74,4.79-14.36,4.69-.47-.24-1-.49-1.59-.74-2.68-3.11-5.7-16.39-14.65-16.26-9.6.13-16.43,12.53-18,10.72s-3.27-5.25-9.79-7.14-5.65,2.66-9.36,2.1c-2.65-.4-5.84-5.45-13.84-5.4a8.29,8.29,0,0,0-2.26-.28,13.94,13.94,0,0,0-6.95,2.17c-1,.36-2,.78-3.06,1.27a52.31,52.31,0,0,0-9.38,5.46,15.42,15.42,0,0,0-8.36-5.32c-4.78-1.38-5.59.69-7.15,1.67a58.4,58.4,0,0,0-11.52-6.87c-20-9.1-25.39,1.91-29.6,2.54s-3.22-4.51-10.61-2.37-9.35,6-11.09,8.09-9.49-12-20.36-12.16-14,17.14-17.26,19-13.93-6.14-17.44-5.05a22.54,22.54,0,0,0-6.41,3.38s-6.14-5.23-8.91-4.05-6.17,4.54-6.17,4.54-2.57-3.69-11.4-2.09-13.71,4.78-14.58,5.8-4.05-3.86-10-4.18-12.59,4.91-12.59,4.91-4.88,3.18-6.54,4.49-5.47-1.39-15.61-1.46S36.05,119.69,34.4,121l-1.66,1.31-9.17,4.56,23.64.14s-9.24,1.92-8.76,4.23,16.63,2.33,29-.72,55.19-2.92,63.3-1.59,8.35,2.48,9.24,4.46-16.82,2.53,22.84,3.81,51.46,0,56.91-1.59c3.89-1.15-1.18-4.12-1.12-5.88a167.13,167.13,0,0,1,19.11-.65c2.68,2.41,9.55,3.17,16.19,3.07-1.08,1.4-2.74,3-.26,3.71,4.81,1.42,15.21,2.52,50.2,1.4,3.42-.11,6.35-.21,8.86-.31,6.81.78,19.26,1.12,44.35.31,35-1.12,19.36-1.61,20.15-3.36.68-1.49.94-2.45,5.45-3.43a47.63,47.63,0,0,1,5.33.89c10.92,2.7,25.17,2.68,25.6.65.23-1.12-2.12-2.13-4.29-2.82,12.44.09,26,.73,31.9,2.17,10.92,2.7,25.17,2.68,25.59.65S459.08,128.27,459.08,128.27Z" style="fill:#92E3A9"></path><path d="M459.08,128.27l20.87-.12-8.1-4L470.39,123c-1.46-1.15-3.15-4.27-12.09-4.21S446,121.19,444.53,120s-5.77-4-5.77-4-5.84-4.62-11.11-4.33-8.07,4.59-8.84,3.69-5.08-3.71-12.86-5.12-10.06,1.84-10.06,1.84a23.09,23.09,0,0,0-5.44-4c-2.44-1-7.87,3.57-7.87,3.57a20,20,0,0,0-5.65-3c-2.79-.87-10.74,4.79-14.36,4.69-.47-.24-1-.49-1.59-.74-2.68-3.11-5.7-16.39-14.65-16.26-9.6.13-16.43,12.53-18,10.72s-3.27-5.25-9.79-7.14-5.65,2.66-9.36,2.1c-2.65-.4-5.84-5.45-13.84-5.4a8.29,8.29,0,0,0-2.26-.28,13.94,13.94,0,0,0-6.95,2.17c-1,.36-2,.78-3.06,1.27a52.31,52.31,0,0,0-9.38,5.46,15.42,15.42,0,0,0-8.36-5.32c-4.78-1.38-5.59.69-7.15,1.67a58.4,58.4,0,0,0-11.52-6.87c-20-9.1-25.39,1.91-29.6,2.54s-3.22-4.51-10.61-2.37-9.35,6-11.09,8.09-9.49-12-20.36-12.16-14,17.14-17.26,19-13.93-6.14-17.44-5.05a22.54,22.54,0,0,0-6.41,3.38s-6.14-5.23-8.91-4.05-6.17,4.54-6.17,4.54-2.57-3.69-11.4-2.09-13.71,4.78-14.58,5.8-4.05-3.86-10-4.18-12.59,4.91-12.59,4.91-4.88,3.18-6.54,4.49-5.47-1.39-15.61-1.46S36.05,119.69,34.4,121l-1.66,1.31-9.17,4.56,23.64.14s-9.24,1.92-8.76,4.23,16.63,2.33,29-.72,55.19-2.92,63.3-1.59,8.35,2.48,9.24,4.46-16.82,2.53,22.84,3.81,51.46,0,56.91-1.59c3.89-1.15-1.18-4.12-1.12-5.88a167.13,167.13,0,0,1,19.11-.65c2.68,2.41,9.55,3.17,16.19,3.07-1.08,1.4-2.74,3-.26,3.71,4.81,1.42,15.21,2.52,50.2,1.4,3.42-.11,6.35-.21,8.86-.31,6.81.78,19.26,1.12,44.35.31,35-1.12,19.36-1.61,20.15-3.36.68-1.49.94-2.45,5.45-3.43a47.63,47.63,0,0,1,5.33.89c10.92,2.7,25.17,2.68,25.6.65.23-1.12-2.12-2.13-4.29-2.82,12.44.09,26,.73,31.9,2.17,10.92,2.7,25.17,2.68,25.59.65S459.08,128.27,459.08,128.27Z" style="opacity:0.30000000000000004"></path><path d="M270.11,119.57c-.8-3.87-6.34-14.91-23-22.94-19.78-9.52-25.43,1.37-29.65,1.91S214.33,94,206.9,96s-9.48,5.84-11.26,7.85-9.23-12.2-20.1-12.58-14.39,16.83-17.66,18.64-13.79-6.43-17.32-5.42a22.47,22.47,0,0,0-6.48,3.25s-6-5.36-8.83-4.24-6.26,4.4-6.26,4.4-2.5-3.74-11.35-2.33S93.83,110,92.94,111s-4-3.94-9.94-4.39-12.7,4.64-12.7,4.64-4.94,3.08-6.63,4.36-5.44-1.51-15.57-1.79S36,117,34.29,118.32l-1.68,1.27L23.34,124,47,124.6S60.1,115.27,61.83,118a5,5,0,0,1-.34,5.46s4.91-1.86,18.36-4.22,28.28-11.73,26.87-7.69l-1.4,4S117,110.48,117,113.86l0,3.37s2.21-9.84,5.77-8.08,6.44,8.51,6.44,8.51,16.44-8.72,17.59-1.79a20.69,20.69,0,0,1-.11,8.85c.88-2.16,3-6.22,6.24-4.19,4.27,2.71,5.23,5,5.23,5s-.86-9,3.41-6.3a19.88,19.88,0,0,1,6.31,6.38s8.82-17.82,12.52-11,4.07,10.3,4.07,10.3,18-23.3,20-15.84A45.54,45.54,0,0,1,206,122s15.95-14.29,20.11-10.75,0,6.34,2.46,6.69,19.57-10,19.54-3.63,6.67,9.81,9.4,8.49,5.53-9.38,7.14-5.77a30.08,30.08,0,0,1,2.1,6.21S267.22,121.37,270.11,119.57Z" style="fill:#fff;opacity:0.42"></path><path d="M262.46,121.71c.7-3.42,5.59-13.15,20.29-20.23,17.44-8.41,22.43,1.2,26.15,1.68s2.76-4,9.32-2.29,8.36,5.15,9.93,6.93S336.29,97,345.88,96.7s12.7,14.85,15.58,16.44,12.17-5.67,15.28-4.78a19.89,19.89,0,0,1,5.72,2.87s5.32-4.73,7.78-3.74a22.78,22.78,0,0,1,5.53,3.88s2.2-3.29,10-2.05,12.18,4,13,4.84,3.5-3.47,8.77-3.87,11.2,4.09,11.2,4.09,4.36,2.72,5.85,3.84,4.8-1.33,13.73-1.57,10.7,2.83,12.18,3.95l1.49,1.13,8.17,3.85-20.85.56s-11.57-8.23-13.1-5.78a4.41,4.41,0,0,0,.3,4.81s-4.33-1.63-16.19-3.72-24.95-10.34-23.71-6.78l1.24,3.56s-10.33-4.54-10.29-1.56l0,3s-2-8.69-5.1-7.13-5.67,7.5-5.67,7.5-14.51-7.69-15.53-1.57a18.43,18.43,0,0,0,.1,7.8c-.77-1.9-2.67-5.49-5.5-3.69-3.77,2.39-4.61,4.37-4.61,4.37s.76-7.94-3-5.55a17.53,17.53,0,0,0-5.57,5.62s-7.78-15.72-11-9.66-3.59,9.08-3.59,9.08-15.92-20.56-17.62-14a40.25,40.25,0,0,0-1.4,11.39s-14.07-12.6-17.74-9.48,0,5.6-2.17,5.9-17.27-8.8-17.24-3.2-5.89,8.65-8.29,7.49-4.88-8.28-6.3-5.09a26.43,26.43,0,0,0-1.85,5.48S265,123.3,262.46,121.71Z" style="fill:#fff;opacity:0.42"></path><g style="opacity:0.30000000000000004"><path d="M371.38,126.25c.26.64.39,1.09.39,1.09A5.92,5.92,0,0,1,371.38,126.25Z" style="fill:#fff"></path></g></g><g id="freepik--Clouds--inject-168"><path d="M139,47.88a10,10,0,0,0-1.15-.63c-6-2.87-10.9-.58-13.77,3.72s-3.72,6.6-5.73,4.59-5.16-4.87-9.75-2.29-3.73,5.16-6.31,5.73S98,57,94,57.85s-6.31,4-7.17,4.59-7.74,3.16-7.74,3.16h89.17s-1.43-8-6-10.33-8,1.72-10.61,3.44-3.15.29-3.15.29a39,39,0,0,0-6.07-8.37" style="fill:none;stroke:#263238;stroke-linecap:round;stroke-linejoin:round"></path><path d="M418.64,75.93c-.38-.23-.76-.44-1.15-.63-6-2.86-10.87-.57-13.73,3.72S400,85.6,398,83.6s-5.15-4.86-9.72-2.29S384.59,86.46,382,87s-4.29-2-8.29-1.14-6.3,4-7.16,4.58-7.72,3.14-7.72,3.14h89s-1.43-8-6-10.29-8,1.71-10.59,3.43-3.15.28-3.15.28A38.8,38.8,0,0,0,422,78.68" style="fill:none;stroke:#263238;stroke-linecap:round;stroke-linejoin:round"></path><path d="M321.52,12.52A28.67,28.67,0,0,0,318.81,11c-14.09-6.71-25.5-1.34-32.22,8.72S277.87,35.2,273.17,30.5s-12.08-11.41-22.82-5.37-8.73,12.09-14.77,13.43-10.07-4.7-19.47-2.69-14.76,9.4-16.78,10.74S181.21,54,181.21,54H390s-3.35-18.8-14.09-24.17-18.8,4-24.84,8.06-7.38.67-7.38.67A91.29,91.29,0,0,0,329.44,19" style="fill:none;stroke:#263238;stroke-linecap:round;stroke-linejoin:round"></path></g><g id="freepik--Water--inject-168"><path d="M105.26,471.65a121.2,121.2,0,0,0,25.38,3.44" style="fill:none;stroke:#263238;stroke-linecap:round;stroke-linejoin:round"></path><path d="M29.61,448.5a77.15,77.15,0,0,0,35.23,11.3c9.29.6,16.28,3.5,24.45,6.62" style="fill:none;stroke:#263238;stroke-linecap:round;stroke-linejoin:round"></path><path d="M68.83,477.08s21.93,14,62.48,12.63" style="fill:none;stroke:#263238;stroke-linecap:round;stroke-linejoin:round"></path><path d="M449.8,452.21c-13.29,7.11-32,14.27-57.93,19" style="fill:none;stroke:#263238;stroke-linecap:round;stroke-linejoin:round"></path><path d="M478.94,428.68s-3.94,6.57-15.25,14.85" style="fill:none;stroke:#263238;stroke-linecap:round;stroke-linejoin:round"></path><path d="M470.3,467.9s-36.56,16-65.14,19.94" style="fill:none;stroke:#263238;stroke-linecap:round;stroke-linejoin:round"></path><path d="M401.24,372.18c-23.29,11.88-62.27,20.24-107.52,22" style="fill:none;stroke:#263238;stroke-linecap:round;stroke-linejoin:round"></path><path d="M408.72,325.08c9.94,6.44,15.53,13.71,15.53,21.41,0,6.6-4.13,12.9-11.59,18.63" style="fill:none;stroke:#263238;stroke-linecap:round;stroke-linejoin:round"></path><path d="M336.2,302.58c27,3.9,49.7,10.33,65.3,18.34" style="fill:none;stroke:#263238;stroke-linecap:round;stroke-linejoin:round"></path><path d="M166,313.88c27.2-9.52,66.16-15.48,109.43-15.48a435,435,0,0,1,54,3.26" style="fill:none;stroke:#263238;stroke-linecap:round;stroke-linejoin:round"></path><path d="M138.41,327.62a91.3,91.3,0,0,1,21-11.3" style="fill:none;stroke:#263238;stroke-linecap:round;stroke-linejoin:round"></path><path d="M178.93,383.12c-27.94-7.69-47-18.65-51.42-31" style="fill:none;stroke:#263238;stroke-linecap:round;stroke-linejoin:round"></path><path d="M252.88,394c-24.72-1.21-47.45-4.39-66.61-9" style="fill:none;stroke:#263238;stroke-linecap:round;stroke-linejoin:round"></path><path d="M330.92,323.07c10,2.54,17.93,5.76,22.9,9.4" style="fill:none;stroke:#263238;stroke-linecap:round;stroke-linejoin:round"></path><path d="M195.58,333.54c11.32-9.6,42.77-16.51,79.8-16.51,19.51,0,37.48,1.92,51.76,5.14" style="fill:none;stroke:#263238;stroke-linecap:round;stroke-linejoin:round"></path><path d="M252.9,364.92c-35.64-2.85-61.81-12.29-61.81-23.51a7.77,7.77,0,0,1,.95-3.66" style="fill:none;stroke:#263238;stroke-linecap:round;stroke-linejoin:round"></path><path d="M339,357.42c-15.46,5.13-38.22,8.38-63.6,8.38-5.63,0-11.13-.16-16.44-.47" style="fill:none;stroke:#263238;stroke-linecap:round;stroke-linejoin:round"></path><path d="M358,336.5a8.48,8.48,0,0,1,1.71,4.91c0,4.35-3.94,8.44-10.84,12" style="fill:none;stroke:#263238;stroke-linecap:round;stroke-linejoin:round"></path><path d="M80.38,408.6c3.49.35,7.07.55,10.66.6" style="fill:none;stroke:#263238;stroke-linecap:round;stroke-linejoin:round"></path><path d="M64.06,375.05s-25.62,4.44-24.25,15c1,7.73,14.38,14.19,31.37,17.24" style="fill:none;stroke:#263238;stroke-linecap:round;stroke-linejoin:round"></path><path d="M35.71,402.37s15.37,16.05,46.11,14.69" style="fill:none;stroke:#263238;stroke-linecap:round;stroke-linejoin:round"></path><path d="M374.1,436.69c12.76-2.53,26.47-7.42,31.15-11.44,7.17-6.14,6.15-13,13.32-16.05" style="fill:none;stroke:#263238;stroke-linecap:round;stroke-linejoin:round"></path><path d="M327.38,440.62s15-3.75,28.69-2.39a44.2,44.2,0,0,0,8.25-.09" style="fill:none;stroke:#263238;stroke-linecap:round;stroke-linejoin:round"></path><path d="M443.34,391.86a23.32,23.32,0,0,0,5-10.32c3.28-16-12-26.64-14.69-27.67" style="fill:none;stroke:#263238;stroke-linecap:round;stroke-linejoin:round"></path><path d="M433.26,399.3a24.19,24.19,0,0,0,5.4-3.05" style="fill:none;stroke:#263238;stroke-linecap:round;stroke-linejoin:round"></path><path d="M459.21,374.37s.35,17.07-9.9,27.32" style="fill:none;stroke:#263238;stroke-linecap:round;stroke-linejoin:round"></path><path d="M197.85,448.86a160.79,160.79,0,0,0,27.07-1.09" style="fill:none;stroke:#263238;stroke-linecap:round;stroke-linejoin:round"></path><path d="M132.21,434.53a199.07,199.07,0,0,0,58.53,13.89" style="fill:none;stroke:#263238;stroke-linecap:round;stroke-linejoin:round"></path><line x1="58.46" y1="147.66" x2="104.3" y2="147.66" style="fill:none;stroke:#263238;stroke-linecap:round;stroke-linejoin:round"></line><line x1="145.2" y1="147.66" x2="191.04" y2="147.66" style="fill:none;stroke:#263238;stroke-linecap:round;stroke-linejoin:round"></line><line x1="334.91" y1="147.66" x2="380.75" y2="147.66" style="fill:none;stroke:#263238;stroke-linecap:round;stroke-linejoin:round"></line><line x1="426.59" y1="147.66" x2="472.43" y2="147.66" style="fill:none;stroke:#263238;stroke-linecap:round;stroke-linejoin:round"></line><line x1="31.66" y1="150.24" x2="54.23" y2="150.24" style="fill:none;stroke:#263238;stroke-linecap:round;stroke-linejoin:round"></line><line x1="64.1" y1="157.99" x2="85.26" y2="157.99" style="fill:none;stroke:#263238;stroke-linecap:round;stroke-linejoin:round"></line><line x1="91.61" y1="154.97" x2="112.76" y2="154.97" style="fill:none;stroke:#263238;stroke-linecap:round;stroke-linejoin:round"></line><line x1="35.89" y1="188.08" x2="95.13" y2="188.08" style="fill:none;stroke:#263238;stroke-linecap:round;stroke-linejoin:round"></line><line x1="128.98" y1="188.08" x2="161.42" y2="188.08" style="fill:none;stroke:#263238;stroke-linecap:round;stroke-linejoin:round"></line><line x1="193.77" y1="180.33" x2="226.21" y2="180.33" style="fill:none;stroke:#263238;stroke-linecap:round;stroke-linejoin:round"></line><line x1="94.77" y1="168.2" x2="127.21" y2="168.2" style="fill:none;stroke:#263238;stroke-linecap:round;stroke-linejoin:round"></line><line x1="424.47" y1="154.97" x2="445.63" y2="154.97" style="fill:none;stroke:#263238;stroke-linecap:round;stroke-linejoin:round"></line><line x1="404.78" y1="175.18" x2="465.32" y2="175.18" style="fill:none;stroke:#263238;stroke-linecap:round;stroke-linejoin:round"></line><line x1="223.48" y1="142.93" x2="244.64" y2="142.93" style="fill:none;stroke:#263238;stroke-linecap:round;stroke-linejoin:round"></line><line x1="114.88" y1="148.09" x2="136.04" y2="148.09" style="fill:none;stroke:#263238;stroke-linecap:round;stroke-linejoin:round"></line><line x1="399.09" y1="144.65" x2="420.24" y2="144.65" style="fill:none;stroke:#263238;stroke-linecap:round;stroke-linejoin:round"></line><line x1="324.33" y1="154.97" x2="361.71" y2="154.97" style="fill:none;stroke:#263238;stroke-linecap:round;stroke-linejoin:round"></line><line x1="275.67" y1="178.92" x2="313.05" y2="178.92" style="fill:none;stroke:#263238;stroke-linecap:round;stroke-linejoin:round"></line><line x1="392.74" y1="161.43" x2="473.13" y2="161.43" style="fill:none;stroke:#263238;stroke-linecap:round;stroke-linejoin:round"></line><line x1="274.26" y1="148.95" x2="311.64" y2="148.95" style="fill:none;stroke:#263238;stroke-linecap:round;stroke-linejoin:round"></line><line x1="166.66" y1="155.78" x2="250.99" y2="155.78" style="fill:none;stroke:#263238;stroke-linecap:round;stroke-linejoin:round"></line><line x1="463.97" y1="206.42" x2="423.77" y2="206.42" style="fill:none;stroke:#263238;stroke-linecap:round;stroke-linejoin:round"></line><line x1="417.42" y1="195.84" x2="396.26" y2="195.84" style="fill:none;stroke:#263238;stroke-linecap:round;stroke-linejoin:round"></line><line x1="473.13" y1="241.68" x2="413.9" y2="241.68" style="fill:none;stroke:#263238;stroke-linecap:round;stroke-linejoin:round"></line><line x1="380.04" y1="241.68" x2="347.6" y2="241.68" style="fill:none;stroke:#263238;stroke-linecap:round;stroke-linejoin:round"></line><line x1="315.26" y1="241.68" x2="282.82" y2="241.68" style="fill:none;stroke:#263238;stroke-linecap:round;stroke-linejoin:round"></line><line x1="125.46" y1="203.6" x2="104.3" y2="203.6" style="fill:none;stroke:#263238;stroke-linecap:round;stroke-linejoin:round"></line><line x1="55.64" y1="209.95" x2="28.14" y2="209.95" style="fill:none;stroke:#263238;stroke-linecap:round;stroke-linejoin:round"></line><line x1="184.7" y1="209.95" x2="147.32" y2="209.95" style="fill:none;stroke:#263238;stroke-linecap:round;stroke-linejoin:round"></line><line x1="233.36" y1="247.32" x2="195.98" y2="247.32" style="fill:none;stroke:#263238;stroke-linecap:round;stroke-linejoin:round"></line><line x1="116.29" y1="236.04" x2="35.89" y2="236.04" style="fill:none;stroke:#263238;stroke-linecap:round;stroke-linejoin:round"></line><line x1="342.37" y1="199.02" x2="258.04" y2="199.02" style="fill:none;stroke:#263238;stroke-linecap:round;stroke-linejoin:round"></line><g style="opacity:0.30000000000000004"><path d="M146.63,136.25c-.29.72-.44,1.22-.44,1.22A6,6,0,0,0,146.63,136.25Z" style="fill:#fff"></path></g></g><g id="freepik--Character--inject-168"><path d="M372,201.11s2.21-11.93,3.54-14.14,6.19-4.57,10.17-7.37,6-6.48,7.81-5.45.88,5.15-.3,7.66-6.33,6.34-6.33,6.34,1.32,10.75.44,12.67-4,4.57-4,4.57" style="fill:#d4d4d4;stroke:#263238;stroke-linecap:round;stroke-linejoin:round"></path><path d="M247.54,165v8.25s-14.81,3.42-17.66,3.7-8.54-4.84-20.21-.85-15.38,13.1-15.38,13.1l-14.8,4.55s-13.67-22.49-18.79-31.32-6.26-22.49-8.54-30.17-4.84-14.24-8.26-17.09a10.05,10.05,0,0,0-11.1-1.71c-4,1.71-13.1,13.39-12.25,17.37s5.13,10,8.83,12.53,8.26,5.12,8.26,5.12,4.84,23.63,6.83,36.16,5.13,26.76,14.24,35.31,11.67,13.95,16.22,12.52,25.06-6.26,30.75-10,8.54-5.13,8.54-5.13,3.71,18.51,7.41,28.19,7.11,27.9,8,34.16-1.42,28.19-2.28,41-1.42,16.8-1.42,16.8,18.22,12.53,50.39,12.24,48.4-11.1,48.4-11.1-6.83-37.58-7.69-45-2-13.39-2-14.24,6.83-42.14,6.83-42.14a48.77,48.77,0,0,0,12.53,20.5c9.4,8.83,10,13.67,14.24,12.53s20.21-15.09,21.92-17.37,16.23-39,16.23-39,6.83-2.28,9.39-3.42,5.7-6.26,5.7-6.26.57-18.51-1.43-19.65-18.79,1.43-23.06,4.84-4.84,4.56-5.12,7.4S369.68,208,369.11,210s-14.52,14.52-14.52,14.52-3.42-9.11-6.27-12.53-4.55-8-5.12-9.11-2.85-17.93-11.11-22.77-22.49-2.57-24.48-2.28-15.37-.57-19.65-1.42a35.37,35.37,0,0,0-5.69-.86l-.85-9.11Z" style="fill:#d4d4d4;stroke:#263238;stroke-linecap:round;stroke-linejoin:round"></path><line x1="282.27" y1="175.57" x2="283.69" y2="188.1" style="fill:none;stroke:#263238;stroke-linecap:round;stroke-linejoin:round"></line><line x1="247.54" y1="173.29" x2="246.97" y2="184.4" style="fill:none;stroke:#263238;stroke-linecap:round;stroke-linejoin:round"></line><line x1="234.15" y1="184.97" x2="255.22" y2="195.22" style="fill:none;stroke:#263238;stroke-linecap:round;stroke-linejoin:round"></line><line x1="274.87" y1="196.92" x2="301.06" y2="189.52" style="fill:none;stroke:#263238;stroke-linecap:round;stroke-linejoin:round"></line><path d="M323.55,208s0,10.53-.57,17.65-.85,9.11-.85,9.11" style="fill:none;stroke:#263238;stroke-linecap:round;stroke-linejoin:round"></path><path d="M354.59,224.54s-14.24,10.82-15.95,14.52-.57,10,1.71,14.81" style="fill:none;stroke:#263238;stroke-linecap:round;stroke-linejoin:round"></path><path d="M325,201.19s11.67.29,15.09,3.42" style="fill:none;stroke:#263238;stroke-linecap:round;stroke-linejoin:round"></path><path d="M203.12,198.63s8.54,8.83,9.68,16.52" style="fill:none;stroke:#263238;stroke-linecap:round;stroke-linejoin:round"></path><path d="M180.06,196.07a21.57,21.57,0,0,1,3.7,13.38" style="fill:none;stroke:#263238;stroke-linecap:round;stroke-linejoin:round"></path><path d="M324.69,338.71s-4.71-25.92-6.8-38.95c-8.48,4.94-23.76,11-45.68,9.15-26.57-2.3-38.52-10.75-42.85-14.84-.57,8.74-1.54,19.26-2,26.7-.85,12.81-1.42,16.8-1.42,16.8s18.22,12.53,50.39,12.24S324.69,338.71,324.69,338.71Z" style="fill:#263238;stroke:#263238;stroke-linecap:round;stroke-linejoin:round"></path><path d="M265.58,211s-.26,15.56,1.78,23.47" style="fill:none;stroke:#263238;stroke-linecap:round;stroke-linejoin:round"></path><path d="M241.76,136.53s.57,22.38,2.27,26.91,12.31,15.51,15.71,17.49a10.18,10.18,0,0,0,10.2.57c3.39-1.7,11.45-8.89,16.85-17.21,1.94-3,2.84-26.34,2.84-26.34Z" style="fill:#d4d4d4;stroke:#263238;stroke-linecap:round;stroke-linejoin:round"></path><path d="M259.27,158.2s2.57,5.13,5.73,5.13,5.33-3.16,5.53-4.14" style="fill:none;stroke:#263238;stroke-linecap:round;stroke-linejoin:round"></path><path d="M255.92,164.91s4.34,4.74,9.47,4.74a11.38,11.38,0,0,0,8.1-3.36" style="fill:none;stroke:#263238;stroke-linecap:round;stroke-linejoin:round"></path><path d="M237.16,138.45a13.57,13.57,0,0,0,1.18,8.49c2.18,3.95,4.15,5.33,4.15,5.33l-.79-12.63Z" style="fill:#d4d4d4;stroke:#263238;stroke-linecap:round;stroke-linejoin:round"></path><path d="M289.48,140.82l-1,15s3.95-3.56,4.94-7.7a50.66,50.66,0,0,0,1.18-8.29Z" style="fill:#d4d4d4;stroke:#263238;stroke-linecap:round;stroke-linejoin:round"></path><path d="M257.3,148.33c0,1.58-.75,2.86-1.68,2.86s-1.68-1.28-1.68-2.86.75-2.87,1.68-2.87S257.3,146.74,257.3,148.33Z" style="fill:#263238"></path><path d="M275.46,148.33c0,1.58-.75,2.86-1.67,2.86s-1.68-1.28-1.68-2.86.75-2.87,1.68-2.87S275.46,146.74,275.46,148.33Z" style="fill:#263238"></path><path d="M259.27,151.48a29.09,29.09,0,0,1-4.54,2" style="fill:none;stroke:#263238;stroke-linecap:round;stroke-linejoin:round"></path><path d="M270.13,151.88s2,2.17,3.95,2.57" style="fill:none;stroke:#263238;stroke-linecap:round;stroke-linejoin:round"></path><path d="M265.79,88.7,192.74,131s42.64,13.82,74.23,15.4,74.64-13,74.64-13Z" style="fill:#92E3A9;stroke:#263238;stroke-linecap:round;stroke-linejoin:round"></path><path d="M265.79,88.7l-27.58,16c3.6,1.49,14.88,5.46,31.92,5,12.16-.35,19.79-2.49,24-4.23Z" style="fill:#92E3A9;stroke:#263238;stroke-linecap:round;stroke-linejoin:round"></path><line x1="225.51" y1="116.59" x2="212.48" y2="124.83" style="fill:none;stroke:#263238;stroke-linecap:round;stroke-linejoin:round"></line><line x1="241.5" y1="106.47" x2="228.15" y2="114.92" style="fill:none;stroke:#263238;stroke-linecap:round;stroke-linejoin:round"></line><line x1="246.64" y1="109.04" x2="230.64" y2="121.47" style="fill:none;stroke:#263238;stroke-linecap:round;stroke-linejoin:round"></line><line x1="252.11" y1="128.75" x2="250.78" y2="132.53" style="fill:none;stroke:#263238;stroke-linecap:round;stroke-linejoin:round"></line><line x1="258.68" y1="110.02" x2="252.98" y2="126.28" style="fill:none;stroke:#263238;stroke-linecap:round;stroke-linejoin:round"></line><line x1="274.67" y1="110.22" x2="276.85" y2="119.1" style="fill:none;stroke:#263238;stroke-linecap:round;stroke-linejoin:round"></line><line x1="287.42" y1="117.56" x2="298.17" y2="137.47" style="fill:none;stroke:#263238;stroke-linecap:round;stroke-linejoin:round"></line><line x1="283.56" y1="110.42" x2="286.16" y2="115.24" style="fill:none;stroke:#263238;stroke-linecap:round;stroke-linejoin:round"></line><line x1="319.69" y1="132.88" x2="322.85" y2="135.69" style="fill:none;stroke:#263238;stroke-linecap:round;stroke-linejoin:round"></line><line x1="298.17" y1="113.77" x2="316.25" y2="129.83" style="fill:none;stroke:#263238;stroke-linecap:round;stroke-linejoin:round"></line><path d="M146.86,299.64s3.57,9.39,2.39,11.52-6.58,11.38-13.53,16.78-12.52,6.68-12.52,6.68,9.9-10.7,13.42-16.61S146.86,299.64,146.86,299.64Z" style="fill:#92E3A9"></path><path d="M146.86,299.64s3.57,9.39,2.39,11.52-6.58,11.38-13.53,16.78-12.52,6.68-12.52,6.68,9.9-10.7,13.42-16.61S146.86,299.64,146.86,299.64Z" style="opacity:0.12"></path><path d="M146.86,299.64s3.57,9.39,2.39,11.52-6.58,11.38-13.53,16.78-12.52,6.68-12.52,6.68,9.9-10.7,13.42-16.61S146.86,299.64,146.86,299.64Z" style="fill:none;stroke:#263238;stroke-linecap:round;stroke-linejoin:round"></path><line x1="145.56" y1="303.62" x2="147.16" y2="307.34" style="fill:none;stroke:#263238;stroke-linecap:round;stroke-linejoin:round"></line><line x1="144.64" y1="307.72" x2="146.79" y2="311.95" style="fill:none;stroke:#263238;stroke-linecap:round;stroke-linejoin:round"></line><line x1="142.77" y1="309.19" x2="144.45" y2="312.01" style="fill:none;stroke:#263238;stroke-linecap:round;stroke-linejoin:round"></line><line x1="140.88" y1="312.96" x2="143.19" y2="317.28" style="fill:none;stroke:#263238;stroke-linecap:round;stroke-linejoin:round"></line><line x1="137.52" y1="318.42" x2="140" y2="321.69" style="fill:none;stroke:#263238;stroke-linecap:round;stroke-linejoin:round"></line><line x1="135.4" y1="321.11" x2="137.6" y2="324.12" style="fill:none;stroke:#263238;stroke-linecap:round;stroke-linejoin:round"></line><line x1="134.81" y1="324.98" x2="135.9" y2="326.42" style="fill:none;stroke:#263238;stroke-linecap:round;stroke-linejoin:round"></line><line x1="145.07" y1="312.78" x2="145.64" y2="313.83" style="fill:none;stroke:#263238;stroke-linecap:round;stroke-linejoin:round"></line><line x1="132.27" y1="327.85" x2="132.72" y2="328.73" style="fill:none;stroke:#263238;stroke-linecap:round;stroke-linejoin:round"></line><path d="M138,268.54s-14.9,17.17-21.68,31-3.63,29.54-6.58,34.84c-1.07,1.92-2.93,2.92-7.12,3.37s-7.07,2.88-9.15,5-2.53,4.13.51,4.9,12.24-2.52,13.8.9-2.5,5.32-2.86,9.29,6.13,2.72,8.91-2.68,2.61-11.75,3-15,11.76-7.8,16.29-13.85,13.77-22.2,14.05-30.61-.46-17.86-2.87-22.68-5-2.58-5-2.58S140.41,268,138,268.54Z" style="fill:#92E3A9;stroke:#263238;stroke-linecap:round;stroke-linejoin:round"></path><path d="M113.85,355.12c2.78-5.4,2.62-11.75,3-15a1.79,1.79,0,0,1,.14-.47c-2.31,1-5.79,5.13-7.89,3.38-2.64-2.21.1-6.76.1-6.76l-.57-.51c-1.17,1-3,1.66-6,2-4.19.45-7.07,2.88-9.15,5s-2.53,4.13.51,4.9,12.24-2.52,13.8.9-2.5,5.32-2.86,9.29S111.08,360.52,113.85,355.12Z" style="fill:#92E3A9"></path><path d="M113.85,355.12c2.78-5.4,2.62-11.75,3-15a1.79,1.79,0,0,1,.14-.47c-2.31,1-5.79,5.13-7.89,3.38-2.64-2.21.1-6.76.1-6.76l-.57-.51c-1.17,1-3,1.66-6,2-4.19.45-7.07,2.88-9.15,5s-2.53,4.13.51,4.9,12.24-2.52,13.8.9-2.5,5.32-2.86,9.29S111.08,360.52,113.85,355.12Z" style="opacity:0.12"></path><path d="M113.85,355.12c2.78-5.4,2.62-11.75,3-15a1.79,1.79,0,0,1,.14-.47c-2.31,1-5.79,5.13-7.89,3.38-2.64-2.21.1-6.76.1-6.76l-.57-.51c-1.17,1-3,1.66-6,2-4.19.45-7.07,2.88-9.15,5s-2.53,4.13.51,4.9,12.24-2.52,13.8.9-2.5,5.32-2.86,9.29S111.08,360.52,113.85,355.12Z" style="fill:none;stroke:#263238;stroke-linecap:round;stroke-linejoin:round"></path><line x1="107.96" y1="338.19" x2="101.39" y2="341.14" style="fill:none;stroke:#263238;stroke-linecap:round;stroke-linejoin:round"></line><line x1="107.87" y1="340.03" x2="104.52" y2="341.73" style="fill:none;stroke:#263238;stroke-linecap:round;stroke-linejoin:round"></line><line x1="107.9" y1="342.25" x2="104.85" y2="344.32" style="fill:none;stroke:#263238;stroke-linecap:round;stroke-linejoin:round"></line><line x1="109.13" y1="343.04" x2="107.45" y2="345.87" style="fill:none;stroke:#263238;stroke-linecap:round;stroke-linejoin:round"></line><line x1="111.82" y1="343.49" x2="110.96" y2="347.1" style="fill:none;stroke:#263238;stroke-linecap:round;stroke-linejoin:round"></line><line x1="114.31" y1="341.84" x2="114.35" y2="349.09" style="fill:none;stroke:#263238;stroke-linecap:round;stroke-linejoin:round"></line><path d="M144.35,273c-2.41-4.82-5-2.58-5-2.58s1.11-2.4-1.27-1.87c0,0-3.39,3.91-7.67,9.5.51,1.65,2.59,7.25,7.46,8.27a11.46,11.46,0,0,0,9.12-1.9C146.52,279.82,145.69,275.68,144.35,273Z" style="fill:#92E3A9"></path><path d="M144.35,273c-2.41-4.82-5-2.58-5-2.58s1.11-2.4-1.27-1.87c0,0-3.39,3.91-7.67,9.5.51,1.65,2.59,7.25,7.46,8.27a11.46,11.46,0,0,0,9.12-1.9C146.52,279.82,145.69,275.68,144.35,273Z" style="opacity:0.12"></path><path d="M144.35,273c-2.41-4.82-5-2.58-5-2.58s1.11-2.4-1.27-1.87c0,0-3.39,3.91-7.67,9.5.51,1.65,2.59,7.25,7.46,8.27a11.46,11.46,0,0,0,9.12-1.9C146.52,279.82,145.69,275.68,144.35,273Z" style="fill:none;stroke:#263238;stroke-linecap:round;stroke-linejoin:round"></path><circle cx="141.91" cy="275.6" r="1.46" style="fill:#fff;stroke:#263238;stroke-linecap:round;stroke-linejoin:round"></circle><path d="M142.63,275.79a.64.64,0,0,1-.87.25.63.63,0,0,1-.24-.87.64.64,0,0,1,.87-.25A.63.63,0,0,1,142.63,275.79Z" style="fill:#263238"></path><path d="M135.18,291.23s-2.28.72-5.81,4.41-5.08,5.55-4.66,6.1,5,3.5,6.35,2,4.94-9.82,5.18-10.63" style="fill:#92E3A9"></path><path d="M135.18,291.23s-2.28.72-5.81,4.41-5.08,5.55-4.66,6.1,5,3.5,6.35,2,4.94-9.82,5.18-10.63" style="opacity:0.12"></path><path d="M135.18,291.23s-2.28.72-5.81,4.41-5.08,5.55-4.66,6.1,5,3.5,6.35,2,4.94-9.82,5.18-10.63" style="fill:none;stroke:#263238;stroke-linecap:round;stroke-linejoin:round"></path><path d="M135.3,290.46s.13,2.59,1.64,2.7,1.22-.69,1.22-.69" style="fill:none;stroke:#263238;stroke-linecap:round;stroke-linejoin:round"></path><path d="M135.18,291.23s-4,4.25-5.63,5.77" style="fill:none;stroke:#263238;stroke-linecap:round;stroke-linejoin:round"></path><path d="M134.62,292.81s-3.05,4.9-4.54,6.27" style="fill:none;stroke:#263238;stroke-linecap:round;stroke-linejoin:round"></path><line x1="135.45" y1="292.64" x2="133.84" y2="296.46" style="fill:none;stroke:#263238;stroke-linecap:round;stroke-linejoin:round"></line><path d="M125.57,305.81s-5.06,10.86-9,20.23-4.87,11-3.37,10.67,9.36-12.36,12.92-21S129.88,302.25,125.57,305.81Z" style="fill:#fff"></path><path d="M144.38,278.5a6.82,6.82,0,0,1-1.39,4c-1.4,1.58-4.93,1.4-4.93,1.95s1.39,1,4,.47,3.44-1.4,3.44-2.88S145,277.3,144.38,278.5Z" style="fill:#fff"></path><path d="M144.14,288.52s2.1,7.56-4.34,19.94-11.09,17.37-9.81,17.37,8.37-9.81,12.06-18,4.83-14,4.35-17.69S145.43,287.07,144.14,288.52Z" style="fill:#fff"></path><path d="M180.73,397c-2.64-3.46-6.23-4.53-6.38-10.25s3.18-16,6.85-20.95a56.64,56.64,0,0,1,11.07-11.26c-2.07,7.27-7.25,13.45-9,20.71S181.93,389.6,180.73,397Z" style="fill:#92E3A9"></path><path d="M180.73,397c-2.64-3.46-6.23-4.53-6.38-10.25s3.18-16,6.85-20.95a56.64,56.64,0,0,1,11.07-11.26c-2.07,7.27-7.25,13.45-9,20.71S181.93,389.6,180.73,397Z" style="opacity:0.12"></path><path d="M180.73,397c-2.64-3.46-6.23-4.53-6.38-10.25s3.18-16,6.85-20.95a56.64,56.64,0,0,1,11.07-11.26c-2.07,7.27-7.25,13.45-9,20.71S181.93,389.6,180.73,397Z" style="fill:none;stroke:#263238;stroke-linecap:round;stroke-linejoin:round"></path><path d="M180.49,393.16a38.06,38.06,0,0,1-2.89-2.93" style="fill:none;stroke:#263238;stroke-linecap:round;stroke-linejoin:round"></path><path d="M179.7,388.62c-1.23-1.1-2.42-2.22-3.63-3.34" style="fill:none;stroke:#263238;stroke-linecap:round;stroke-linejoin:round"></path><path d="M180.77,386.21c-.87-.67-1.75-1.33-2.61-2" style="fill:none;stroke:#263238;stroke-linecap:round;stroke-linejoin:round"></path><path d="M181,381.71c-1.25-1.07-2.47-2.18-3.7-3.27" style="fill:none;stroke:#263238;stroke-linecap:round;stroke-linejoin:round"></path><path d="M182.19,375.2c-1.12-.74-2.22-1.5-3.36-2.21" style="fill:none;stroke:#263238;stroke-linecap:round;stroke-linejoin:round"></path><path d="M183.46,371.9c-1-.73-2-1.41-3-2.09" style="fill:none;stroke:#263238;stroke-linecap:round;stroke-linejoin:round"></path><path d="M183.05,368l-1.5-1" style="fill:none;stroke:#263238;stroke-linecap:round;stroke-linejoin:round"></path><path d="M177.3,383.69l-.93-.81" style="fill:none;stroke:#263238;stroke-linecap:round;stroke-linejoin:round"></path><path d="M185,364.34l-.72-.66" style="fill:none;stroke:#263238;stroke-linecap:round;stroke-linejoin:round"></path><path d="M202.15,420.84c2.08-11.92,5-24.4,6.23-36.37s-1.2-24-5-34.43c-1.37-3.78.71-3.66,2.73-5.74s4.62-5.38,5.29-8.22.65-4.81-2.72-4-8.54,6.71-12.34,4.32-.21-6.41-2.91-9.73-6.34,2.86-6,7.56,4.14,8.32,6.35,13.93-6.21,11.94-9.57,18.68-5.41,24.91-2.47,32.59,8,17.08,12.25,20.64,3.77,1,6.22.05C200.2,421.27,201,421.78,202.15,420.84Z" style="fill:#92E3A9;stroke:#263238;stroke-linecap:round;stroke-linejoin:round"></path><path d="M187.5,334.1c.6,4.17,3.45,9.82,6.51,13.57.15.18.12.36.27.44.65-1.79,1.4-6.49,3.77-5.95,3,.66,3.29,3.52,4.2,5.81a5.74,5.74,0,0,0,.69.26c.49-1.94,1.37-2.7,3.09-4a17.48,17.48,0,0,0,5.34-8.18c.78-2.75.62-4.82-2.71-4s-8.56,6.76-12.32,4.32-.29-6.27-2.9-9.75S186.89,329.93,187.5,334.1Z" style="fill:#92E3A9"></path><path d="M187.5,334.1c.6,4.17,3.45,9.82,6.51,13.57.15.18.12.36.27.44.65-1.79,1.4-6.49,3.77-5.95,3,.66,3.29,3.52,4.2,5.81a5.74,5.74,0,0,0,.69.26c.49-1.94,1.37-2.7,3.09-4a17.48,17.48,0,0,0,5.34-8.18c.78-2.75.62-4.82-2.71-4s-8.56,6.76-12.32,4.32-.29-6.27-2.9-9.75S186.89,329.93,187.5,334.1Z" style="opacity:0.12"></path><path d="M187.5,334.1c.6,4.17,3.45,9.82,6.51,13.57.15.18.12.36.27.44.65-1.79,1.4-6.49,3.77-5.95,3,.66,3.29,3.52,4.2,5.81a5.74,5.74,0,0,0,.69.26c.49-1.94,1.37-2.7,3.09-4a17.48,17.48,0,0,0,5.34-8.18c.78-2.75.62-4.82-2.71-4s-8.56,6.76-12.32,4.32-.29-6.27-2.9-9.75S186.89,329.93,187.5,334.1Z" style="fill:none;stroke:#263238;stroke-linecap:round;stroke-linejoin:round"></path><path d="M201.94,345.87a55,55,0,0,1,3.27-5" style="fill:none;stroke:#263238;stroke-linecap:round;stroke-linejoin:round"></path><path d="M200.91,344.21c.49-.93,1-1.85,1.57-2.74" style="fill:none;stroke:#263238;stroke-linecap:round;stroke-linejoin:round"></path><path d="M199.61,342.24c.38-1,.81-2,1.25-3" style="fill:none;stroke:#263238;stroke-linecap:round;stroke-linejoin:round"></path><path d="M198.18,342c-.13-1.08-.21-2.17-.27-3.25" style="fill:none;stroke:#263238;stroke-linecap:round;stroke-linejoin:round"></path><path d="M195.81,342.73c-.52-1.18-1-2.36-1.5-3.55" style="fill:none;stroke:#263238;stroke-linecap:round;stroke-linejoin:round"></path><path d="M194.91,345.21c-1.57-2-3.15-4-4.67-6.09" style="fill:none;stroke:#263238;stroke-linecap:round;stroke-linejoin:round"></path><path d="M194.17,420.27c3.29,2.24,4.19,1.6,6-.23.06,1.31.82,1.69,1.94.8.88-4.39,1.37-8.78,2-13.26-2.68-2.75-6.11-6.77-10.41-5.53-3.28.95-5.55,4.51-6.94,7.53C187.82,412.71,192.34,419,194.17,420.27Z" style="fill:#92E3A9"></path><path d="M194.17,420.27c3.29,2.24,4.19,1.6,6-.23.06,1.31.82,1.69,1.94.8.88-4.39,1.37-8.78,2-13.26-2.68-2.75-6.11-6.77-10.41-5.53-3.28.95-5.55,4.51-6.94,7.53C187.82,412.71,192.34,419,194.17,420.27Z" style="opacity:0.12"></path><path d="M194.17,420.27c3.29,2.24,4.19,1.6,6-.23.06,1.31.82,1.69,1.94.8.88-4.39,1.37-8.78,2-13.26-2.68-2.75-6.11-6.77-10.41-5.53-3.28.95-5.55,4.51-6.94,7.53C187.82,412.71,192.34,419,194.17,420.27Z" style="fill:none;stroke:#263238;stroke-linecap:round;stroke-linejoin:round"></path><path d="M194,417a1.58,1.58,0,0,1,1.4-1.79,1.67,1.67,0,0,1,1.48,1.78c0,.83-.47,1.8-1.39,1.82S194,417.82,194,417Z" style="fill:#fff;stroke:#263238;stroke-linecap:round;stroke-linejoin:round"></path><path d="M194.68,417.23a.67.67,0,0,1,.61-.76.7.7,0,0,1,.65.75c0,.38-.2.8-.61.8A.74.74,0,0,1,194.68,417.23Z" style="fill:#263238"></path><path d="M194.13,396.75c1.45-.92,3-3.73,3.63-5s3.36-5.42,2-6.28-5.34-1.57-6.36.67-.9,7.08-1,9.74" style="fill:#92E3A9"></path><path d="M194.13,396.75c1.45-.92,3-3.73,3.63-5s3.36-5.42,2-6.28-5.34-1.57-6.36.67-.9,7.08-1,9.74" style="opacity:0.12"></path><path d="M194.13,396.75c1.45-.92,3-3.73,3.63-5s3.36-5.42,2-6.28-5.34-1.57-6.36.67-.9,7.08-1,9.74" style="fill:none;stroke:#263238;stroke-linecap:round;stroke-linejoin:round"></path><path d="M194.25,397.36a2.38,2.38,0,0,0-2.35-1.2c-.64.13-1.18.62-1,1.07" style="fill:none;stroke:#263238;stroke-linecap:round;stroke-linejoin:round"></path><path d="M194.1,396.8c1-2,2-4.11,3.07-6.15" style="fill:none;stroke:#263238;stroke-linecap:round;stroke-linejoin:round"></path><path d="M194.05,395.55a33.08,33.08,0,0,1,1.89-6.32" style="fill:none;stroke:#263238;stroke-linecap:round;stroke-linejoin:round"></path><path d="M193.35,396c0-1.13.05-2.25.08-3.37" style="fill:none;stroke:#263238;stroke-linecap:round;stroke-linejoin:round"></path><path d="M197.59,382.21c.11-5.22,3.32-18.52,4.26-21.43s-1.25-14-2.71-10.65-4,18.83-5.42,23.42S194,386.8,197.59,382.21Z" style="fill:#fff"></path><path d="M191.79,415.09a11.38,11.38,0,0,1-.77-5.57c.14-1.87,3.57-3.79,3.1-5.24s-2.75,1.13-3.61,2-2.25,3.77-1.55,5S191.21,416.12,191.79,415.09Z" style="fill:#fff"></path><path d="M187.38,403.89c-4.51-4.48-3.33-13.23-3.75-18.06s6.49-21.8,3.65-19.65-5.75,15.76-5.44,20.94.3,12.65,2.64,16.2S186.09,405.67,187.38,403.89Z" style="fill:#fff"></path><path d="M357.48,297.63s-7.15-7.05-7-9.47,1.23-13.1,5.29-20.89,8.6-11.3,8.6-11.3-4.54,13.85-5.28,20.69S357.48,297.63,357.48,297.63Z" style="fill:#92E3A9"></path><path d="M357.48,297.63s-7.15-7.05-7-9.47,1.23-13.1,5.29-20.89,8.6-11.3,8.6-11.3-4.54,13.85-5.28,20.69S357.48,297.63,357.48,297.63Z" style="opacity:0.12"></path><path d="M357.48,297.63s-7.15-7.05-7-9.47,1.23-13.1,5.29-20.89,8.6-11.3,8.6-11.3-4.54,13.85-5.28,20.69S357.48,297.63,357.48,297.63Z" style="fill:none;stroke:#263238;stroke-linecap:round;stroke-linejoin:round"></path><line x1="357" y1="293.47" x2="354" y2="290.75" style="fill:none;stroke:#263238;stroke-linecap:round;stroke-linejoin:round"></line><line x1="356.13" y1="289.36" x2="352.42" y2="286.41" style="fill:none;stroke:#263238;stroke-linecap:round;stroke-linejoin:round"></line><line x1="357.22" y1="287.24" x2="354.52" y2="285.38" style="fill:none;stroke:#263238;stroke-linecap:round;stroke-linejoin:round"></line><line x1="357.37" y1="283.03" x2="353.47" y2="280.06" style="fill:none;stroke:#263238;stroke-linecap:round;stroke-linejoin:round"></line><line x1="358.14" y1="276.67" x2="354.53" y2="274.73" style="fill:none;stroke:#263238;stroke-linecap:round;stroke-linejoin:round"></line><line x1="358.96" y1="273.33" x2="355.7" y2="271.52" style="fill:none;stroke:#263238;stroke-linecap:round;stroke-linejoin:round"></line><line x1="357.87" y1="269.58" x2="356.29" y2="268.72" style="fill:none;stroke:#263238;stroke-linecap:round;stroke-linejoin:round"></line><line x1="353.63" y1="284.94" x2="352.68" y2="284.22" style="fill:none;stroke:#263238;stroke-linecap:round;stroke-linejoin:round"></line><line x1="358.99" y1="265.9" x2="358.21" y2="265.29" style="fill:none;stroke:#263238;stroke-linecap:round;stroke-linejoin:round"></line><path d="M378.48,322.22s6.38-21.82,6.78-37.21-9-28.37-8.54-34.42c.17-2.19,1.45-3.88,5.07-6S387,239,388,236.24s.58-4.81-2.51-4.24-10.07,7.39-12.92,4.93.06-5.88-1.27-9.64-6.7.09-7,6.15,2.53,11.77,3.5,14.89-7.44,12-9,19.38-3.26,25.92,0,33.68,7.87,16,12.07,19.42,5.66.24,5.66.24S376.53,323.69,378.48,322.22Z" style="fill:#92E3A9;stroke:#263238;stroke-linecap:round;stroke-linejoin:round"></path><path d="M364.36,233.44c-.27,6.07,2.53,11.77,3.5,14.89a2.31,2.31,0,0,1,.07.48c1.69-1.86,3.12-7.07,5.76-6.36,3.33.91,2.73,6.19,2.73,6.19l.73.23c.63-1.44,2-2.75,4.64-4.31,3.62-2.15,5.22-5.56,6.25-8.32s.58-4.81-2.51-4.24-10.07,7.39-12.92,4.93.06-5.88-1.27-9.64S364.64,227.38,364.36,233.44Z" style="fill:#92E3A9"></path><path d="M364.36,233.44c-.27,6.07,2.53,11.77,3.5,14.89a2.31,2.31,0,0,1,.07.48c1.69-1.86,3.12-7.07,5.76-6.36,3.33.91,2.73,6.19,2.73,6.19l.73.23c.63-1.44,2-2.75,4.64-4.31,3.62-2.15,5.22-5.56,6.25-8.32s.58-4.81-2.51-4.24-10.07,7.39-12.92,4.93.06-5.88-1.27-9.64S364.64,227.38,364.36,233.44Z" style="opacity:0.12"></path><path d="M364.36,233.44c-.27,6.07,2.53,11.77,3.5,14.89a2.31,2.31,0,0,1,.07.48c1.69-1.86,3.12-7.07,5.76-6.36,3.33.91,2.73,6.19,2.73,6.19l.73.23c.63-1.44,2-2.75,4.64-4.31,3.62-2.15,5.22-5.56,6.25-8.32s.58-4.81-2.51-4.24-10.07,7.39-12.92,4.93.06-5.88-1.27-9.64S364.64,227.38,364.36,233.44Z" style="fill:none;stroke:#263238;stroke-linecap:round;stroke-linejoin:round"></path><line x1="376.78" y1="246.37" x2="381.52" y2="240.96" style="fill:none;stroke:#263238;stroke-linecap:round;stroke-linejoin:round"></line><line x1="376.09" y1="244.66" x2="378.43" y2="241.73" style="fill:none;stroke:#263238;stroke-linecap:round;stroke-linejoin:round"></line><line x1="375.14" y1="242.66" x2="377.04" y2="239.5" style="fill:none;stroke:#263238;stroke-linecap:round;stroke-linejoin:round"></line><line x1="373.69" y1="242.45" x2="374.04" y2="239.18" style="fill:none;stroke:#263238;stroke-linecap:round;stroke-linejoin:round"></line><line x1="371.06" y1="243.16" x2="370.34" y2="239.53" style="fill:none;stroke:#263238;stroke-linecap:round;stroke-linejoin:round"></line><line x1="369.49" y1="245.7" x2="366.42" y2="239.13" style="fill:none;stroke:#263238;stroke-linecap:round;stroke-linejoin:round"></line><path d="M370.88,320.81c4.19,3.37,5.66.24,5.66.24s0,2.64,1.94,1.17c0,0,1.45-5,3-11.83-1.16-1.29-5.38-5.52-10.23-4.41a11.5,11.5,0,0,0-7.5,5.52C366.05,315.51,368.53,318.92,370.88,320.81Z" style="fill:#92E3A9"></path><path d="M370.88,320.81c4.19,3.37,5.66.24,5.66.24s0,2.64,1.94,1.17c0,0,1.45-5,3-11.83-1.16-1.29-5.38-5.52-10.23-4.41a11.5,11.5,0,0,0-7.5,5.52C366.05,315.51,368.53,318.92,370.88,320.81Z" style="opacity:0.12"></path><path d="M370.88,320.81c4.19,3.37,5.66.24,5.66.24s0,2.64,1.94,1.17c0,0,1.45-5,3-11.83-1.16-1.29-5.38-5.52-10.23-4.41a11.5,11.5,0,0,0-7.5,5.52C366.05,315.51,368.53,318.92,370.88,320.81Z" style="fill:none;stroke:#263238;stroke-linecap:round;stroke-linejoin:round"></path><path d="M370.55,317.3a1.46,1.46,0,1,1,1.34,1.58A1.46,1.46,0,0,1,370.55,317.3Z" style="fill:#fff;stroke:#263238;stroke-linecap:round;stroke-linejoin:round"></path><path d="M371.26,317.54A.64.64,0,0,1,372,317a.62.62,0,0,1,.59.68.63.63,0,0,1-.69.59A.64.64,0,0,1,371.26,317.54Z" style="fill:#263238"></path><path d="M371.6,300.4s1.78-1.6,3.45-6.43,2.31-7.16,1.69-7.48-6-1.12-6.59.85-.4,11-.28,11.82" style="fill:#92E3A9"></path><path d="M371.6,300.4s1.78-1.6,3.45-6.43,2.31-7.16,1.69-7.48-6-1.12-6.59.85-.4,11-.28,11.82" style="opacity:0.12"></path><path d="M371.6,300.4s1.78-1.6,3.45-6.43,2.31-7.16,1.69-7.48-6-1.12-6.59.85-.4,11-.28,11.82" style="fill:none;stroke:#263238;stroke-linecap:round;stroke-linejoin:round"></path><path d="M371.82,301.15s-1.2-2.29-2.61-1.76-.83,1.13-.83,1.13" style="fill:none;stroke:#263238;stroke-linecap:round;stroke-linejoin:round"></path><path d="M371.6,300.4s1.91-5.54,2.71-7.59" style="fill:none;stroke:#263238;stroke-linecap:round;stroke-linejoin:round"></path><path d="M371.46,298.74s.73-5.73,1.52-7.59" style="fill:none;stroke:#263238;stroke-linecap:round;stroke-linejoin:round"></path><line x1="370.78" y1="299.24" x2="370.65" y2="295.09" style="fill:none;stroke:#263238;stroke-linecap:round;stroke-linejoin:round"></line><path d="M374.27,283.14s.06-12-.26-22.13-.18-12.07-1.39-11.11-3.36,15.14-3,24.46S371.83,288.17,374.27,283.14Z" style="fill:#fff"></path><path d="M368.55,315.81a6.8,6.8,0,0,1-.4-4.22c.61-2,3.9-3.32,3.66-3.82s-1.69-.35-3.82,1.24-2.55,2.7-1.93,4.05S368.46,317.18,368.55,315.81Z" style="fill:#fff"></path><path d="M364.59,306.6s-5-6-4.37-19.93,2.85-20.41,1.68-19.87-3.51,12.4-3.46,21.39,1.45,14.73,3.43,17.89S364,308.46,364.59,306.6Z" style="fill:#fff"></path><path d="M336,361.31c3.79-2.84,5.47-7,11.34-7.52s15.5,2.42,20.26,6.47,6.59,7.86,9.41,12.82c-6-4.4-11.29-9.32-18.52-11.46S343.51,360.39,336,361.31Z" style="fill:#92E3A9"></path><path d="M336,361.31c3.79-2.84,5.47-7,11.34-7.52s15.5,2.42,20.26,6.47,6.59,7.86,9.41,12.82c-6-4.4-11.29-9.32-18.52-11.46S343.51,360.39,336,361.31Z" style="opacity:0.12"></path><path d="M336,361.31c3.79-2.84,5.47-7,11.34-7.52s15.5,2.42,20.26,6.47,6.59,7.86,9.41,12.82c-6-4.4-11.29-9.32-18.52-11.46S343.51,360.39,336,361.31Z" style="fill:none;stroke:#263238;stroke-linecap:round;stroke-linejoin:round"></path><path d="M340.66,360.1a40.31,40.31,0,0,1,3.16-3.11" style="fill:none;stroke:#263238;stroke-linecap:round;stroke-linejoin:round"></path><path d="M345.21,358.76q1.77-1.75,3.53-3.52" style="fill:none;stroke:#263238;stroke-linecap:round;stroke-linejoin:round"></path><path d="M347.48,359.49c.74-.83,1.47-1.68,2.23-2.49" style="fill:none;stroke:#263238;stroke-linecap:round;stroke-linejoin:round"></path><path d="M352,359.51q1.74-1.69,3.53-3.34" style="fill:none;stroke:#263238;stroke-linecap:round;stroke-linejoin:round"></path><path d="M358.64,360.68c.75-1,1.54-2,2.32-3" style="fill:none;stroke:#263238;stroke-linecap:round;stroke-linejoin:round"></path><path d="M361.88,362.06c.69-.88,1.38-1.75,2.09-2.61" style="fill:none;stroke:#263238;stroke-linecap:round;stroke-linejoin:round"></path><path d="M365.65,361.85c.32-.44.65-.87,1-1.33" style="fill:none;stroke:#263238;stroke-linecap:round;stroke-linejoin:round"></path><path d="M350.25,356.24l.85-.82" style="fill:none;stroke:#263238;stroke-linecap:round;stroke-linejoin:round"></path><path d="M368.83,364.05l.59-.72" style="fill:none;stroke:#263238;stroke-linecap:round;stroke-linejoin:round"></path><path d="M316.86,391.1c11.7-1.41,24.92-3.75,36.3-4.45s20.31,2.93,31.1,2.3c3.9-.23,5.81-1.2,9.92-2.38s8.18-7.29,10-10.55.95-4.43-1.31-4.79-8.79,9.71-8.81,5.6,4.48-2.79,6.11-6.16-3.79-4.05-7.09-2.17-5.08,8.5-9.53,9.35-10.07-10.63-17.15-14.91-26-4.75-33.89.36a47.13,47.13,0,0,0-16.4,19.13c-2.37,5.59-.5,3.9,1.12,6.51C316.12,389.16,315.67,390.2,316.86,391.1Z" style="fill:#92E3A9;stroke:#263238;stroke-linecap:round;stroke-linejoin:round"></path><path d="M393.15,368.58c-3,2.3-5.95,7.31-9.38,9.64a.91.91,0,0,1-.4.14c1.71,1.59,6.57.67,7.17,3,.77,2.92-1.94,5.26-4.26,6.5,0,.24.11.45.09.68a43.89,43.89,0,0,0,7.76-1.88c4.32-1.51,8.16-7.24,10-10.6s.93-4.42-1.31-4.8-8.81,9.68-8.79,5.6,4.39-2.91,6.12-6.14S396.13,366.28,393.15,368.58Z" style="fill:#92E3A9"></path><path d="M393.15,368.58c-3,2.3-5.95,7.31-9.38,9.64a.91.91,0,0,1-.4.14c1.71,1.59,6.57.67,7.17,3,.77,2.92-1.94,5.26-4.26,6.5,0,.24.11.45.09.68a43.89,43.89,0,0,0,7.76-1.88c4.32-1.51,8.16-7.24,10-10.6s.93-4.42-1.31-4.8-8.81,9.68-8.79,5.6,4.39-2.91,6.12-6.14S396.13,366.28,393.15,368.58Z" style="opacity:0.12"></path><path d="M393.15,368.58c-3,2.3-5.95,7.31-9.38,9.64a.91.91,0,0,1-.4.14c1.71,1.59,6.57.67,7.17,3,.77,2.92-1.94,5.26-4.26,6.5,0,.24.11.45.09.68a43.89,43.89,0,0,0,7.76-1.88c4.32-1.51,8.16-7.24,10-10.6s.93-4.42-1.31-4.8-8.81,9.68-8.79,5.6,4.39-2.91,6.12-6.14S396.13,366.28,393.15,368.58Z" style="fill:none;stroke:#263238;stroke-linecap:round;stroke-linejoin:round"></path><path d="M388.82,386.56c2.85-.23,5.47-2.17,7.54-4" style="fill:none;stroke:#263238;stroke-linecap:round;stroke-linejoin:round"></path><path d="M390,384.71a16.7,16.7,0,0,0,3.64-1.68" style="fill:none;stroke:#263238;stroke-linecap:round;stroke-linejoin:round"></path><path d="M391.2,382.43a10,10,0,0,0,3.06-2" style="fill:none;stroke:#263238;stroke-linecap:round;stroke-linejoin:round"></path><path d="M390.67,381.31c.8-.74,1.55-1.5,2.33-2.27" style="fill:none;stroke:#263238;stroke-linecap:round;stroke-linejoin:round"></path><path d="M389.09,379.7a18.43,18.43,0,0,0,2.28-2.78" style="fill:none;stroke:#263238;stroke-linecap:round;stroke-linejoin:round"></path><path d="M386.51,379.36a28.26,28.26,0,0,0,3.71-6.24" style="fill:none;stroke:#263238;stroke-linecap:round;stroke-linejoin:round"></path><path d="M315.88,382.82c-1.14,3.52-1,4.71,1.4,6-1.25.42-1.52,1.29-.46,2.25,4.06-.44,8-1.09,12.08-1.86,1.78-3.78,3.07-7.71,1-11.66a10,10,0,0,0-7.56-5.28A42.68,42.68,0,0,0,315.88,382.82Z" style="fill:#92E3A9"></path><path d="M315.88,382.82c-1.14,3.52-1,4.71,1.4,6-1.25.42-1.52,1.29-.46,2.25,4.06-.44,8-1.09,12.08-1.86,1.78-3.78,3.07-7.71,1-11.66a10,10,0,0,0-7.56-5.28A42.68,42.68,0,0,0,315.88,382.82Z" style="opacity:0.12"></path><path d="M315.88,382.82c-1.14,3.52-1,4.71,1.4,6-1.25.42-1.52,1.29-.46,2.25,4.06-.44,8-1.09,12.08-1.86,1.78-3.78,3.07-7.71,1-11.66a10,10,0,0,0-7.56-5.28A42.68,42.68,0,0,0,315.88,382.82Z" style="fill:none;stroke:#263238;stroke-linecap:round;stroke-linejoin:round"></path><path d="M318.85,381.8a1.37,1.37,0,0,1,1.77,1,1.53,1.53,0,0,1-1,1.88,1.34,1.34,0,0,1-1.74-1A1.47,1.47,0,0,1,318.85,381.8Z" style="fill:#fff;stroke:#263238;stroke-linecap:round;stroke-linejoin:round"></path><path d="M318.86,382.6a.65.65,0,0,1,.32,1.26.61.61,0,0,1-.76-.46A.64.64,0,0,1,318.86,382.6Z" style="fill:#263238"></path><path d="M335.62,375.91c1.6,1,5.39,1.53,6.9,1.72s7.05,1.9,7.4.34.16-5.93-2.47-6.42-8.25,1.2-11.05,2.19" style="fill:#92E3A9"></path><path d="M335.62,375.91c1.6,1,5.39,1.53,6.9,1.72s7.05,1.9,7.4.34.16-5.93-2.47-6.42-8.25,1.2-11.05,2.19" style="opacity:0.12"></path><path d="M335.62,375.91c1.6,1,5.39,1.53,6.9,1.72s7.05,1.9,7.4.34.16-5.93-2.47-6.42-8.25,1.2-11.05,2.19" style="fill:none;stroke:#263238;stroke-linecap:round;stroke-linejoin:round"></path><path d="M334.87,376.33a3,3,0,0,0,1.07-3c-.37-.79-.87-.93-1.36-.59" style="fill:none;stroke:#263238;stroke-linecap:round;stroke-linejoin:round"></path><path d="M335.55,375.9a48.25,48.25,0,0,1,8.05.78" style="fill:none;stroke:#263238;stroke-linecap:round;stroke-linejoin:round"></path><path d="M337.13,375.24a28.33,28.33,0,0,1,7.69-.27" style="fill:none;stroke:#263238;stroke-linecap:round;stroke-linejoin:round"></path><path d="M336.46,374.7c1.31-.46,2.68-.85,4-1.22" style="fill:none;stroke:#263238;stroke-linecap:round;stroke-linejoin:round"></path><path d="M352.42,374.94c5.6-2,17.7,6.2,20.16,7.74s13.8,4.3,10.22,1.5-18.18-11-22.45-13.35S346.27,372.46,352.42,374.94Z" style="fill:#fff"></path><path d="M319.59,379.08a7.27,7.27,0,0,1,4-2.28c1.54-.34,3.77,2.65,4.75,1.83s-1.42-2.49-2.38-3.28-3.46-1.3-4.32-.2S318.58,378.77,319.59,379.08Z" style="fill:#fff"></path><path d="M327.54,371.12c3.9-6.21,14.31-8.46,20.09-8.92s19.25,10.42,19,4.61-15-6.34-20.34-6.14-15.3,3.78-18.31,7.08S325.35,370.37,327.54,371.12Z" style="fill:#fff"></path><path d="M169.88,248.39c-4.45-1.61-8.84-.73-12.5-5.35s-6.5-14.28-5.73-20.48,2.95-9.83,5.55-14.91c-.39,7.42-1.59,14.56.6,21.77S165,242.64,169.88,248.39Z" style="fill:#92E3A9"></path><path d="M169.88,248.39c-4.45-1.61-8.84-.73-12.5-5.35s-6.5-14.28-5.73-20.48,2.95-9.83,5.55-14.91c-.39,7.42-1.59,14.56.6,21.77S165,242.64,169.88,248.39Z" style="opacity:0.12"></path><path d="M169.88,248.39c-4.45-1.61-8.84-.73-12.5-5.35s-6.5-14.28-5.73-20.48,2.95-9.83,5.55-14.91c-.39,7.42-1.59,14.56.6,21.77S165,242.64,169.88,248.39Z" style="fill:none;stroke:#263238;stroke-linecap:round;stroke-linejoin:round"></path><path d="M166.34,245.19a43,43,0,0,1-4.34-.93" style="fill:none;stroke:#263238;stroke-linecap:round;stroke-linejoin:round"></path><path d="M162.72,242.12l-4.88-1" style="fill:none;stroke:#263238;stroke-linecap:round;stroke-linejoin:round"></path><path d="M162.08,239.82c-1.1-.16-2.2-.3-3.3-.5" style="fill:none;stroke:#263238;stroke-linecap:round;stroke-linejoin:round"></path><path d="M159.6,236c-1.58-.36-3.16-.73-4.73-1.12" style="fill:none;stroke:#263238;stroke-linecap:round;stroke-linejoin:round"></path><path d="M157,229.85c-1.26-.08-2.51-.2-3.76-.31" style="fill:none;stroke:#263238;stroke-linecap:round;stroke-linejoin:round"></path><path d="M156.32,226.38c-1.11-.09-2.22-.19-3.33-.31" style="fill:none;stroke:#263238;stroke-linecap:round;stroke-linejoin:round"></path><path d="M154.08,223.35c-.55,0-1.09-.07-1.63-.07" style="fill:none;stroke:#263238;stroke-linecap:round;stroke-linejoin:round"></path><path d="M157.85,239.3l-1.16-.27" style="fill:none;stroke:#263238;stroke-linecap:round;stroke-linejoin:round"></path><path d="M154.17,219.48l-.93-.1" style="fill:none;stroke:#263238;stroke-linecap:round;stroke-linejoin:round"></path><path d="M205.31,248.05c-7.6-9-16.82-18.77-23.65-27.89S173,201.58,166.5,192.91c-2.34-3.14-4.19-4.19-7.44-7s-10.58-2.82-14.31-2.55-4.22,1.64-3.28,3.73,12.94,2,9.51,4.28-4.79-2.21-8.5-1.72-1.3,5.39,2.08,7.11,9.9-.42,13.05,2.83-3.35,14.25-3,22.52,10.29,24.3,18.91,28.12a47.09,47.09,0,0,0,25,3.2c6-1.1,3.54-1.72,4.83-4.51C204.1,249.73,205.21,249.54,205.31,248.05Z" style="fill:#92E3A9;stroke:#263238;stroke-linecap:round;stroke-linejoin:round"></path><path d="M144.6,196.67c3.56,1.23,9.36,1,13.2,2.55a1,1,0,0,1,.34.25c.39-2.3-3-5.86-1.45-7.63,2-2.24,5.46-1.27,7.78,0,.2-.12.31-.33.51-.44a43.83,43.83,0,0,0-5.83-5.46c-3.64-2.77-10.53-2.84-14.37-2.57s-4.21,1.66-3.3,3.73,12.93,2,9.51,4.28-4.84-2.08-8.5-1.75S141,195.44,144.6,196.67Z" style="fill:#92E3A9"></path><path d="M144.6,196.67c3.56,1.23,9.36,1,13.2,2.55a1,1,0,0,1,.34.25c.39-2.3-3-5.86-1.45-7.63,2-2.24,5.46-1.27,7.78,0,.2-.12.31-.33.51-.44a43.83,43.83,0,0,0-5.83-5.46c-3.64-2.77-10.53-2.84-14.37-2.57s-4.21,1.66-3.3,3.73,12.93,2,9.51,4.28-4.84-2.08-8.5-1.75S141,195.44,144.6,196.67Z" style="opacity:0.12"></path><path d="M144.6,196.67c3.56,1.23,9.36,1,13.2,2.55a1,1,0,0,1,.34.25c.39-2.3-3-5.86-1.45-7.63,2-2.24,5.46-1.27,7.78,0,.2-.12.31-.33.51-.44a43.83,43.83,0,0,0-5.83-5.46c-3.64-2.77-10.53-2.84-14.37-2.57s-4.21,1.66-3.3,3.73,12.93,2,9.51,4.28-4.84-2.08-8.5-1.75S141,195.44,144.6,196.67Z" style="fill:none;stroke:#263238;stroke-linecap:round;stroke-linejoin:round"></path><path d="M162,190.41c-1.75-2.26-4.81-3.38-7.46-4.11" style="fill:none;stroke:#263238;stroke-linecap:round;stroke-linejoin:round"></path><path d="M159.78,190.41a16.4,16.4,0,0,0-3.4-2.12" style="fill:none;stroke:#263238;stroke-linecap:round;stroke-linejoin:round"></path><path d="M157.24,190.69a9.86,9.86,0,0,0-3.33-1.47" style="fill:none;stroke:#263238;stroke-linecap:round;stroke-linejoin:round"></path><path d="M156.59,191.75c-1.06-.26-2.11-.47-3.17-.7" style="fill:none;stroke:#263238;stroke-linecap:round;stroke-linejoin:round"></path><path d="M156.12,194a17.28,17.28,0,0,0-3.58-.38" style="fill:none;stroke:#263238;stroke-linecap:round;stroke-linejoin:round"></path><path d="M157.25,196.3a27.62,27.62,0,0,0-7.26.33" style="fill:none;stroke:#263238;stroke-linecap:round;stroke-linejoin:round"></path><path d="M198.93,253.42c3.58-1,4.49-1.77,4.28-4.49,1,.81,1.91.57,2.13-.85-2.6-3.15-5.33-6.12-8.19-9.07-4.13.59-8.13,1.67-10.3,5.56a10,10,0,0,0-.26,9.21A42.8,42.8,0,0,0,198.93,253.42Z" style="fill:#92E3A9"></path><path d="M198.93,253.42c3.58-1,4.49-1.77,4.28-4.49,1,.81,1.91.57,2.13-.85-2.6-3.15-5.33-6.12-8.19-9.07-4.13.59-8.13,1.67-10.3,5.56a10,10,0,0,0-.26,9.21A42.8,42.8,0,0,0,198.93,253.42Z" style="opacity:0.12"></path><path d="M198.93,253.42c3.58-1,4.49-1.77,4.28-4.49,1,.81,1.91.57,2.13-.85-2.6-3.15-5.33-6.12-8.19-9.07-4.13.59-8.13,1.67-10.3,5.56a10,10,0,0,0-.26,9.21A42.8,42.8,0,0,0,198.93,253.42Z" style="fill:none;stroke:#263238;stroke-linecap:round;stroke-linejoin:round"></path><path d="M196.46,251.5a1.36,1.36,0,0,1-.16-2,1.53,1.53,0,0,1,2.14-.17,1.35,1.35,0,0,1,.11,2A1.48,1.48,0,0,1,196.46,251.5Z" style="fill:#fff;stroke:#263238;stroke-linecap:round;stroke-linejoin:round"></path><path d="M197.12,251.05a.64.64,0,0,1,0-.9.64.64,0,0,1,.9-.06.6.6,0,0,1,0,.88A.64.64,0,0,1,197.12,251.05Z" style="fill:#263238"></path><path d="M182.32,240.71c0-1.89-1.68-5.34-2.36-6.71s-2.28-6.93-3.78-6.36-5,3.12-4,5.58,5.55,6.24,7.9,8" style="fill:#92E3A9"></path><path d="M182.32,240.71c0-1.89-1.68-5.34-2.36-6.71s-2.28-6.93-3.78-6.36-5,3.12-4,5.58,5.55,6.24,7.9,8" style="opacity:0.12"></path><path d="M182.32,240.71c0-1.89-1.68-5.34-2.36-6.71s-2.28-6.93-3.78-6.36-5,3.12-4,5.58,5.55,6.24,7.9,8" style="fill:none;stroke:#263238;stroke-linecap:round;stroke-linejoin:round"></path><path d="M183.08,241.11a3,3,0,0,0-3.13.78c-.45.74-.29,1.24.26,1.46" style="fill:none;stroke:#263238;stroke-linecap:round;stroke-linejoin:round"></path><path d="M182.35,240.78a48.79,48.79,0,0,1-3.77-7.15" style="fill:none;stroke:#263238;stroke-linecap:round;stroke-linejoin:round"></path><path d="M180.93,239.82a28.1,28.1,0,0,1-4.45-6.27" style="fill:none;stroke:#263238;stroke-linecap:round;stroke-linejoin:round"></path><path d="M180.85,240.68c-1.11-.84-2.19-1.77-3.23-2.69" style="fill:none;stroke:#263238;stroke-linecap:round;stroke-linejoin:round"></path><path d="M172.28,227.22c-4.78-3.57-4.54-18.2-4.6-21.11s-4-13.89-4.36-9.36.8,21.22,1.17,26.09S173.58,233.71,172.28,227.22Z" style="fill:#fff"></path><path d="M193.78,252.37a7.29,7.29,0,0,1-4.09-2.06c-1.12-1.1.15-4.6-1.08-5s-1.3,2.55-1.43,3.79.82,3.6,2.2,3.72S194.07,253.39,193.78,252.37Z" style="fill:#fff"></path><path d="M182.75,250.1c-7.32.16-14.93-7.31-18.48-11.89s-1.87-21.8-6.57-18.37,3,16,6,20.37,11.57,10.71,16,11.41S183.33,252.34,182.75,250.1Z" style="fill:#fff"></path><path d="M427.87,370.78h0a38.93,38.93,0,0,1-.58,7.42,17.89,17.89,0,0,1-1.09,3.59,18.92,18.92,0,0,1-4.71,6.5h0a30.53,30.53,0,0,1-5,3.67c-4.63,2.83-9.84,4.83-13.79,7.08a16.16,16.16,0,0,0-5,3.9,47.12,47.12,0,0,1-5.3,5.85,55.24,55.24,0,0,1-12,8.45,74.5,74.5,0,0,1-12.68,5.24c-.86.27-1.73.51-2.6.71-6.78,1.62-13.77,1.39-22,.86l-2.94-.2h0c-6.31-.42-13.35-.92-21.54-.84-3,0-6.19.13-9.53.33l-1.64.11h0c-3.14.23-6.51.56-10.09,1h0c-6.07.68-12.73,1.55-19.95,2.41-4.81.58-9.85,1.16-15.13,1.68h0c-1.68.17-3.39.34-5.12.49-6.78.61-13.9,1.1-21.32,1.36h0q-5.85.22-11.93.23c-3.65,0-7.36-.06-11.14-.2h0q-9.3-.31-19-1.31c-2.27-.24-4.56-.5-6.87-.81h0c-2.34-.3-4.7-.63-7.08-1q-5.81-.91-11.06-2h0q-6.71-1.31-12.56-2.78h0c-3.22-.8-6.24-1.62-9.1-2.46a176.3,176.3,0,0,1-18.61-6.58A107,107,0,0,1,113,405.55a42.94,42.94,0,0,1-6.49-4.76,9.77,9.77,0,0,1-1.75.23h0a49.8,49.8,0,0,1-12.36-1.17h0c-1.15-.23-2.36-.49-3.67-.8a41.4,41.4,0,0,1-14-6.18h0a32.26,32.26,0,0,1-5.94-5.1L70.35,380l.93-4.33,2.54-11.93.67-3.16,2.79-13.08.43-2h0l3-14.23.18-.85h0l3.22-15.08.06-.32h0l3.14-14.77h0l.31-1.46h0l2.9-13.62.56-2.63,2.65-12.46h0l.81-3.79L97,255l1-5,2.16-10.13,1.31-6.12,1.91-9L105,217.5l1.66-7.82,1.8-8.44,1.42-6.65,2-9.59,1.17-5.5,2.3-10.75.92-4.34,2.54-11.92.68-3.17,3.21-15.09,1.1-5.16a14.28,14.28,0,0,1,7.55-5.81c4.3-1.42,7.61-.19,3.82,2.49a.84.84,0,0,0-.23.23c-1.11,1.6,1.32,7.82,6.53,16.59,2.07,3.46,4.56,7.33,7.44,11.47l.09.13c2.45,3.5,5.17,7.2,8.13,11h0c2.74,3.54,5.71,7.18,8.86,10.85,3,3.51,6.18,7.05,9.52,10.57s6.68,6.89,10.22,10.26h0c3.56,3.39,7.25,6.7,11,9.89s8,6.46,12.09,9.44c4.41,3.18,8.93,6.14,13.52,8.82a129.44,129.44,0,0,0,15.73,7.84h0a93.09,93.09,0,0,0,20.19,5.89h0c.92.15,1.84.28,2.76.4a69.94,69.94,0,0,0,9,.59c4.77,0,9.47-.21,14.07-.62q4.77-.41,9.4-1.08c3.39-.48,6.72-1.07,10-1.74,6-1.21,11.78-2.72,17.3-4.42s10.76-3.59,15.73-5.6c5.15-2.09,10-4.3,14.48-6.56,4.87-2.45,9.34-5,13.35-7.4,4.75-2.9,8.86-5.72,12.23-8.26,2.48-1.88,4.56-3.6,6.21-5.12h0a23.55,23.55,0,0,0,4.12-4.55,2.53,2.53,0,0,0,.34-.84c.83-5.56,5.18-9.81,8.22-8.07,1.11.64,2.24,3.33,3.23,6.49a125.65,125.65,0,0,1,3,12.38s0,.35,0,1a2.17,2.17,0,0,1,0,.26c0,2.27.16,7.4.46,14.27.05,1.19.1,2.43.16,3.72h0c.15,3.29.35,6.88.6,10.67h0c.16,2.5.34,5.08.55,7.72q.24,3.21.53,6.53c.37,4.07.79,8.23,1.27,12.37h0c.06.57.12,1.15.2,1.72.56,4.71,1.22,9.38,2,13.87q.35,2.1.72,4.14c.61,3.28,1.28,6.42,2,9.39.41,1.67.84,3.29,1.29,4.83.71,2.45,1.43,4.93,2.14,7.43.09.29.17.58.25.87,1.24,4.34,2.46,8.75,3.64,13.14.73,2.7,1.43,5.39,2.12,8.07q.66,2.61,1.28,5.18c1.13,4.58,2.16,9.07,3.06,13.39.19.9.37,1.78.54,2.66.77,3.84,1.42,7.53,1.92,11,.46,3.1.81,6,1,8.75C427.78,367.27,427.86,369.08,427.87,370.78Z" style="fill:none;stroke:#263238;stroke-linecap:round;stroke-linejoin:round"></path><path d="M117.06,120.26s-2.69,2.81-2.69,4.85,2.94,7.15,5.75,8.43,4.22.13,4.34-.64a9.17,9.17,0,0,0-.64-3.83c-.38-.51-2-3.19-3.32-5.62S117.69,119,117.06,120.26Z" style="fill:#d4d4d4;stroke:#263238;stroke-linecap:round;stroke-linejoin:round"></path><path d="M122,113.23s-4.73,3.45-5.11,5,1.53,8.3,2.81,10.08,4.85,3.33,5.49,3.2,2.94-2.43,2.81-3.58a7.28,7.28,0,0,0-1.15-3.19c-.51-.64-2-4.85-2.81-6.39S122,113.23,122,113.23Z" style="fill:#d4d4d4;stroke:#263238;stroke-linecap:round;stroke-linejoin:round"></path><path d="M127.4,109.53s-4.47,1.66-5.75,2.81.77,9.32,1.15,10.86,5,4.21,6.39,4.72,3.57.26,3.83-1.28a7.4,7.4,0,0,0,0-3.44c-.26-.64-3.07-7.92-3.83-9.84S127.4,109.53,127.4,109.53Z" style="fill:#d4d4d4;stroke:#263238;stroke-linecap:round;stroke-linejoin:round"></path><path d="M131.49,106.34s-4,.76-4.47,2,1.79,9.58,2.55,11.5,4.85,5.74,5.62,5.87a4.48,4.48,0,0,0,3.58-1.53c.76-1.15.12-5,0-6.26s2.68-8.94,1.27-9.32S133.15,106.47,131.49,106.34Z" style="fill:#d4d4d4;stroke:#263238;stroke-linecap:round;stroke-linejoin:round"></path><path d="M152.82,137.76s-.26-14-1.79-17.76-4.6-10.6-6.26-10.72-7.15.25-10.6.25-8.3.26-8.43,2,1.79,3.71,4,4.6,7.92.51,7.92.51-2.05,11.62.13,16.09a18.44,18.44,0,0,0,6.64,7" style="fill:#d4d4d4;stroke:#263238;stroke-linecap:round;stroke-linejoin:round"></path><polyline points="118.83 152.49 121.91 151.14 136.56 144.73 136.57 144.73 141.49 142.57" style="fill:none;stroke:#263238;stroke-linecap:round;stroke-linejoin:round;stroke-width:0.5px"></polyline><polyline points="115.37 168.75 119.58 166.9 134.23 160.48 148.89 154.07 148.93 154.04" style="fill:none;stroke:#263238;stroke-linecap:round;stroke-linejoin:round;stroke-width:0.5px"></polyline><polyline points="111.9 185 117.25 182.66 131.9 176.24 146.56 169.83 157.15 165.18 157.16 165.18" style="fill:none;stroke:#263238;stroke-linecap:round;stroke-linejoin:round;stroke-width:0.5px"></polyline><polyline points="166.02 176.03 158.87 179.16 144.21 185.58 129.56 192 114.9 198.41 108.44 201.24" style="fill:none;stroke:#263238;stroke-linecap:round;stroke-linejoin:round;stroke-width:0.5px"></polyline><polyline points="104.98 217.5 112.57 214.17 127.23 207.76 141.88 201.34 156.54 194.92 171.19 188.5 175.54 186.6" style="fill:none;stroke:#263238;stroke-linecap:round;stroke-linejoin:round;stroke-width:0.5px"></polyline><polyline points="185.77 196.86 185.76 196.86 183.51 197.84 168.86 204.26 154.2 210.68 139.55 217.1 124.89 223.51 110.23 229.93 101.52 233.75" style="fill:none;stroke:#263238;stroke-linecap:round;stroke-linejoin:round;stroke-width:0.5px"></polyline><polyline points="98.05 250 107.89 245.69 122.55 239.27 137.21 232.85 151.87 226.43 166.52 220.01 181.18 213.6 195.83 207.18 196.81 206.75" style="fill:none;stroke:#263238;stroke-linecap:round;stroke-linejoin:round;stroke-width:0.5px"></polyline><polyline points="208.9 216.19 208.15 216.52 193.5 222.93 193.49 222.93 178.84 229.35 164.19 235.77 149.53 242.19 134.87 248.61 120.22 255.03 105.56 261.45 94.59 266.25" style="fill:none;stroke:#263238;stroke-linecap:round;stroke-linejoin:round;stroke-width:0.5px"></polyline><line x1="88.58" y1="283.63" x2="88.57" y2="283.63" style="fill:none;stroke:#263238;stroke-linecap:round;stroke-linejoin:round;stroke-width:0.5px"></line><polyline points="91.13 282.51 103.23 277.21 117.89 270.79 132.54 264.37 147.2 257.95 161.86 251.53 176.51 245.11 191.16 238.69 191.17 238.69 205.82 232.28 220.48 225.86 222.42 225.01" style="fill:none;stroke:#263238;stroke-linecap:round;stroke-linejoin:round;stroke-width:0.5px"></polyline><polyline points="238.16 232.85 238.15 232.85 232.79 235.19 218.14 241.61 203.48 248.03 188.83 254.45 174.17 260.87 159.51 267.29 144.86 273.71 130.21 280.13 130.2 280.13 115.55 286.54 100.89 292.96 87.67 298.76 87.66 298.76 87.66 298.76" style="fill:none;stroke:#263238;stroke-linecap:round;stroke-linejoin:round;stroke-width:0.5px"></polyline><line x1="69.25" y1="321.55" x2="69.24" y2="321.55" style="fill:none;stroke:#263238;stroke-linecap:round;stroke-linejoin:round;stroke-width:0.5px"></line><polyline points="83.9 315.14 84.2 315 84.21 315 98.56 308.72 113.21 302.3 127.87 295.88 142.52 289.46 157.18 283.05 171.83 276.63 186.49 270.21 186.5 270.21 201.15 263.79 215.8 257.37 230.46 250.95 245.11 244.53 258.35 238.74 258.36 238.74 258.35 238.74" style="fill:none;stroke:#263238;stroke-linecap:round;stroke-linejoin:round;stroke-width:0.5px"></polyline><polyline points="80.74 331.26 81.57 330.89 96.22 324.48 110.88 318.06 125.53 311.64 140.19 305.22 154.84 298.8 169.5 292.38 184.15 285.97 184.16 285.97 198.82 279.55 213.47 273.13 228.13 266.71 242.78 260.29 257.43 253.87 272.09 247.46 286.75 241.04 293.61 238.03" style="fill:none;stroke:#263238;stroke-linecap:round;stroke-linejoin:round;stroke-width:0.5px"></polyline><polyline points="398.83 191.95 389.33 196.11 382.92 198.92 382.9 198.93" style="fill:none;stroke:#263238;stroke-linecap:round;stroke-linejoin:round;stroke-width:0.5px"></polyline><line x1="64.58" y1="353.08" x2="64.57" y2="353.08" style="fill:none;stroke:#263238;stroke-linecap:round;stroke-linejoin:round;stroke-width:0.5px"></line><polyline points="401.86 205.35 401.65 205.45 386.99 211.86 372.34 218.28 357.69 224.7 343.03 231.12 328.37 237.54 313.72 243.96 299.07 250.37 299.06 250.37 284.41 256.79 269.75 263.21 255.1 269.63 240.45 276.05 225.79 282.47 211.14 288.89 211.13 288.89 196.48 295.31 181.82 301.72 167.17 308.14 152.51 314.56 137.86 320.98 123.2 327.4 108.55 333.82 93.89 340.24 79.24 346.65 77.28 347.51" style="fill:none;stroke:#263238;stroke-linecap:round;stroke-linejoin:round;stroke-width:0.5px"></polyline><polyline points="73.82 363.75 76.89 362.41 91.55 355.99 106.21 349.57 120.86 343.15 135.51 336.73 135.52 336.73 150.17 330.32 164.83 323.9 179.48 317.48 194.14 311.06 208.79 304.64 223.45 298.22 238.11 291.8 252.76 285.39 252.77 285.39 267.42 278.97 282.07 272.55 296.73 266.13 311.38 259.71 326.04 253.29 340.69 246.88 355.35 240.46 370.01 234.04 384.66 227.62 399.32 221.2 402.33 219.88" style="fill:none;stroke:#263238;stroke-linecap:round;stroke-linejoin:round;stroke-width:0.5px"></polyline><polyline points="403.1 234.28 403.1 234.29 396.99 236.96 382.33 243.38 367.68 249.8 353.02 256.22 338.36 262.64 323.71 269.05 309.05 275.47 294.4 281.89 279.74 288.31 265.09 294.73 250.44 301.15 250.43 301.15 235.78 307.56 221.12 313.98 206.46 320.4 191.81 326.82 177.15 333.24 162.49 339.66 147.84 346.08 133.19 352.49 133.18 352.49 118.53 358.91 103.88 365.33 89.21 371.75 74.57 378.17 74.56 378.17 70.35 380.01" style="fill:none;stroke:#263238;stroke-linecap:round;stroke-linejoin:round;stroke-width:0.5px"></polyline><polyline points="404.18 248.54 394.64 252.72 379.99 259.13 365.33 265.55 350.68 271.97 336.02 278.39 321.37 284.81 306.71 291.23 292.06 297.64 292.05 297.64 277.4 304.06 262.75 310.48 248.09 316.9 233.44 323.32 218.78 329.74 204.13 336.16 189.47 342.58 174.82 349 174.81 349 160.16 355.41 145.5 361.83 130.85 368.25 116.2 374.67 101.53 381.09 86.89 387.51 86.88 387.51 74.65 392.87 74.64 392.87" style="fill:none;stroke:#263238;stroke-linecap:round;stroke-linejoin:round;stroke-width:0.5px"></polyline><polyline points="405.66 262.63 405.66 262.63 392.31 268.48 377.66 274.89 363 281.31 348.35 287.73 333.69 294.15 319.03 300.57 304.38 306.99 289.73 313.4 289.72 313.4 275.07 319.82 260.42 326.24 245.76 332.66 231.1 339.08 216.45 345.5 201.79 351.91 187.13 358.33 172.48 364.75 157.82 371.17 143.17 377.59 128.52 384.01 128.51 384.01 113.85 390.43 99.2 396.84 92.35 399.85 92.34 399.85" style="fill:none;stroke:#263238;stroke-linecap:round;stroke-linejoin:round;stroke-width:0.5px"></polyline><polyline points="112.96 405.55 112.96 405.55 126.17 399.77 126.18 399.77 140.83 393.35 140.84 393.35 155.49 386.93 170.14 380.51 184.8 374.09 199.45 367.67 214.11 361.25 228.76 354.83 228.77 354.83 243.42 348.42 258.08 342 272.74 335.58 287.39 329.16 302.05 322.74 316.7 316.32 331.36 309.91 346.01 303.49 360.67 297.07 375.32 290.65 389.98 284.23 404.63 277.81 404.64 277.81 407.64 276.5" style="fill:none;stroke:#263238;stroke-linecap:round;stroke-linejoin:round;stroke-width:0.5px"></polyline><polyline points="128.49 413.49 138.5 409.11 153.16 402.69 167.81 396.27 182.47 389.85 197.12 383.43 211.77 377.01 211.78 377.01 226.43 370.59 241.09 364.17 255.74 357.76 255.75 357.76 270.4 351.34 285.06 344.92 299.71 338.5 314.37 332.08 329.02 325.66 343.67 319.24 358.33 312.82 372.99 306.41 387.64 299.99 402.29 293.57 410.37 290.03" style="fill:none;stroke:#263238;stroke-linecap:round;stroke-linejoin:round;stroke-width:0.5px"></polyline><polyline points="147.1 420.07 150.81 418.44 165.47 412.02 180.13 405.6 194.78 399.18 209.44 392.77 224.09 386.35 238.75 379.93 253.41 373.51 268.06 367.09 282.71 360.67 282.72 360.67 297.37 354.25 312.03 347.84 326.68 341.42 341.34 335 355.99 328.58 370.65 322.16 385.3 315.75 399.96 309.33 414.05 303.16 414.05 303.16" style="fill:none;stroke:#263238;stroke-linecap:round;stroke-linejoin:round;stroke-width:0.5px"></polyline><polyline points="168.77 425.31 168.78 425.31 177.8 421.36 192.45 414.94 207.11 408.53 221.76 402.11 236.42 395.69 251.08 389.27 265.73 382.85 280.38 376.43 280.39 376.43 295.04 370.02 309.7 363.6 324.35 357.18 339.01 350.76 353.66 344.34 368.32 337.92 382.97 331.51 397.63 325.09 412.28 318.67 417.69 316.3" style="fill:none;stroke:#263238;stroke-linecap:round;stroke-linejoin:round;stroke-width:0.5px"></polyline><polyline points="193.8 429.09 204.77 424.28 219.43 417.87 234.08 411.45 248.74 405.03 263.4 398.61 278.05 392.19 292.71 385.77 307.36 379.36 307.37 379.36 322.02 372.94 336.67 366.52 351.33 360.1 365.98 353.68 380.64 347.26 395.3 340.84 409.95 334.43 421.09 329.55" style="fill:none;stroke:#263238;stroke-linecap:round;stroke-linejoin:round;stroke-width:0.5px"></polyline><polyline points="223.99 430.6 231.74 427.2 246.4 420.78 261.05 414.37 261.06 414.37 275.71 407.95 275.72 407.95 290.37 401.53 305.02 395.11 319.68 388.69 334.34 382.27 348.99 375.85 363.65 369.44 378.3 363.02 392.96 356.6 407.61 350.18 422.27 343.76 424.15 342.94" style="fill:none;stroke:#263238;stroke-linecap:round;stroke-linejoin:round;stroke-width:0.5px"></polyline><polyline points="262.37 428.52 262.38 428.52 273.37 423.71 273.38 423.71 288.03 417.28 288.04 417.28 302.69 410.87 317.35 404.45 332 398.03 346.66 391.61 361.31 385.19 375.97 378.78 390.62 372.36 405.28 365.94 419.93 359.52 426.61 356.6" style="fill:none;stroke:#263238;stroke-linecap:round;stroke-linejoin:round;stroke-width:0.5px"></polyline><polyline points="427.87 370.78 427.87 370.79 417.6 375.28 402.95 381.7 388.29 388.12 373.64 394.54 358.98 400.95 344.33 407.37 329.67 413.79 315.02 420.21 307.57 423.47 307.56 423.47" style="fill:none;stroke:#263238;stroke-linecap:round;stroke-linejoin:round;stroke-width:0.5px"></polyline><polyline points="340.28 423.87 340.29 423.87 341.98 423.12 356.64 416.71 371.3 410.29 385.95 403.87 400.6 397.45 415.26 391.03 421.48 388.31 421.49 388.3" style="fill:none;stroke:#263238;stroke-linecap:round;stroke-linejoin:round;stroke-width:0.5px"></polyline><polyline points="401.87 205.61 401.65 205.45 389.33 196.11 387.04 194.37" style="fill:none;stroke:#263238;stroke-linecap:round;stroke-linejoin:round;stroke-width:0.5px"></polyline><polyline points="376.69 204.05 386.99 211.86 399.32 221.2 402.49 223.6 402.5 223.61" style="fill:none;stroke:#263238;stroke-linecap:round;stroke-linejoin:round;stroke-width:0.5px"></polyline><polyline points="364.46 212.31 372.34 218.28 384.66 227.62 396.99 236.96 403.65 242.01" style="fill:none;stroke:#263238;stroke-linecap:round;stroke-linejoin:round;stroke-width:0.5px"></polyline><polyline points="405.79 261.2 405.46 260.91 405.45 260.91 394.64 252.72 382.33 243.38 370.01 234.04 357.69 224.7 351.11 219.71" style="fill:none;stroke:#263238;stroke-linecap:round;stroke-linejoin:round;stroke-width:0.5px"></polyline><polyline points="408.36 280.64 404.64 277.81 404.63 277.81 392.31 268.48 379.99 259.13 367.68 249.8 355.35 240.46 343.03 231.12 336.63 226.27" style="fill:none;stroke:#263238;stroke-linecap:round;stroke-linejoin:round;stroke-width:0.5px"></polyline><polyline points="413.8 302.29 413.8 302.29 402.29 293.57 389.98 284.23 377.66 274.89 365.33 265.55 353.02 256.22 340.69 246.88 328.37 237.54 320.9 231.87" style="fill:none;stroke:#263238;stroke-linecap:round;stroke-linejoin:round;stroke-width:0.5px"></polyline><polyline points="303.6 236.29 313.72 243.96 326.04 253.29 338.36 262.64 350.68 271.97 363 281.31 375.32 290.65 387.64 299.99 399.96 309.33 412.28 318.67 419.81 324.37" style="fill:none;stroke:#263238;stroke-linecap:round;stroke-linejoin:round;stroke-width:0.5px"></polyline><line x1="134.96" y1="125.98" x2="131.37" y2="123.26" style="fill:none;stroke:#263238;stroke-linecap:round;stroke-linejoin:round;stroke-width:0.5px"></line><polyline points="424.69 345.6 422.27 343.76 409.95 334.43 397.63 325.09 385.3 315.75 372.99 306.41 360.67 297.07 348.35 287.73 336.02 278.39 323.71 269.05 311.38 259.71 299.07 250.37 299.06 250.37 286.75 241.04 284.21 239.11" style="fill:none;stroke:#263238;stroke-linecap:round;stroke-linejoin:round;stroke-width:0.5px"></polyline><polyline points="122.72 134.23 136.56 144.73 136.57 144.73 148.89 154.07 149.02 154.17" style="fill:none;stroke:#263238;stroke-linecap:round;stroke-linejoin:round;stroke-width:0.5px"></polyline><polyline points="427.62 365.35 419.93 359.52 407.61 350.18 395.3 340.84 382.97 331.51 370.65 322.16 358.33 312.82 346.01 303.49 333.69 294.15 321.37 284.81 309.05 275.47 296.73 266.13 284.41 256.79 272.09 247.46 261.12 239.14 261.12 239.14" style="fill:none;stroke:#263238;stroke-linecap:round;stroke-linejoin:round;stroke-width:0.5px"></polyline><polyline points="426.2 381.8 417.6 375.28 405.28 365.94 392.96 356.6 380.64 347.26 368.32 337.92 355.99 328.58 343.67 319.24 331.36 309.91 319.03 300.57 306.71 291.23 294.4 281.89 282.07 272.55 269.75 263.21 257.43 253.87 245.11 244.53 232.79 235.19 220.48 225.86 208.15 216.52 195.83 207.18 183.51 197.84 171.19 188.5 158.87 179.16 146.56 169.83 134.23 160.48 121.91 151.14 119.51 149.32" style="fill:none;stroke:#263238;stroke-linecap:round;stroke-linejoin:round;stroke-width:0.5px"></polyline><polyline points="116.29 164.41 119.58 166.9 131.9 176.24 144.21 185.58 156.54 194.92 168.86 204.26 181.18 213.6 193.49 222.93 193.5 222.93 205.82 232.28 218.14 241.61 230.46 250.95 242.78 260.29 255.1 269.63 267.42 278.97 279.74 288.31 292.05 297.64 292.06 297.64 304.38 306.99 316.7 316.32 329.02 325.66 341.34 335 353.66 344.34 365.98 353.68 378.3 363.02 390.62 372.36 402.95 381.7 415.26 391.03 416.51 391.98" style="fill:none;stroke:#263238;stroke-linecap:round;stroke-linejoin:round;stroke-width:0.5px"></polyline><polyline points="113.07 179.5 117.25 182.66 129.56 192 141.88 201.34 154.2 210.68 166.52 220.01 178.84 229.35 191.16 238.69 191.17 238.69 203.48 248.03 215.8 257.37 228.13 266.71 240.45 276.05 252.76 285.39 252.77 285.39 265.09 294.73 277.4 304.06 289.72 313.4 289.73 313.4 302.05 322.74 314.37 332.08 326.68 341.42 339.01 350.76 351.33 360.1 363.65 369.44 375.97 378.78 388.29 388.12 400.6 397.45 402.72 399.06" style="fill:none;stroke:#263238;stroke-linecap:round;stroke-linejoin:round;stroke-width:0.5px"></polyline><polyline points="109.86 194.59 114.9 198.41 127.23 207.76 139.55 217.1 151.87 226.43 164.19 235.77 176.51 245.11 188.83 254.45 201.15 263.79 213.47 273.13 225.79 282.47 238.11 291.8 250.43 301.15 250.44 301.15 262.75 310.48 275.07 319.82 287.39 329.16 299.71 338.5 312.03 347.84 324.35 357.18 336.67 366.52 348.99 375.85 361.31 385.19 373.64 394.54 385.95 403.87 392.47 408.81" style="fill:none;stroke:#263238;stroke-linecap:round;stroke-linejoin:round;stroke-width:0.5px"></polyline><polyline points="106.64 209.68 112.57 214.17 124.89 223.51 137.21 232.85 149.53 242.19 161.86 251.53 174.17 260.87 186.49 270.21 186.5 270.21 198.82 279.55 211.13 288.89 211.14 288.89 223.45 298.22 235.78 307.56 248.09 316.9 260.42 326.24 272.74 335.58 285.06 344.92 297.37 354.25 309.7 363.6 322.02 372.94 334.34 382.27 346.66 391.61 358.98 400.95 371.3 410.29 380.5 417.26" style="fill:none;stroke:#263238;stroke-linecap:round;stroke-linejoin:round;stroke-width:0.5px"></polyline><polyline points="365.22 423.21 356.64 416.71 344.33 407.37 332 398.03 319.68 388.69 307.37 379.36 307.36 379.36 295.04 370.02 282.72 360.67 282.71 360.67 270.4 351.34 258.08 342 245.76 332.66 233.44 323.32 221.12 313.98 208.79 304.64 196.48 295.31 184.16 285.97 184.15 285.97 171.83 276.63 159.51 267.29 147.2 257.95 134.87 248.61 122.55 239.27 110.23 229.93 103.43 224.78" style="fill:none;stroke:#263238;stroke-linecap:round;stroke-linejoin:round;stroke-width:0.5px"></polyline><polyline points="343.23 424.07 341.98 423.12 329.67 413.79 317.35 404.45 305.02 395.11 292.71 385.77 280.39 376.43 280.38 376.43 268.06 367.09 255.75 357.76 255.74 357.76 243.42 348.42 231.1 339.08 218.78 329.74 206.46 320.4 194.14 311.06 181.82 301.72 169.5 292.38 157.18 283.05 144.86 273.71 132.54 264.37 120.22 255.03 107.89 245.69 100.21 239.87" style="fill:none;stroke:#263238;stroke-linecap:round;stroke-linejoin:round;stroke-width:0.5px"></polyline><polyline points="318.74 423.03 315.02 420.21 302.69 410.87 290.37 401.53 278.05 392.19 265.73 382.85 253.41 373.51 241.09 364.17 228.77 354.83 228.76 354.83 216.45 345.5 204.13 336.16 191.81 326.82 179.48 317.48 167.17 308.14 154.84 298.8 142.52 289.46 130.21 280.13 130.2 280.13 117.89 270.79 105.56 261.45 97 254.96" style="fill:none;stroke:#263238;stroke-linecap:round;stroke-linejoin:round;stroke-width:0.5px"></polyline><polyline points="93.78 270.04 93.78 270.05 103.23 277.21 115.55 286.54 127.87 295.88 140.19 305.22 152.51 314.56 164.83 323.9 177.15 333.24 189.47 342.58 201.79 351.91 214.11 361.25 226.43 370.59 238.75 379.93 251.08 389.27 263.4 398.61 275.71 407.95 275.72 407.95 288.03 417.28 288.04 417.28 297.46 424.43 297.47 424.43" style="fill:none;stroke:#263238;stroke-linecap:round;stroke-linejoin:round;stroke-width:0.5px"></polyline><line x1="88.58" y1="283.63" x2="88.57" y2="283.63" style="fill:none;stroke:#263238;stroke-linecap:round;stroke-linejoin:round;stroke-width:0.5px"></line><polyline points="90.57 285.14 100.89 292.96 113.21 302.3 125.53 311.64 137.86 320.98 150.17 330.32 162.49 339.66 174.81 349 174.82 349 187.13 358.33 199.45 367.67 211.77 377.01 211.78 377.01 224.09 386.35 236.42 395.69 248.74 405.03 261.05 414.37 261.06 414.37 273.37 423.71 273.38 423.71 277.51 426.84" style="fill:none;stroke:#263238;stroke-linecap:round;stroke-linejoin:round;stroke-width:0.5px"></polyline><polyline points="257.25 429.01 246.4 420.78 234.08 411.45 221.76 402.11 209.44 392.77 197.12 383.43 184.8 374.09 172.48 364.75 160.16 355.41 147.84 346.08 135.52 336.73 135.51 336.73 123.2 327.4 110.88 318.06 98.56 308.72 87.35 300.23 87.35 300.22 87.35 300.23" style="fill:none;stroke:#263238;stroke-linecap:round;stroke-linejoin:round;stroke-width:0.5px"></polyline><polyline points="83.9 315.14 84.14 315.32 96.22 324.48 108.55 333.82 120.86 343.15 133.18 352.49 133.19 352.49 145.5 361.83 157.82 371.17 170.14 380.51 182.47 389.85 194.78 399.18 207.11 408.53 219.43 417.87 231.74 427.2 235.92 430.37 235.93 430.37" style="fill:none;stroke:#263238;stroke-linecap:round;stroke-linejoin:round;stroke-width:0.5px"></polyline><line x1="69.25" y1="321.55" x2="69.24" y2="321.55" style="fill:none;stroke:#263238;stroke-linecap:round;stroke-linejoin:round;stroke-width:0.5px"></line><polyline points="212.85 430.4 212.84 430.4 204.77 424.28 192.45 414.94 180.13 405.6 167.81 396.27 155.49 386.93 143.17 377.59 130.85 368.25 118.53 358.91 106.21 349.57 93.89 340.24 81.57 330.89 80.92 330.41 80.92 330.4" style="fill:none;stroke:#263238;stroke-linecap:round;stroke-linejoin:round;stroke-width:0.5px"></polyline><polyline points="77.71 345.49 77.71 345.5 79.24 346.65 91.55 355.99 103.88 365.33 116.2 374.67 128.51 384.01 128.52 384.01 140.83 393.35 140.84 393.35 153.16 402.69 165.47 412.02 177.8 421.36 186.92 428.28 186.93 428.28" style="fill:none;stroke:#263238;stroke-linecap:round;stroke-linejoin:round;stroke-width:0.5px"></polyline><line x1="64.58" y1="353.08" x2="64.57" y2="353.08" style="fill:none;stroke:#263238;stroke-linecap:round;stroke-linejoin:round;stroke-width:0.5px"></line><polyline points="156.21 422.53 156.2 422.53 150.81 418.44 138.5 409.11 126.18 399.77 126.17 399.77 113.85 390.43 101.53 381.09 89.21 371.75 76.89 362.41 74.49 360.59" style="fill:none;stroke:#263238;stroke-linecap:round;stroke-linejoin:round;stroke-width:0.5px"></polyline><polyline points="71.28 375.68 74.56 378.17 74.57 378.17 86.88 387.51 86.89 387.51 99.2 396.84 104.71 401.02 104.72 401.02" style="fill:none;stroke:#263238;stroke-linecap:round;stroke-linejoin:round;stroke-width:0.5px"></polyline><path d="M400.74,179.45s-9.58,7.22-9.14,8.11,2.07,3.68,3.69,3.83,9.57-5.31,10.16-6.93-1.32-4.71-2.21-5.45S400.74,179.45,400.74,179.45Z" style="fill:#d4d4d4;stroke:#263238;stroke-linecap:round;stroke-linejoin:round"></path><path d="M409.51,190.1a3,3,0,0,0-3.78-2c-3.47,1.06-10.41,3.26-10.74,4.14-.44,1.18-.88,4.28.59,4.86s10.91-1.76,12.38-2.35,1.77-2.66,1.62-4.28A3.06,3.06,0,0,0,409.51,190.1Z" style="fill:#d4d4d4;stroke:#263238;stroke-linecap:round;stroke-linejoin:round"></path><path d="M410.35,198.37a3,3,0,0,0-3.53-2.4c-3.56.63-10.71,2-11.15,2.83-.58,1.12-1.38,4.14,0,4.9s11-.46,12.57-.87,2.07-2.43,2.12-4.05C410.37,198.64,410.36,198.51,410.35,198.37Z" style="fill:#d4d4d4;stroke:#263238;stroke-linecap:round;stroke-linejoin:round"></path><path d="M408.27,205.11a2.52,2.52,0,0,0-3-2c-3,.54-9.06,1.69-9.42,2.4-.49.94-1.17,3.49,0,4.13s9.33-.38,10.62-.73,1.75-2.05,1.79-3.42A1.88,1.88,0,0,0,408.27,205.11Z" style="fill:#d4d4d4;stroke:#263238;stroke-linecap:round;stroke-linejoin:round"></path></g></svg>
